<?xml version="1.0" encoding="UTF-8" standalone="no"?>
<!-- Created with Inkscape (http://www.inkscape.org/) -->

<svg
   xmlns:dc="http://purl.org/dc/elements/1.1/"
   xmlns:cc="http://creativecommons.org/ns#"
   xmlns:rdf="http://www.w3.org/1999/02/22-rdf-syntax-ns#"
   xmlns:svg="http://www.w3.org/2000/svg"
   xmlns="http://www.w3.org/2000/svg"
   xmlns:sodipodi="http://sodipodi.sourceforge.net/DTD/sodipodi-0.dtd"
   xmlns:inkscape="http://www.inkscape.org/namespaces/inkscape"
   width="210mm"
   height="297mm"
   viewBox="0 0 210 297"
   id="svg3392"
   version="1.1"
   inkscape:version="0.91 r13725"
   sodipodi:docname="atleticoGoianiense.svg">
  <defs
     id="defs3">
    <clipPath
       clipPathUnits="userSpaceOnUse"
       id="presentation_clip_path">
      <rect
         id="rect3403"
         height="29700"
         width="21000"
         y="0"
         x="0" />
    </clipPath>
  </defs>
  <sodipodi:namedview
     inkscape:document-units="mm"
     id="base"
     pagecolor="#ffffff"
     bordercolor="#666666"
     borderopacity="1.0"
     inkscape:pageopacity="0.0"
     inkscape:pageshadow="2"
     inkscape:zoom="0.7"
     inkscape:cx="544.82403"
     inkscape:cy="462.56616"
     inkscape:current-layer="layer1"
     showgrid="false"
     inkscape:window-width="1619"
     inkscape:window-height="1026"
     inkscape:window-x="61"
     inkscape:window-y="24"
     inkscape:window-maximized="1" />
  <metadata
     id="metadata4">
    <rdf:RDF>
      <cc:Work
         rdf:about="">
        <dc:format>image/svg+xml</dc:format>
        <dc:type
           rdf:resource="http://purl.org/dc/dcmitype/StillImage" />
        <dc:title></dc:title>
      </cc:Work>
    </rdf:RDF>
  </metadata>
  <g
     inkscape:label="Layer 1"
     inkscape:groupmode="layer"
     id="layer1">
    <g
       style="fill-rule:evenodd;stroke-width:28.22200012;stroke-linejoin:round"
       id="g3544"
       transform="matrix(0.01052421,0,0,0.01031653,-2.104842,-1.432592)">
      <g
         id="g3440">
        <g
           class="Master_Slide"
           id="id2">
          <g
             class="Background"
             id="bg-id2" />
          <g
             class="BackgroundObjects"
             id="bo-id2" />
        </g>
      </g>
      <g
         id="g3445"
         class="SlideGroup">
        <g
           id="g3447">
          <g
             clip-path="url(#presentation_clip_path)"
             class="Slide"
             id="id1">
            <g
               id="g3450"
               class="Page">
              <g
                 id="g3452"
                 class="Group">
                <g
                   id="g3454"
                   class="com.sun.star.drawing.PolyPolygonShape">
                  <g
                     id="id3">
                    <rect
                       id="rect3457"
                       height="21325"
                       width="19954"
                       y="4210"
                       x="200"
                       class="BoundingBox"
                       style="fill:none;stroke:none" />
                    <path
                       id="path3459"
                       d="m 201,4211 0,7020 10121,14303 9831,-14305 0,-7018 -19952,0 z"
                       inkscape:connector-curvature="0"
                       style="fill:#1b1918;stroke:none" />
                  </g>
                </g>
                <g
                   id="g3461"
                   class="com.sun.star.drawing.ClosedBezierShape">
                  <g
                     id="id4">
                    <rect
                       id="rect3464"
                       height="19677"
                       width="18755"
                       y="4809"
                       x="801"
                       class="BoundingBox"
                       style="fill:none;stroke:none" />
                    <path
                       id="path3466"
                       d="m 19554,4810 c 0,538 0,6059 0,6232 -101,148 -8779,12774 -9239,13443 C 9846,23822 907,11189 801,11039 c 0,-176 0,-5691 0,-6229 572,0 18181,0 18753,0 z"
                       inkscape:connector-curvature="0"
                       style="fill:#ffffff;stroke:none" />
                  </g>
                </g>
                <g
                   id="g3468"
                   class="com.sun.star.drawing.PolyPolygonShape">
                  <g
                     id="id5">
                    <rect
                       id="rect3471"
                       height="5601"
                       width="17269"
                       y="5416"
                       x="1543"
                       class="BoundingBox"
                       style="fill:none;stroke:none" />
                    <path
                       id="path3473"
                       d="m 1543,5416 0,5600 17268,0 0,-5600 -17268,0 z"
                       inkscape:connector-curvature="0"
                       style="fill:#1b1918;stroke:none" />
                  </g>
                </g>
                <g
                   id="g3475"
                   class="com.sun.star.drawing.ClosedBezierShape">
                  <g
                     id="id6">
                    <rect
                       id="rect3478"
                       height="4401"
                       width="16071"
                       y="6016"
                       x="2143"
                       class="BoundingBox"
                       style="fill:none;stroke:none" />
                    <path
                       id="path3480"
                       d="m 18212,6016 c 0,496 0,3903 0,4400 -567,0 -15502,0 -16069,0 0,-497 0,-3904 0,-4400 567,0 15502,0 16069,0 z"
                       inkscape:connector-curvature="0"
                       style="fill:#ffffff;stroke:none" />
                  </g>
                </g>
                <g
                   id="g3482"
                   class="com.sun.star.drawing.ClosedBezierShape">
                  <g
                     id="id7">
                    <rect
                       id="rect3485"
                       height="3158"
                       width="3921"
                       y="6835"
                       x="2624"
                       class="BoundingBox"
                       style="fill:none;stroke:none" />
                    <path
                       id="path3487"
                       d="m 4099,6835 -1474,3157 1029,0 c 0,0 239,-546 289,-660 132,0 1134,0 1263,0 52,111 304,660 304,660 l 1034,0 -1536,-3157 -909,0 z m 0,0 0,0 z m 768,1762 c -187,0 -417,0 -601,0 77,-175 190,-435 293,-668 108,232 227,491 308,668 z"
                       inkscape:connector-curvature="0"
                       style="fill:#1b1918;stroke:none" />
                  </g>
                </g>
                <g
                   id="g3489"
                   class="com.sun.star.drawing.PolyPolygonShape">
                  <g
                     id="id8">
                    <rect
                       id="rect3492"
                       height="804"
                       width="918"
                       y="9189"
                       x="6721"
                       class="BoundingBox"
                       style="fill:none;stroke:none" />
                    <path
                       id="path3494"
                       d="m 6722,9189 0,803 916,0 0,-803 -916,0 z"
                       inkscape:connector-curvature="0"
                       style="fill:#1b1918;stroke:none" />
                  </g>
                </g>
                <g
                   id="g3496"
                   class="com.sun.star.drawing.ClosedBezierShape">
                  <g
                     id="id9">
                    <rect
                       id="rect3499"
                       height="3256"
                       width="3357"
                       y="6782"
                       x="7860"
                       class="BoundingBox"
                       style="fill:none;stroke:none" />
                    <path
                       id="path3501"
                       d="m 10256,8760 c -52,188 -136,325 -250,408 -117,85 -254,127 -420,127 -228,0 -406,-66 -545,-201 -137,-132 -206,-368 -206,-703 0,-310 70,-535 208,-666 142,-135 325,-200 558,-200 166,0 307,37 420,110 109,71 179,166 213,289 l 30,108 949,-192 -45,-130 c -88,-254 -223,-452 -402,-588 -290,-225 -671,-339 -1129,-339 -524,0 -955,145 -1281,433 -329,291 -496,702 -496,1221 0,493 166,888 494,1175 324,282 741,425 1238,425 401,0 738,-84 1005,-249 270,-169 465,-431 579,-778 l 40,-121 -928,-242 -32,113 z"
                       inkscape:connector-curvature="0"
                       style="fill:#1b1918;stroke:none" />
                  </g>
                </g>
                <g
                   id="g3503"
                   class="com.sun.star.drawing.PolyPolygonShape">
                  <g
                     id="id10">
                    <rect
                       id="rect3506"
                       height="804"
                       width="918"
                       y="9189"
                       x="11535"
                       class="BoundingBox"
                       style="fill:none;stroke:none" />
                    <path
                       id="path3508"
                       d="m 11536,9189 0,803 916,0 0,-803 -916,0 z"
                       inkscape:connector-curvature="0"
                       style="fill:#1b1918;stroke:none" />
                  </g>
                </g>
                <g
                   id="g3510"
                   class="com.sun.star.drawing.ClosedBezierShape">
                  <g
                     id="id11">
                    <rect
                       id="rect3513"
                       height="3263"
                       width="3549"
                       y="6783"
                       x="12794"
                       class="BoundingBox"
                       style="fill:none;stroke:none" />
                    <path
                       id="path3515"
                       d="m 14564,8920 c 0,0 649,0 824,0 0,79 0,125 0,182 -88,50 -188,96 -305,134 -139,45 -278,67 -416,67 -275,0 -489,-76 -655,-229 -161,-150 -243,-383 -243,-693 0,-288 78,-498 237,-639 161,-145 385,-217 666,-217 184,0 337,36 455,109 114,69 190,159 231,276 l 33,95 936,-149 -35,-129 c -78,-296 -256,-531 -529,-699 -265,-163 -633,-245 -1093,-245 -352,0 -653,52 -894,157 -318,133 -564,331 -731,587 -167,256 -251,552 -251,880 0,300 75,582 223,839 150,260 377,461 674,598 290,134 632,201 1017,201 302,0 605,-47 900,-140 296,-95 528,-207 688,-335 l 45,-36 0,-1349 -1777,0 0,735 z"
                       inkscape:connector-curvature="0"
                       style="fill:#1b1918;stroke:none" />
                  </g>
                </g>
                <g
                   id="g3517"
                   class="com.sun.star.drawing.PolyPolygonShape">
                  <g
                     id="id12">
                    <rect
                       id="rect3520"
                       height="804"
                       width="918"
                       y="9189"
                       x="16744"
                       class="BoundingBox"
                       style="fill:none;stroke:none" />
                    <path
                       id="path3522"
                       d="m 16745,9189 0,803 916,0 0,-803 -916,0 z"
                       inkscape:connector-curvature="0"
                       style="fill:#1b1918;stroke:none" />
                  </g>
                </g>
                <g
                   id="g3524"
                   class="com.sun.star.drawing.PolyPolygonShape">
                  <g
                     id="id13">
                    <rect
                       id="rect3527"
                       height="11260"
                       width="7874"
                       y="11469"
                       x="2066"
                       class="BoundingBox"
                       style="fill:none;stroke:none" />
                    <path
                       id="path3529"
                       d="m 9938,22728 0,-11259 -7872,0 7872,11259 z"
                       inkscape:connector-curvature="0"
                       style="fill:#e63214;stroke:none" />
                  </g>
                </g>
                <g
                   id="g3531"
                   class="com.sun.star.drawing.PolyPolygonShape">
                  <g
                     id="id14">
                    <rect
                       id="rect3534"
                       height="11260"
                       width="7873"
                       y="11469"
                       x="10656"
                       class="BoundingBox"
                       style="fill:none;stroke:none" />
                    <path
                       id="path3536"
                       d="m 10656,22728 0,-11259 7872,0 -7872,11259 z"
                       inkscape:connector-curvature="0"
                       style="fill:#1b1918;stroke:none" />
                  </g>
                </g>
              </g>
            </g>
          </g>
        </g>
      </g>
    </g>
  </g>
</svg>
