<?xml version="1.0" encoding="UTF-8" standalone="no"?>
<!-- Created with Inkscape (http://www.inkscape.org/) -->

<svg
   xmlns:dc="http://purl.org/dc/elements/1.1/"
   xmlns:cc="http://creativecommons.org/ns#"
   xmlns:rdf="http://www.w3.org/1999/02/22-rdf-syntax-ns#"
   xmlns:svg="http://www.w3.org/2000/svg"
   xmlns="http://www.w3.org/2000/svg"
   xmlns:sodipodi="http://sodipodi.sourceforge.net/DTD/sodipodi-0.dtd"
   xmlns:inkscape="http://www.inkscape.org/namespaces/inkscape"
   width="210mm"
   height="297mm"
   viewBox="0 0 210 297"
   id="svg3392"
   version="1.1"
   inkscape:version="0.91 r13725"
   sodipodi:docname="atleticoMineiro.svg">
  <defs
     id="defs3">
    <clipPath
       clipPathUnits="userSpaceOnUse"
       id="presentation_clip_path">
      <rect
         id="rect3403"
         height="29700"
         width="21000"
         y="0"
         x="0" />
    </clipPath>
    <clipPath
       clipPathUnits="userSpaceOnUse"
       id="presentation_clip_path-3">
      <rect
         id="rect3646"
         height="29700"
         width="21000"
         y="0"
         x="0" />
    </clipPath>
  </defs>
  <sodipodi:namedview
     inkscape:document-units="mm"
     id="base"
     pagecolor="#ffffff"
     bordercolor="#666666"
     borderopacity="1.0"
     inkscape:pageopacity="0.0"
     inkscape:pageshadow="2"
     inkscape:zoom="0.7"
     inkscape:cx="544.82403"
     inkscape:cy="519.70902"
     inkscape:current-layer="layer1"
     showgrid="false"
     inkscape:window-width="1619"
     inkscape:window-height="1026"
     inkscape:window-x="61"
     inkscape:window-y="24"
     inkscape:window-maximized="1" />
  <metadata
     id="metadata4">
    <rdf:RDF>
      <cc:Work
         rdf:about="">
        <dc:format>image/svg+xml</dc:format>
        <dc:type
           rdf:resource="http://purl.org/dc/dcmitype/StillImage" />
        <dc:title></dc:title>
      </cc:Work>
    </rdf:RDF>
  </metadata>
  <g
     inkscape:label="Layer 1"
     inkscape:groupmode="layer"
     id="layer1">
    <g
       style="fill-rule:evenodd;stroke-width:28.22200012;stroke-linejoin:round"
       id="g3787"
       transform="matrix(0.01192775,0,0,0.0109269,-13.311371,-20.094116)">
      <g
         id="g3683">
        <g
           class="Master_Slide"
           id="id2">
          <g
             class="Background"
             id="bg-id2" />
          <g
             class="BackgroundObjects"
             id="bo-id2" />
        </g>
      </g>
      <g
         id="g3688"
         class="SlideGroup">
        <g
           id="g3690">
          <g
             clip-path="url(#presentation_clip_path-3)"
             class="Slide"
             id="id1">
            <g
               id="g3693"
               class="Page">
              <g
                 id="g3695"
                 class="Group">
                <g
                   id="g3697"
                   class="com.sun.star.drawing.ClosedBezierShape">
                  <g
                     id="id3">
                    <rect
                       id="rect3700"
                       height="21143"
                       width="17606"
                       y="7419"
                       x="1116"
                       class="BoundingBox"
                       style="fill:none;stroke:none" />
                    <path
                       id="path3702"
                       d="M 18508,10119 C 12986,12026 9918,7419 9918,7419 c 0,0 -3067,4607 -8589,2700 0,0 -2352,10573 8589,18442 10943,-7869 8590,-18442 8590,-18442 z"
                       inkscape:connector-curvature="0"
                       style="fill:#1b1918;stroke:none" />
                  </g>
                </g>
                <g
                   id="g3704"
                   class="com.sun.star.drawing.ClosedBezierShape">
                  <g
                     id="id4">
                    <rect
                       id="rect3707"
                       height="19307"
                       width="16306"
                       y="8451"
                       x="1766"
                       class="BoundingBox"
                       style="fill:none;stroke:none" />
                    <path
                       id="path3709"
                       d="m 8040,10034 c 845,-531 1474,-1134 1879,-1583 405,449 1033,1052 1879,1583 1332,834 3447,1627 6182,921 47,408 91,978 91,1677 0,1003 -91,2268 -400,3682 -443,2023 -1238,3953 -2364,5736 -1337,2117 -3149,4034 -5388,5707 C 7679,26084 5868,24167 4531,22050 3405,20267 2609,18337 2167,16314 c -309,-1414 -400,-2678 -400,-3682 0,-699 44,-1269 91,-1677 2734,706 4850,-87 6182,-921 z"
                       inkscape:connector-curvature="0"
                       style="fill:#ffffff;stroke:none" />
                  </g>
                </g>
                <g
                   id="g3711"
                   class="com.sun.star.drawing.PolyPolygonShape">
                  <g
                     id="id5">
                    <rect
                       id="rect3714"
                       height="4441"
                       width="4670"
                       y="2022"
                       x="7584"
                       class="BoundingBox"
                       style="fill:none;stroke:none" />
                    <path
                       id="path3716"
                       d="m 12253,3717 -1784,0 -551,-1695 -551,1695 -1783,0 1443,1049 -552,1696 1443,-1048 1444,1048 -552,-1696 1443,-1049 z"
                       inkscape:connector-curvature="0"
                       style="fill:#ffd400;stroke:none" />
                  </g>
                </g>
                <g
                   id="g3718"
                   class="com.sun.star.drawing.ClosedBezierShape">
                  <g
                     id="id6">
                    <rect
                       id="rect3721"
                       height="11208"
                       width="2353"
                       y="16046"
                       x="8742"
                       class="BoundingBox"
                       style="fill:none;stroke:none" />
                    <path
                       id="path3723"
                       d="m 8742,16046 0,10248 c 376,328 768,648 1175,959 408,-311 800,-631 1177,-959 l 0,-10248 -2352,0 z"
                       inkscape:connector-curvature="0"
                       style="fill:#1b1918;stroke:none" />
                  </g>
                </g>
                <g
                   id="g3725"
                   class="com.sun.star.drawing.ClosedBezierShape">
                  <g
                     id="id7">
                    <rect
                       id="rect3728"
                       height="9682"
                       width="2353"
                       y="16046"
                       x="11721"
                       class="BoundingBox"
                       style="fill:none;stroke:none" />
                    <path
                       id="path3730"
                       d="m 11721,16046 0,9681 c 876,-822 1662,-1690 2352,-2601 l 0,-7080 -2352,0 z"
                       inkscape:connector-curvature="0"
                       style="fill:#1b1918;stroke:none" />
                  </g>
                </g>
                <g
                   id="g3732"
                   class="com.sun.star.drawing.ClosedBezierShape">
                  <g
                     id="id8">
                    <rect
                       id="rect3735"
                       height="9682"
                       width="2353"
                       y="16046"
                       x="5764"
                       class="BoundingBox"
                       style="fill:none;stroke:none" />
                    <path
                       id="path3737"
                       d="m 5764,16046 0,7080 c 689,911 1475,1779 2352,2601 l 0,-9681 -2352,0 z"
                       inkscape:connector-curvature="0"
                       style="fill:#1b1918;stroke:none" />
                  </g>
                </g>
                <g
                   id="g3739"
                   class="com.sun.star.drawing.ClosedBezierShape">
                  <g
                     id="id9">
                    <rect
                       id="rect3742"
                       height="6201"
                       width="2618"
                       y="16046"
                       x="2521"
                       class="BoundingBox"
                       style="fill:none;stroke:none" />
                    <path
                       id="path3744"
                       d="m 2521,16046 c 15,72 30,145 46,219 436,1971 1215,3854 2318,5592 82,131 166,260 253,389 l 0,-6200 -2617,0 z"
                       inkscape:connector-curvature="0"
                       style="fill:#1b1918;stroke:none" />
                  </g>
                </g>
                <g
                   id="g3746"
                   class="com.sun.star.drawing.ClosedBezierShape">
                  <g
                     id="id10">
                    <rect
                       id="rect3749"
                       height="6463"
                       width="15502"
                       y="9033"
                       x="2168"
                       class="BoundingBox"
                       style="fill:none;stroke:none" />
                    <path
                       id="path3751"
                       d="m 17669,12632 c 0,-454 -20,-851 -46,-1183 -2650,546 -4713,-244 -6038,-1076 -696,-436 -1253,-922 -1666,-1340 -415,418 -972,904 -1668,1340 -1325,832 -3388,1622 -6038,1076 -26,332 -45,729 -45,1183 0,801 59,1776 247,2862 l 15006,0 c 188,-1086 248,-2061 248,-2862 z"
                       inkscape:connector-curvature="0"
                       style="fill:#1b1918;stroke:none" />
                  </g>
                </g>
                <g
                   id="g3753"
                   class="com.sun.star.drawing.ClosedBezierShape">
                  <g
                     id="id11">
                    <rect
                       id="rect3756"
                       height="6201"
                       width="2618"
                       y="16046"
                       x="14699"
                       class="BoundingBox"
                       style="fill:none;stroke:none" />
                    <path
                       id="path3758"
                       d="m 14699,22246 c 86,-129 170,-258 253,-389 1102,-1738 1881,-3621 2317,-5592 16,-74 32,-147 47,-219 l -2617,0 0,6200 z"
                       inkscape:connector-curvature="0"
                       style="fill:#1b1918;stroke:none" />
                  </g>
                </g>
                <g
                   id="g3760"
                   class="com.sun.star.drawing.ClosedBezierShape">
                  <g
                     id="id12">
                    <rect
                       id="rect3763"
                       height="2844"
                       width="2545"
                       y="12144"
                       x="3934"
                       class="BoundingBox"
                       style="fill:none;stroke:none" />
                    <path
                       id="path3765"
                       d="m 5878,14028 c -71,219 -326,347 -599,347 -458,0 -634,-404 -634,-810 0,-405 176,-810 634,-810 241,0 505,94 589,275 l 589,-361 c -230,-340 -733,-525 -1147,-525 -826,0 -1376,630 -1376,1421 0,791 550,1422 1376,1422 495,0 964,-212 1168,-591 l -600,-368 z"
                       inkscape:connector-curvature="0"
                       style="fill:#ffffff;stroke:none" />
                  </g>
                </g>
                <g
                   id="g3767"
                   class="com.sun.star.drawing.PolyPolygonShape">
                  <g
                     id="id13">
                    <rect
                       id="rect3770"
                       height="2729"
                       width="2764"
                       y="12201"
                       x="8264"
                       class="BoundingBox"
                       style="fill:none;stroke:none" />
                    <path
                       id="path3772"
                       d="m 10006,12201 -722,0 -1020,2728 730,0 172,-489 951,0 168,489 742,0 -1021,-2728 z m 0,0 0,0 z m -676,1712 310,-956 309,956 -619,0 z"
                       inkscape:connector-curvature="0"
                       style="fill:#ffffff;stroke:none" />
                  </g>
                </g>
                <g
                   id="g3774"
                   class="com.sun.star.drawing.PolyPolygonShape">
                  <g
                     id="id14">
                    <rect
                       id="rect3777"
                       height="2729"
                       width="3043"
                       y="12201"
                       x="12783"
                       class="BoundingBox"
                       style="fill:none;stroke:none" />
                    <path
                       id="path3779"
                       d="m 14778,12201 -470,1819 -478,-1819 -1047,0 0,2728 668,0 0,-2071 582,2071 542,0 574,-2071 8,2071 668,0 0,-2728 -1047,0 z"
                       inkscape:connector-curvature="0"
                       style="fill:#ffffff;stroke:none" />
                  </g>
                </g>
              </g>
            </g>
          </g>
        </g>
      </g>
    </g>
  </g>
</svg>
