<?xml version="1.0" encoding="UTF-8" standalone="no"?>
<!-- Created with Inkscape (http://www.inkscape.org/) -->

<svg
   xmlns:dc="http://purl.org/dc/elements/1.1/"
   xmlns:cc="http://creativecommons.org/ns#"
   xmlns:rdf="http://www.w3.org/1999/02/22-rdf-syntax-ns#"
   xmlns:svg="http://www.w3.org/2000/svg"
   xmlns="http://www.w3.org/2000/svg"
   xmlns:sodipodi="http://sodipodi.sourceforge.net/DTD/sodipodi-0.dtd"
   xmlns:inkscape="http://www.inkscape.org/namespaces/inkscape"
   width="210mm"
   height="297mm"
   viewBox="0 0 210 297"
   id="svg3392"
   version="1.1"
   inkscape:version="0.91 r13725"
   sodipodi:docname="atleticoParanaense.svg">
  <defs
     id="defs3">
    <clipPath
       clipPathUnits="userSpaceOnUse"
       id="presentation_clip_path">
      <rect
         id="rect3403"
         height="29700"
         width="21000"
         y="0"
         x="0" />
    </clipPath>
    <clipPath
       clipPathUnits="userSpaceOnUse"
       id="presentation_clip_path-3">
      <rect
         id="rect3646"
         height="29700"
         width="21000"
         y="0"
         x="0" />
    </clipPath>
    <clipPath
       clipPathUnits="userSpaceOnUse"
       id="presentation_clip_path-6">
      <rect
         id="rect3870"
         height="29700"
         width="21000"
         y="0"
         x="0" />
    </clipPath>
  </defs>
  <sodipodi:namedview
     inkscape:document-units="mm"
     id="base"
     pagecolor="#ffffff"
     bordercolor="#666666"
     borderopacity="1.0"
     inkscape:pageopacity="0.0"
     inkscape:pageshadow="2"
     inkscape:zoom="0.7"
     inkscape:cx="544.82403"
     inkscape:cy="519.70902"
     inkscape:current-layer="layer1"
     showgrid="false"
     inkscape:window-width="1619"
     inkscape:window-height="1026"
     inkscape:window-x="61"
     inkscape:window-y="24"
     inkscape:window-maximized="1" />
  <metadata
     id="metadata4">
    <rdf:RDF>
      <cc:Work
         rdf:about="">
        <dc:format>image/svg+xml</dc:format>
        <dc:type
           rdf:resource="http://purl.org/dc/dcmitype/StillImage" />
        <dc:title></dc:title>
      </cc:Work>
    </rdf:RDF>
  </metadata>
  <g
     inkscape:label="Layer 1"
     inkscape:groupmode="layer"
     id="layer1">
    <g
       style="fill-rule:evenodd;stroke-width:28.22200012;stroke-linejoin:round"
       id="g3997"
       transform="matrix(0.01095062,0,0,0.01095119,-6.449914,-15.614229)">
      <g
         id="g3907">
        <g
           class="Master_Slide"
           id="id2">
          <g
             class="Background"
             id="bg-id2" />
          <g
             class="BackgroundObjects"
             id="bo-id2" />
        </g>
      </g>
      <g
         id="g3912"
         class="SlideGroup">
        <g
           id="g3914">
          <g
             clip-path="url(#presentation_clip_path-6)"
             class="Slide"
             id="id1">
            <g
               id="g3917"
               class="Page">
              <g
                 id="g3919"
                 class="Group">
                <g
                   id="g3921"
                   class="com.sun.star.drawing.ClosedBezierShape">
                  <g
                     id="id3">
                    <rect
                       id="rect3924"
                       height="19176"
                       width="19177"
                       y="5261"
                       x="589"
                       class="BoundingBox"
                       style="fill:none;stroke:none" />
                    <path
                       id="path3926"
                       d="m 10176,5261 c -5286,0 -9586,4300 -9586,9588 0,5286 4300,9587 9586,9587 5288,0 9589,-4301 9589,-9587 0,-5288 -4301,-9588 -9589,-9588 z"
                       inkscape:connector-curvature="0"
                       style="fill:#1b1918;stroke:none" />
                  </g>
                </g>
                <g
                   id="g3928"
                   class="com.sun.star.drawing.ClosedBezierShape">
                  <g
                     id="id4">
                    <rect
                       id="rect3931"
                       height="18629"
                       width="18630"
                       y="5525"
                       x="853"
                       class="BoundingBox"
                       style="fill:none;stroke:none" />
                    <path
                       id="path3933"
                       d="m 853,14849 c 0,5130 4182,9304 9324,9304 5131,0 9305,-4174 9305,-9304 0,-5142 -4174,-9324 -9305,-9324 -5142,0 -9324,4182 -9324,9324 z m 0,0 0,0 z m 282,0 c 0,-4986 4056,-9042 9042,-9042 4976,0 9023,4056 9023,9042 0,4974 -4047,9022 -9023,9022 -4986,0 -9042,-4048 -9042,-9022 z"
                       inkscape:connector-curvature="0"
                       style="fill:#e51e15;stroke:none" />
                  </g>
                </g>
                <g
                   id="g3935"
                   class="com.sun.star.drawing.ClosedBezierShape">
                  <g
                     id="id5">
                    <rect
                       id="rect3938"
                       height="10841"
                       width="16556"
                       y="6599"
                       x="1947"
                       class="BoundingBox"
                       style="fill:none;stroke:none" />
                    <path
                       id="path3940"
                       d="m 2461,16601 c -38,19 -77,76 -95,133 -20,38 -20,95 0,172 18,95 76,171 133,209 95,38 190,57 286,19 114,-38 190,-95 228,-172 38,-76 57,-171 19,-266 -19,-57 -38,-95 -76,-114 -38,-39 -95,-76 -171,-76 l -39,-172 c 96,0 210,19 286,76 96,76 153,152 172,248 38,133 38,285 -38,400 -77,133 -172,209 -324,267 -153,37 -286,19 -400,-39 -115,-76 -210,-171 -248,-324 -19,-56 -19,-114 -19,-171 0,-57 19,-95 38,-133 l -76,38 -38,-134 324,-95 38,134 z m 0,0 0,0 z m 571,-686 -152,19 0,-114 -724,57 0,114 -133,0 -39,-419 153,-19 0,133 724,-57 -19,-248 -153,0 -19,-152 305,-38 57,724 z m 0,0 0,0 z m -438,-1238 c 95,0 152,-19 172,-38 38,-39 57,-77 57,-134 0,-76 0,-114 -38,-152 -39,-19 -96,-38 -172,-38 l -495,-19 0,95 -153,0 19,-400 153,0 -19,114 476,19 c 76,0 134,0 172,19 38,0 76,19 114,38 38,38 76,76 95,134 19,57 38,114 38,190 -19,57 -19,134 -38,172 -38,57 -57,95 -95,114 -38,38 -76,57 -114,57 -58,19 -115,19 -191,19 l -476,-19 0,95 -152,0 18,-400 134,0 0,115 495,19 z m 0,0 0,0 z m 57,-1372 324,76 19,-76 c 19,-76 19,-114 0,-152 -19,-38 -57,-77 -114,-77 -57,-19 -114,-19 -152,20 -20,19 -58,57 -77,133 l 0,76 z m 0,0 0,0 z m -381,-95 248,76 19,-76 c 0,-57 0,-95 -19,-134 -19,-38 -38,-57 -57,-57 -57,-19 -95,0 -115,19 -38,19 -57,58 -57,95 l -19,77 z m 0,0 0,0 z m 781,495 -133,-38 19,-95 -705,-172 -38,115 -133,-39 76,-361 c 38,-115 76,-191 133,-248 57,-38 134,-57 191,-38 57,19 95,38 114,76 38,38 57,76 57,152 19,-76 76,-114 114,-152 58,-19 115,-38 191,-19 95,19 152,76 191,152 38,77 38,172 0,305 l -77,362 z m 0,0 0,0 z m 286,-1086 -133,-38 38,-114 -705,-267 -38,114 -115,-57 267,-744 267,115 -57,152 -133,-57 -115,306 229,95 114,-268 133,57 -95,268 305,114 114,-305 -152,-58 76,-152 286,114 -286,725 z m 0,0 0,0 z m 572,-2172 133,-191 -362,-114 229,305 z m 0,0 0,0 z m 209,285 57,-95 134,76 -229,305 -114,-76 57,-76 -476,-629 -57,76 -115,-76 305,-438 114,95 -76,95 762,210 57,-76 114,95 -209,305 -133,-76 76,-96 -191,-57 -190,267 114,171 z m 0,0 0,0 z m 896,-1086 95,-95 114,95 -324,324 -95,-95 95,-95 -552,-514 -95,114 114,95 -114,114 -210,-190 533,-572 210,191 -114,114 -115,-95 -76,95 534,514 z m 0,0 0,0 z m 552,-305 -76,-114 76,-57 -457,-590 -95,57 -77,-115 324,-247 95,114 -95,76 457,591 210,-172 -115,-133 134,-95 190,248 -571,437 z m 0,0 0,0 z m 819,-590 -76,-133 95,-57 -362,-648 -95,57 -76,-133 686,-381 133,247 -133,77 -77,-115 -285,153 133,228 248,-133 76,133 -248,134 172,285 285,-152 -95,-153 153,-76 152,267 -686,400 z m 0,0 0,0 z m -286,-1143 0,-286 134,-76 -58,305 -76,57 z m 0,0 0,0 z m 1696,305 114,-57 57,152 -438,134 -38,-134 133,-38 -247,-705 -134,38 57,153 -171,38 -95,-267 743,-267 95,286 -153,57 -37,-152 -134,57 248,705 z m 0,0 0,0 z m 895,-248 95,-19 39,134 -401,95 -38,-134 115,-38 -172,-724 -95,19 -38,-133 400,-95 19,152 -95,19 171,724 z m 0,0 0,0 z m 1162,-705 c -19,-57 -57,-95 -114,-133 -38,-19 -95,-38 -152,-38 -115,19 -191,57 -248,133 -57,57 -76,153 -76,267 19,114 57,191 114,248 76,57 152,95 267,76 57,0 114,-19 152,-57 38,-19 76,-76 114,-134 l 172,-19 c -19,115 -57,191 -134,267 -95,76 -171,114 -285,133 -153,0 -286,-38 -400,-133 -115,-95 -172,-210 -191,-362 -19,-152 19,-286 114,-400 96,-114 210,-172 362,-191 57,0 115,0 172,19 38,20 95,39 114,77 l 0,-96 153,-18 19,342 -153,19 z m 0,0 0,0 z m 668,134 c 19,-153 76,-267 191,-362 114,-76 247,-115 399,-96 77,0 153,20 210,58 57,19 95,57 133,114 58,57 95,133 115,190 38,77 38,153 19,229 0,76 -19,133 -58,191 -37,76 -76,114 -114,171 -76,38 -133,76 -209,95 -58,19 -133,19 -210,19 -152,-19 -285,-95 -381,-209 -76,-114 -114,-248 -95,-400 z m 0,0 0,0 z m 191,38 c -20,95 0,190 57,266 57,77 152,115 247,134 95,0 172,-19 248,-76 76,-58 114,-134 133,-248 19,-95 0,-190 -57,-267 -57,-76 -152,-114 -247,-133 -96,-19 -172,19 -248,76 -76,57 -115,134 -133,248 z m 0,0 0,0 z m 2400,152 -153,343 58,19 c 76,38 152,38 190,38 57,-19 95,-57 114,-114 20,-57 20,-114 0,-152 -38,-38 -76,-77 -171,-115 l -38,-19 z m 0,0 0,0 z m -286,686 114,57 -38,133 -400,-171 38,-133 114,57 286,-705 -114,-38 57,-134 324,134 c 134,57 229,114 285,190 39,96 39,172 0,286 -37,95 -95,153 -190,172 -95,38 -209,19 -343,-38 l -57,-20 -76,210 z m 0,0 0,0 z m 1086,152 209,115 76,-362 -285,247 z m 0,0 0,0 z m -267,229 96,57 -58,114 -324,-190 77,-114 56,38 610,-515 -95,-57 76,-133 457,267 -76,133 -114,-57 -153,781 96,38 -77,133 -342,-209 76,-115 95,58 38,-210 -286,-152 -152,133 z m 0,0 0,0 z m 1562,133 -152,210 95,76 c 57,38 95,76 134,76 37,0 76,-19 95,-57 38,-38 38,-76 38,-114 -19,-38 -38,-76 -96,-114 l -114,-77 z m 0,0 0,0 z m -457,591 95,76 -76,115 -343,-267 95,-115 77,77 476,-591 -95,-76 95,-114 324,266 c 114,76 171,153 190,229 19,76 0,133 -57,209 -38,38 -76,77 -114,96 -57,0 -96,0 -153,-19 20,38 39,76 57,114 0,38 -18,76 -57,114 l -133,172 76,57 -95,114 -229,-171 172,-210 c 57,-76 76,-114 76,-152 0,-38 -38,-95 -95,-134 l -76,-57 -210,267 z m 0,0 0,0 z m 1162,590 152,191 191,-324 -343,133 z m 0,0 0,0 z m -324,153 76,76 -114,95 -247,-286 114,-95 57,57 724,-285 -76,-76 114,-96 343,400 -95,95 -76,-95 -401,686 57,76 -114,95 -247,-304 95,-96 76,77 114,-172 -228,-228 -172,76 z m 0,0 0,0 z m 800,1029 57,95 -133,76 -209,-343 133,-76 57,95 629,-400 -58,-95 134,-76 152,266 -362,686 439,-286 -58,-95 134,-76 209,343 -133,76 -57,-95 -781,476 -77,-133 439,-762 -515,324 z m 0,0 0,0 z m 953,1066 76,211 286,-230 -362,19 z m 0,0 0,0 z m -343,19 38,97 -133,57 -134,-344 134,-57 19,76 800,-19 -38,-114 133,-39 190,497 -133,38 -57,-115 -590,515 19,95 -134,38 -133,-362 133,-57 38,114 153,-133 -115,-306 -190,19 z m 0,0 0,0 z m 190,973 134,-19 19,95 743,-152 -38,-115 152,-38 172,781 -267,58 -38,-153 133,-38 -76,-324 -267,57 76,267 -152,38 -57,-266 -324,76 57,323 172,-38 38,153 -305,76 -172,-781 z m 0,0 0,0 z m 400,1391 0,114 -133,0 -19,-400 152,0 0,114 743,-19 0,-114 153,0 0,324 -667,381 534,-19 0,-115 133,0 19,400 -152,0 0,-114 -915,19 0,-152 781,-438 -629,19 z m 0,0 0,0 z m -76,1219 -95,-19 19,-153 343,58 -19,133 c -76,19 -133,38 -172,76 -38,38 -76,95 -76,153 0,38 0,75 38,114 19,38 57,57 96,76 38,0 76,-19 95,-38 38,-19 57,-77 95,-133 l 38,-115 c 38,-95 77,-152 133,-190 58,-38 115,-58 191,-38 76,0 153,38 190,114 58,57 77,133 58,229 0,56 -19,95 -39,133 -19,38 -37,76 -76,95 l 76,0 -19,152 -304,-38 19,-152 c 57,0 95,-19 133,-57 38,-19 57,-77 57,-114 19,-58 0,-96 -19,-115 -19,-38 -38,-57 -76,-57 -38,0 -57,0 -95,19 -19,19 -38,38 -57,76 l -39,134 c -56,114 -114,190 -152,229 -57,37 -133,56 -209,37 -96,-19 -172,-57 -229,-114 -38,-57 -57,-152 -57,-247 19,-58 38,-96 57,-153 19,-38 57,-76 95,-95 z m 0,0 0,0 z m -209,895 133,38 -19,114 724,172 19,-95 133,38 -209,762 -267,-77 38,-152 133,38 96,-323 -248,-77 -76,267 -153,-38 77,-267 -324,-95 -96,305 172,57 -57,152 -286,-76 210,-743 z"
                       inkscape:connector-curvature="0"
                       style="fill:#ffffff;stroke:none" />
                  </g>
                </g>
                <g
                   id="g3942"
                   class="com.sun.star.drawing.ClosedBezierShape">
                  <g
                     id="id6">
                    <rect
                       id="rect3945"
                       height="1151"
                       width="3526"
                       y="21934"
                       x="8500"
                       class="BoundingBox"
                       style="fill:none;stroke:none" />
                    <path
                       id="path3947"
                       d="m 8500,22926 19,-133 114,19 133,-706 -114,-19 19,-152 286,56 -153,859 115,19 -20,114 -399,-57 z m 0,0 0,0 z m 1238,-725 c -38,0 -76,19 -115,38 -19,38 -38,76 -38,134 0,37 0,76 19,114 39,39 58,58 115,58 38,0 76,-19 95,-39 38,-38 57,-76 57,-114 0,-58 0,-96 -19,-133 -38,-20 -76,-39 -114,-58 z m 0,0 0,0 z m -172,592 c 0,38 0,76 19,114 19,19 58,19 96,19 57,0 95,0 114,-19 19,-38 38,-95 57,-191 l 0,-76 c -38,19 -57,39 -95,39 -38,18 -57,18 -95,18 -77,0 -153,-38 -191,-114 -57,-57 -76,-134 -57,-229 0,-95 38,-172 95,-229 76,-57 153,-76 248,-76 114,19 190,57 228,114 58,76 77,171 58,305 l -20,306 c -18,114 -57,190 -114,228 -57,57 -133,96 -247,77 -96,0 -172,-39 -210,-96 -57,-57 -76,-114 -57,-190 l 0,-19 171,19 z m 0,0 0,0 z m 1259,-38 152,0 38,266 -667,58 0,-134 286,-381 c 57,-58 76,-115 95,-154 19,-37 39,-76 39,-114 -20,-37 -20,-57 -58,-76 -19,-19 -57,-38 -95,-19 -57,0 -95,19 -114,58 -38,37 -38,95 -19,190 l 0,19 -172,19 0,-19 0,-19 c -19,-134 0,-229 57,-286 39,-76 115,-114 229,-114 95,-19 172,0 229,57 76,38 95,95 114,190 0,38 0,96 -38,153 -19,57 -57,115 -133,210 l -229,267 286,-19 0,-152 z m 0,0 0,0 z m 609,-115 248,-38 -38,-248 c -19,-39 -19,-58 -19,-95 0,-39 0,-77 0,-115 l -191,496 z m 0,0 0,0 z m 172,324 -19,-114 133,-19 -19,-115 -381,77 -38,-134 285,-705 153,-19 114,629 114,-19 39,114 -134,38 19,96 134,-19 19,133 -419,57 z"
                       inkscape:connector-curvature="0"
                       style="fill:#ffffff;stroke:none" />
                  </g>
                </g>
                <g
                   id="g3949"
                   class="com.sun.star.drawing.ClosedBezierShape">
                  <g
                     id="id7">
                    <rect
                       id="rect3952"
                       height="13143"
                       width="13143"
                       y="8268"
                       x="3596"
                       class="BoundingBox"
                       style="fill:none;stroke:none" />
                    <path
                       id="path3954"
                       d="M 14806,10197 C 13559,8953 11908,8268 10157,8268 c -1742,0 -3387,685 -4632,1929 -1244,1244 -1929,2889 -1929,4631 0,1752 685,3402 1929,4649 1244,1246 2889,1933 4632,1933 3630,0 6581,-2952 6581,-6582 0,-1743 -686,-3388 -1932,-4631 z m 0,0 0,0 z m -9221,8935 0,-8590 c 46,-49 92,-98 140,-145 502,-502 1072,-909 1689,-1212 l 0,11306 c -617,-303 -1187,-710 -1689,-1213 -48,-48 -94,-97 -140,-146 z m 0,0 0,0 z m 3677,1931 0,-12449 c 294,-42 593,-64 895,-64 316,0 628,23 934,69 l 0,12439 c -305,46 -616,69 -934,69 -302,0 -601,-21 -895,-64 z m 0,0 0,0 z m 3677,-584 0,-11281 c 609,302 1172,704 1668,1199 55,55 109,111 161,167 l 0,8551 c -519,559 -1138,1023 -1829,1364 z"
                       inkscape:connector-curvature="0"
                       style="fill:#e51e15;stroke:none" />
                  </g>
                </g>
                <g
                   id="g3956"
                   class="com.sun.star.drawing.ClosedBezierShape">
                  <g
                     id="id8">
                    <rect
                       id="rect3959"
                       height="9590"
                       width="10746"
                       y="10062"
                       x="4690"
                       class="BoundingBox"
                       style="fill:none;stroke:none" />
                    <path
                       id="path3961"
                       d="m 10196,10523 c -744,96 -1430,438 -2040,934 -1047,-305 -2705,305 -3143,2725 -38,286 -95,724 -323,1029 266,133 457,438 590,705 533,1143 1143,1829 1772,2229 38,420 -77,915 -572,1239 362,361 857,343 1219,19 495,247 1010,247 1353,-172 -381,-57 -667,-362 -819,-647 1047,190 2058,114 2992,-381 0,362 -96,742 -515,800 191,419 705,495 1086,19 610,362 1086,228 1238,-457 -590,152 -838,-381 -838,-915 1086,-610 2572,-1715 3239,-1601 -229,-286 -496,-457 -762,-457 57,-248 133,-496 247,-743 -895,438 -1866,1352 -2800,2038 l 0,-1410 c 343,210 724,400 1200,115 343,-210 572,-839 858,-2020 75,-247 171,-571 400,-762 -229,-285 -382,-496 -420,-820 -209,-1619 -762,-1905 -1448,-1924 -590,-37 -857,229 -1199,438 -325,-171 -591,-190 -915,-228 533,1276 438,2572 152,3868 286,419 362,1657 362,3220 -952,553 -1944,438 -3068,153 l 0,-1144 c 496,0 876,-210 1162,-572 96,591 -38,1086 -495,1372 229,382 629,382 991,57 629,401 1029,134 1220,-210 -878,-152 -857,-1238 -515,-2838 -363,-1143 -342,-2382 -209,-3659 z m 0,0 0,0 z m 1790,934 c 191,-857 972,-743 1163,0 133,457 -58,1010 -210,1430 133,247 305,781 229,1047 -172,724 -838,800 -1162,38 -134,-323 57,-781 228,-1085 -152,-400 -362,-973 -248,-1430 z m 0,0 0,0 z m -4477,705 c -514,496 -476,1125 -476,2134 0,267 -115,438 -324,648 381,553 324,1048 228,1600 -438,-362 -514,-876 -419,-1467 -571,-628 -438,-1562 57,-2343 172,-287 553,-610 934,-572 z m 0,0 0,0 z m 495,3335 c -133,-1277 -114,-2401 267,-3126 228,96 228,344 95,420 -324,191 -210,743 248,534 552,-267 304,-1030 114,-1411 76,-57 152,-133 248,-191 324,744 381,2116 38,2992 -191,477 -534,782 -1010,782 z"
                       inkscape:connector-curvature="0"
                       style="fill:#ffffff;stroke:none" />
                  </g>
                </g>
                <g
                   id="g3963"
                   class="com.sun.star.drawing.ClosedBezierShape">
                  <g
                     id="id9">
                    <rect
                       id="rect3966"
                       height="9728"
                       width="10858"
                       y="9992"
                       x="4634"
                       class="BoundingBox"
                       style="fill:none;stroke:none" />
                    <path
                       id="path3968"
                       d="m 11643,10335 c 0,0 -95,62 -137,89 -293,-146 -540,-176 -824,-209 l -77,-9 -74,98 c 280,669 378,1342 378,1978 0,673 -109,1304 -229,1847 l -7,30 17,25 c 310,454 349,1996 350,3139 -882,495 -1811,418 -2926,139 0,-94 0,-909 0,-1022 410,-16 759,-174 1041,-473 6,62 10,123 10,181 0,437 -165,761 -492,966 l -59,36 36,60 c 110,184 262,295 441,322 197,30 413,-49 616,-216 276,165 532,222 762,164 267,-67 426,-269 513,-425 l -50,-103 c -216,-38 -375,-136 -485,-299 -261,-387 -253,-1145 28,-2456 l 4,-18 -6,-18 c -390,-1232 -315,-2588 -206,-3630 l -80,-77 c -703,90 -1391,403 -2045,927 -554,-150 -1177,-47 -1715,286 -529,328 -1216,1029 -1483,2503 0,3 -1,10 -1,10 -37,279 -94,701 -309,989 l 24,106 c 200,99 383,319 559,673 490,1049 1068,1781 1766,2236 3,33 5,67 5,105 0,301 -91,738 -546,1036 l -11,109 c 362,362 882,380 1281,51 562,265 1069,191 1396,-209 l -44,-114 c -342,-51 -571,-309 -690,-484 1044,165 1955,47 2776,-359 -25,374 -172,576 -449,614 l -54,100 c 98,216 277,356 492,382 235,30 477,-81 674,-304 323,179 613,224 840,126 225,-97 377,-318 452,-657 l -87,-83 c -186,48 -344,24 -467,-71 -171,-132 -274,-406 -282,-736 271,-153 560,-332 866,-522 853,-529 1821,-1129 2289,-1049 l 67,-114 c -226,-283 -476,-445 -728,-477 60,-242 131,-451 223,-649 l -95,-93 c -613,300 -1267,825 -1900,1333 -264,212 -535,428 -800,628 0,-207 0,-963 0,-1146 338,194 710,326 1167,52 383,-235 616,-933 889,-2061 1,-3 5,-16 5,-16 73,-240 165,-538 372,-711 l 53,-44 -43,-54 c -228,-284 -369,-480 -404,-784 -210,-1620 -758,-1966 -1517,-1987 -511,-32 -795,156 -1070,339 z m 0,0 0,0 z m -95,230 174,-112 c 267,-178 519,-346 984,-316 557,16 1165,174 1384,1863 37,320 180,535 394,805 -203,200 -294,491 -367,729 l -6,20 -1,2 c -257,1066 -485,1768 -825,1976 -438,262 -784,96 -1128,-114 l -107,60 0,1410 112,57 c 303,-223 616,-474 918,-716 566,-455 1150,-922 1699,-1224 -68,174 -125,360 -174,571 l 69,87 c 197,0 407,110 602,312 -543,37 -1391,562 -2216,1073 -319,197 -619,384 -898,541 l -36,20 0,41 c 0,398 123,721 338,887 133,103 292,142 476,119 -70,231 -186,383 -343,451 -197,85 -461,35 -764,-145 l -53,-31 -38,47 c -172,214 -385,322 -585,297 -138,-17 -255,-98 -336,-223 236,-68 475,-277 475,-849 l -104,-62 c -859,455 -1822,578 -2945,374 l -75,102 c 177,332 449,569 746,657 -390,375 -903,208 -1186,66 l -42,-21 -36,32 c -328,292 -742,301 -1058,38 442,-330 533,-783 533,-1099 0,-54 -3,-105 -7,-150 l -3,-35 -29,-18 c -689,-439 -1260,-1159 -1746,-2201 -172,-344 -354,-573 -554,-698 200,-311 256,-715 293,-989 l 1,-7 c 257,-1420 913,-2092 1418,-2405 507,-314 1120,-412 1636,-262 l 36,10 28,-23 c 614,-499 1258,-801 1915,-903 -43,429 -79,905 -79,1405 0,708 72,1458 295,2171 -145,681 -218,1213 -218,1627 0,412 72,708 216,920 112,168 273,280 476,336 -78,113 -198,231 -373,275 -202,52 -436,-6 -695,-172 l -45,-29 -40,36 c -182,164 -375,240 -542,214 -118,-17 -221,-89 -303,-202 326,-233 496,-589 496,-1048 0,-111 -10,-228 -30,-351 l -125,-33 c -285,362 -658,545 -1106,545 l -71,71 0,1198 53,14 c 1188,301 2173,390 3120,-160 l 35,-21 0,-40 c 0,-1835 -111,-2835 -358,-3233 120,-545 227,-1176 227,-1850 0,-617 -92,-1269 -346,-1922 266,31 501,63 774,207 l 37,20 33,-22 z"
                       inkscape:connector-curvature="0"
                       style="fill:#979a99;stroke:none" />
                  </g>
                </g>
                <g
                   id="g3970"
                   class="com.sun.star.drawing.ClosedBezierShape">
                  <g
                     id="id10">
                    <rect
                       id="rect3973"
                       height="3798"
                       width="1384"
                       y="10786"
                       x="11883"
                       class="BoundingBox"
                       style="fill:none;stroke:none" />
                    <path
                       id="path3975"
                       d="m 12534,10786 c -296,4 -527,249 -617,654 -24,97 -34,199 -34,303 0,408 161,844 273,1138 -135,246 -267,559 -267,844 0,96 15,189 50,275 166,388 435,605 720,581 271,-23 492,-264 579,-629 14,-52 21,-112 21,-176 0,-298 -140,-691 -243,-894 131,-360 250,-733 250,-1084 0,-124 -15,-245 -49,-361 -101,-394 -376,-655 -683,-651 z m 0,0 0,0 z m -464,3160 c -129,-314 85,-777 226,-1025 l 16,-29 -12,-31 c -135,-350 -358,-937 -246,-1387 l 0,-2 c 76,-338 256,-542 482,-545 200,-4 447,165 545,547 132,454 -72,1017 -208,1389 l -11,29 15,28 c 139,257 291,761 224,996 -73,307 -247,507 -454,525 -221,18 -438,-167 -577,-495 z m 0,0 0,0 z m -153,-2505 0,-1 0,1 z"
                       inkscape:connector-curvature="0"
                       style="fill:#979a99;stroke:none" />
                  </g>
                </g>
                <g
                   id="g3977"
                   class="com.sun.star.drawing.ClosedBezierShape">
                  <g
                     id="id11">
                    <rect
                       id="rect3980"
                       height="4513"
                       width="1488"
                       y="12087"
                       x="6074"
                       class="BoundingBox"
                       style="fill:none;stroke:none" />
                    <path
                       id="path3982"
                       d="m 6517,12696 c -296,465 -443,937 -443,1367 0,393 124,751 372,1035 -22,142 -34,276 -34,401 0,476 158,831 482,1099 l 114,-43 c 40,-232 72,-449 72,-662 0,-314 -70,-617 -280,-941 189,-196 305,-381 305,-657 l -1,-195 c 0,-62 0,-122 0,-181 0,-795 28,-1296 456,-1707 l -42,-121 c -396,-39 -803,275 -1001,605 z m 0,0 0,0 z m 37,2799 c 0,-126 12,-261 35,-407 l 6,-33 -23,-26 c -255,-280 -357,-613 -357,-955 0,-455 180,-925 422,-1304 144,-241 423,-480 707,-531 -355,428 -381,951 -381,1685 0,57 0,116 0,176 l 1,195 c 0,248 -107,402 -303,599 l -42,41 33,49 c 216,313 286,608 286,915 0,163 -20,330 -48,504 -225,-229 -336,-524 -336,-908 z"
                       inkscape:connector-curvature="0"
                       style="fill:#979a99;stroke:none" />
                  </g>
                </g>
                <g
                   id="g3984"
                   class="com.sun.star.drawing.ClosedBezierShape">
                  <g
                     id="id12">
                    <rect
                       id="rect3987"
                       height="3905"
                       width="1460"
                       y="11663"
                       x="7859"
                       class="BoundingBox"
                       style="fill:none;stroke:none" />
                    <path
                       id="path3989"
                       d="m 8766,11793 -123,100 23,52 c 74,148 306,658 180,1023 -45,133 -131,228 -262,292 -144,66 -257,49 -307,-47 -56,-106 -18,-278 126,-362 83,-48 131,-143 124,-249 -8,-129 -93,-240 -228,-296 l -60,-25 -31,57 c -344,654 -430,1661 -274,3165 l 6,64 64,0 c 482,0 863,-294 1077,-826 365,-932 274,-2328 -39,-3046 l -102,-32 c -66,39 -123,87 -174,130 z m 0,0 0,0 z m 91,108 c 28,-23 57,-47 86,-69 147,377 236,911 236,1461 0,490 -69,989 -230,1396 -180,450 -491,706 -881,731 -45,-448 -69,-852 -69,-1212 0,-754 101,-1319 304,-1739 50,37 80,87 84,142 0,3 0,7 0,10 0,47 -21,88 -55,108 -150,87 -220,240 -220,380 0,61 13,120 39,170 68,130 234,227 493,108 166,-80 279,-205 337,-373 30,-89 43,-185 43,-282 0,-316 -134,-642 -207,-799 20,-16 40,-32 40,-32 z"
                       inkscape:connector-curvature="0"
                       style="fill:#979a99;stroke:none" />
                  </g>
                </g>
              </g>
            </g>
          </g>
        </g>
      </g>
    </g>
  </g>
</svg>
