<?xml version="1.0" encoding="UTF-8" standalone="no"?>
<!-- Created with Inkscape (http://www.inkscape.org/) -->

<svg
   xmlns:dc="http://purl.org/dc/elements/1.1/"
   xmlns:cc="http://creativecommons.org/ns#"
   xmlns:rdf="http://www.w3.org/1999/02/22-rdf-syntax-ns#"
   xmlns:svg="http://www.w3.org/2000/svg"
   xmlns="http://www.w3.org/2000/svg"
   xmlns:sodipodi="http://sodipodi.sourceforge.net/DTD/sodipodi-0.dtd"
   xmlns:inkscape="http://www.inkscape.org/namespaces/inkscape"
   width="210mm"
   height="297mm"
   viewBox="0 0 210 297"
   id="svg3392"
   version="1.1"
   inkscape:version="0.91 r13725"
   sodipodi:docname="avai.svg">
  <defs
     id="defs3">
    <clipPath
       clipPathUnits="userSpaceOnUse"
       id="presentation_clip_path">
      <rect
         id="rect3403"
         height="29700"
         width="21000"
         y="0"
         x="0" />
    </clipPath>
    <clipPath
       clipPathUnits="userSpaceOnUse"
       id="presentation_clip_path-3">
      <rect
         id="rect3646"
         height="29700"
         width="21000"
         y="0"
         x="0" />
    </clipPath>
    <clipPath
       clipPathUnits="userSpaceOnUse"
       id="presentation_clip_path-6">
      <rect
         id="rect3870"
         height="29700"
         width="21000"
         y="0"
         x="0" />
    </clipPath>
    <clipPath
       clipPathUnits="userSpaceOnUse"
       id="presentation_clip_path-7">
      <rect
         id="rect4072"
         height="29700"
         width="21000"
         y="0"
         x="0" />
    </clipPath>
  </defs>
  <sodipodi:namedview
     inkscape:document-units="mm"
     id="base"
     pagecolor="#ffffff"
     bordercolor="#666666"
     borderopacity="1.0"
     inkscape:pageopacity="0.0"
     inkscape:pageshadow="2"
     inkscape:zoom="0.7"
     inkscape:cx="544.82403"
     inkscape:cy="519.70902"
     inkscape:current-layer="g4227"
     showgrid="false"
     inkscape:window-width="1619"
     inkscape:window-height="1026"
     inkscape:window-x="61"
     inkscape:window-y="24"
     inkscape:window-maximized="1" />
  <metadata
     id="metadata4">
    <rdf:RDF>
      <cc:Work
         rdf:about="">
        <dc:format>image/svg+xml</dc:format>
        <dc:type
           rdf:resource="http://purl.org/dc/dcmitype/StillImage" />
        <dc:title></dc:title>
      </cc:Work>
    </rdf:RDF>
  </metadata>
  <g
     inkscape:label="Layer 1"
     inkscape:groupmode="layer"
     id="layer1">
    <g
       style="fill-rule:evenodd;stroke-width:28.22200012;stroke-linejoin:round"
       id="g4227"
       transform="matrix(0.01289609,0,0,0.01246524,-25.418202,-58.864864)">
      <g
         id="g4109">
        <g
           class="Master_Slide"
           id="id2">
          <g
             class="Background"
             id="bg-id2" />
          <g
             class="BackgroundObjects"
             id="bo-id2" />
        </g>
      </g>
      <g
         id="g4114"
         class="SlideGroup"
         transform="translate(0,401.11545)">
        <g
           id="g4116">
          <g
             clip-path="url(#presentation_clip_path-7)"
             class="Slide"
             id="id1">
            <g
               id="g4119"
               class="Page">
              <g
                 id="g4121"
                 class="Group">
                <g
                   id="g4123"
                   class="com.sun.star.drawing.ClosedBezierShape">
                  <g
                     id="id3">
                    <rect
                       id="rect4126"
                       height="16036"
                       width="16284"
                       y="10507"
                       x="1971"
                       class="BoundingBox"
                       style="fill:none;stroke:none" />
                    <path
                       id="path4128"
                       d="m 18119,10507 -16148,0 0,4768 c 0,1987 769,4093 2224,6093 1426,1961 3449,3737 5849,5135 l 69,39 68,-39 c 2399,-1398 4422,-3174 5849,-5135 1455,-2000 2224,-4106 2224,-6093 l 0,-4768 -135,0 z"
                       inkscape:connector-curvature="0"
                       style="fill:#00519e;stroke:none" />
                  </g>
                </g>
                <g
                   id="g4130"
                   class="com.sun.star.drawing.ClosedBezierShape">
                  <g
                     id="id4">
                    <rect
                       id="rect4133"
                       height="2645"
                       width="15746"
                       y="10777"
                       x="2241"
                       class="BoundingBox"
                       style="fill:none;stroke:none" />
                    <path
                       id="path4135"
                       d="m 17985,10777 c -263,0 -15481,0 -15744,0 0,138 0,1466 0,2644 l 15744,0 c 0,-1178 0,-2506 0,-2644 z"
                       inkscape:connector-curvature="0"
                       style="fill:#ffffff;stroke:none" />
                  </g>
                </g>
                <g
                   id="g4137"
                   class="com.sun.star.drawing.ClosedBezierShape">
                  <g
                     id="id5">
                    <rect
                       id="rect4140"
                       height="11831"
                       width="1644"
                       y="13802"
                       x="7514"
                       class="BoundingBox"
                       style="fill:none;stroke:none" />
                    <path
                       id="path4142"
                       d="m 7514,13802 0,10630 c 519,420 1067,821 1643,1200 l 0,-11830 -1643,0 z"
                       inkscape:connector-curvature="0"
                       style="fill:#ffffff;stroke:none" />
                  </g>
                </g>
                <g
                   id="g4144"
                   class="com.sun.star.drawing.ClosedBezierShape">
                  <g
                     id="id6">
                    <rect
                       id="rect4147"
                       height="11831"
                       width="1644"
                       y="13802"
                       x="11068"
                       class="BoundingBox"
                       style="fill:none;stroke:none" />
                    <path
                       id="path4149"
                       d="m 11068,13802 0,11830 c 575,-379 1124,-780 1643,-1200 l 0,-10630 -1643,0 z"
                       inkscape:connector-curvature="0"
                       style="fill:#ffffff;stroke:none" />
                  </g>
                </g>
                <g
                   id="g4151"
                   class="com.sun.star.drawing.ClosedBezierShape">
                  <g
                     id="id7">
                    <rect
                       id="rect4154"
                       height="8850"
                       width="1644"
                       y="13802"
                       x="14621"
                       class="BoundingBox"
                       style="fill:none;stroke:none" />
                    <path
                       id="path4156"
                       d="m 16264,20549 0,-6747 -1643,0 0,8849 c 433,-466 831,-947 1190,-1441 161,-219 311,-440 453,-661 z"
                       inkscape:connector-curvature="0"
                       style="fill:#ffffff;stroke:none" />
                  </g>
                </g>
                <g
                   id="g4158"
                   class="com.sun.star.drawing.ClosedBezierShape">
                  <g
                     id="id8">
                    <rect
                       id="rect4161"
                       height="8850"
                       width="1644"
                       y="13802"
                       x="3961"
                       class="BoundingBox"
                       style="fill:none;stroke:none" />
                    <path
                       id="path4163"
                       d="m 3961,13802 0,6747 c 142,221 292,442 453,661 359,494 757,975 1190,1441 l 0,-8849 -1643,0 z"
                       inkscape:connector-curvature="0"
                       style="fill:#ffffff;stroke:none" />
                  </g>
                </g>
                <g
                   id="g4165"
                   class="com.sun.star.drawing.PolyPolygonShape">
                  <g
                     id="id9">
                    <rect
                       id="rect4168"
                       height="3663"
                       width="3850"
                       y="5685"
                       x="8188"
                       class="BoundingBox"
                       style="fill:none;stroke:none" />
                    <path
                       id="path4170"
                       d="m 10113,5686 454,1398 1470,0 -1189,864 454,1399 -1189,-864 -1191,864 455,-1399 -1189,-864 1469,0 456,-1398 z"
                       inkscape:connector-curvature="0"
                       style="fill:#ffdc00;stroke:none" />
                  </g>
                </g>
                <g
                   id="g4172"
                   class="com.sun.star.drawing.PolyPolygonShape">
                  <g
                     id="id10">
                    <rect
                       id="rect4175"
                       height="2161"
                       width="2352"
                       y="11039"
                       x="3379"
                       class="BoundingBox"
                       style="fill:none;stroke:none" />
                    <path
                       id="path4177"
                       d="m 4923,12844 -756,0 -108,355 -680,0 809,-2160 733,0 809,2160 -698,0 -109,-355 z m 0,0 0,0 z m -141,-466 -237,-779 -236,779 473,0 z"
                       inkscape:connector-curvature="0"
                       style="fill:#00519e;stroke:none" />
                  </g>
                </g>
                <g
                   id="g4179"
                   class="com.sun.star.drawing.PolyPolygonShape">
                  <g
                     id="id11">
                    <rect
                       id="rect4182"
                       height="2161"
                       width="2341"
                       y="11039"
                       x="5364"
                       class="BoundingBox"
                       style="fill:none;stroke:none" />
                    <path
                       id="path4184"
                       d="m 5364,11039 697,0 487,1554 479,-1554 677,0 -801,2160 -723,0 -816,-2160 z"
                       inkscape:connector-curvature="0"
                       style="fill:#00519e;stroke:none" />
                  </g>
                </g>
                <g
                   id="g4186"
                   class="com.sun.star.drawing.PolyPolygonShape">
                  <g
                     id="id12">
                    <rect
                       id="rect4189"
                       height="2161"
                       width="2352"
                       y="11039"
                       x="7343"
                       class="BoundingBox"
                       style="fill:none;stroke:none" />
                    <path
                       id="path4191"
                       d="m 8887,12844 -756,0 -108,355 -680,0 809,-2160 733,0 809,2160 -698,0 -109,-355 z m 0,0 0,0 z m -141,-466 -237,-779 -236,779 473,0 z"
                       inkscape:connector-curvature="0"
                       style="fill:#00519e;stroke:none" />
                  </g>
                </g>
                <g
                   id="g4193"
                   class="com.sun.star.drawing.PolyPolygonShape">
                  <g
                     id="id13">
                    <rect
                       id="rect4196"
                       height="1993"
                       width="671"
                       y="11208"
                       x="9912"
                       class="BoundingBox"
                       style="fill:none;stroke:none" />
                    <path
                       id="path4198"
                       d="m 9912,11208 670,0 0,1992 -670,0 0,-1992 z"
                       inkscape:connector-curvature="0"
                       style="fill:#00519e;stroke:none" />
                  </g>
                </g>
                <g
                   id="g4200"
                   class="com.sun.star.drawing.PolyPolygonShape">
                  <g
                     id="id14">
                    <rect
                       id="rect4203"
                       height="2161"
                       width="1650"
                       y="11039"
                       x="12693"
                       class="BoundingBox"
                       style="fill:none;stroke:none" />
                    <path
                       id="path4205"
                       d="m 12694,11039 1648,0 0,461 -979,0 0,382 838,0 0,434 -838,0 0,883 -669,0 0,-2160 z"
                       inkscape:connector-curvature="0"
                       style="fill:#00519e;stroke:none" />
                  </g>
                </g>
                <g
                   id="g4207"
                   class="com.sun.star.drawing.ClosedBezierShape">
                  <g
                     id="id15">
                    <rect
                       id="rect4210"
                       height="2240"
                       width="2105"
                       y="11000"
                       x="14669"
                       class="BoundingBox"
                       style="fill:none;stroke:none" />
                    <path
                       id="path4212"
                       d="m 16188,12316 585,178 c -39,164 -101,302 -186,412 -84,110 -189,193 -314,249 -127,56 -286,84 -480,84 -235,0 -427,-34 -576,-102 -150,-69 -278,-189 -386,-361 -108,-173 -162,-393 -162,-662 0,-358 94,-634 285,-826 190,-192 459,-288 807,-288 272,0 487,55 643,165 155,110 271,279 347,508 l -592,132 c -20,-66 -42,-114 -64,-145 -38,-51 -83,-90 -137,-119 -54,-27 -114,-41 -181,-41 -151,0 -267,62 -347,184 -61,90 -91,233 -91,426 0,241 36,405 109,494 73,90 175,135 307,135 128,0 225,-36 290,-109 65,-72 113,-177 143,-314 z"
                       inkscape:connector-curvature="0"
                       style="fill:#00519e;stroke:none" />
                  </g>
                </g>
                <g
                   id="g4214"
                   class="com.sun.star.drawing.PolyPolygonShape">
                  <g
                     id="id16">
                    <rect
                       id="rect4217"
                       height="273"
                       width="878"
                       y="10813"
                       x="10000"
                       class="BoundingBox"
                       style="fill:none;stroke:none" />
                    <path
                       id="path4219"
                       d="m 10000,11085 607,0 270,-272 -608,0 -269,272 z"
                       inkscape:connector-curvature="0"
                       style="fill:#00519e;stroke:none" />
                  </g>
                </g>
              </g>
            </g>
          </g>
        </g>
      </g>
    </g>
  </g>
</svg>
