<?xml version="1.0" encoding="UTF-8" standalone="no"?>
<!-- Created with Inkscape (http://www.inkscape.org/) -->

<svg
   xmlns:dc="http://purl.org/dc/elements/1.1/"
   xmlns:cc="http://creativecommons.org/ns#"
   xmlns:rdf="http://www.w3.org/1999/02/22-rdf-syntax-ns#"
   xmlns:svg="http://www.w3.org/2000/svg"
   xmlns="http://www.w3.org/2000/svg"
   xmlns:sodipodi="http://sodipodi.sourceforge.net/DTD/sodipodi-0.dtd"
   xmlns:inkscape="http://www.inkscape.org/namespaces/inkscape"
   width="210mm"
   height="297mm"
   viewBox="0 0 210 297"
   id="svg3392"
   version="1.1"
   inkscape:version="0.92.1 unknown"
   sodipodi:docname="blank.svg">
  <defs
     id="defs3">
    <clipPath
       clipPathUnits="userSpaceOnUse"
       id="presentation_clip_path">
      <rect
         id="rect3403"
         height="29700"
         width="21000"
         y="0"
         x="0" />
    </clipPath>
    <clipPath
       clipPathUnits="userSpaceOnUse"
       id="presentation_clip_path-3">
      <rect
         id="rect3646"
         height="29700"
         width="21000"
         y="0"
         x="0" />
    </clipPath>
    <clipPath
       clipPathUnits="userSpaceOnUse"
       id="presentation_clip_path-6">
      <rect
         id="rect3870"
         height="29700"
         width="21000"
         y="0"
         x="0" />
    </clipPath>
    <clipPath
       clipPathUnits="userSpaceOnUse"
       id="presentation_clip_path-7">
      <rect
         id="rect4072"
         height="29700"
         width="21000"
         y="0"
         x="0" />
    </clipPath>
    <clipPath
       clipPathUnits="userSpaceOnUse"
       id="presentation_clip_path-5">
      <rect
         id="rect4318"
         height="29700"
         width="21000"
         y="0"
         x="0" />
    </clipPath>
    <clipPath
       clipPathUnits="userSpaceOnUse"
       id="presentation_clip_path-2">
      <rect
         id="rect4911"
         height="29700"
         width="21000"
         y="0"
         x="0" />
    </clipPath>
    <clipPath
       clipPathUnits="userSpaceOnUse"
       id="presentation_clip_path-70">
      <rect
         id="rect5036"
         height="29700"
         width="21000"
         y="0"
         x="0" />
    </clipPath>
    <clipPath
       clipPathUnits="userSpaceOnUse"
       id="presentation_clip_path-0">
      <rect
         id="rect5689"
         height="29700"
         width="21000"
         y="0"
         x="0" />
    </clipPath>
    <clipPath
       clipPathUnits="userSpaceOnUse"
       id="presentation_clip_path-1">
      <rect
         id="rect7541"
         height="29700"
         width="21000"
         y="0"
         x="0" />
    </clipPath>
    <clipPath
       clipPathUnits="userSpaceOnUse"
       id="presentation_clip_path-20">
      <rect
         id="rect7845"
         height="29700"
         width="21000"
         y="0"
         x="0" />
    </clipPath>
    <clipPath
       clipPathUnits="userSpaceOnUse"
       id="presentation_clip_path-59">
      <rect
         id="rect7992"
         height="29700"
         width="21000"
         y="0"
         x="0" />
    </clipPath>
    <clipPath
       clipPathUnits="userSpaceOnUse"
       id="presentation_clip_path-9">
      <rect
         id="rect8117"
         height="29700"
         width="21000"
         y="0"
         x="0" />
    </clipPath>
    <clipPath
       clipPathUnits="userSpaceOnUse"
       id="presentation_clip_path-12">
      <rect
         id="rect8270"
         height="29700"
         width="21000"
         y="0"
         x="0" />
    </clipPath>
    <clipPath
       clipPathUnits="userSpaceOnUse"
       id="presentation_clip_path-94">
      <rect
         id="rect8659"
         height="29700"
         width="21000"
         y="0"
         x="0" />
    </clipPath>
    <clipPath
       clipPathUnits="userSpaceOnUse"
       id="presentation_clip_path-50">
      <rect
         id="rect9257"
         height="29700"
         width="21000"
         y="0"
         x="0" />
    </clipPath>
    <clipPath
       clipPathUnits="userSpaceOnUse"
       id="presentation_clip_path-06">
      <rect
         id="rect9393"
         height="29700"
         width="21000"
         y="0"
         x="0" />
    </clipPath>
    <clipPath
       clipPathUnits="userSpaceOnUse"
       id="presentation_clip_path-61">
      <rect
         id="rect9628"
         height="29700"
         width="21000"
         y="0"
         x="0" />
    </clipPath>
    <clipPath
       clipPathUnits="userSpaceOnUse"
       id="presentation_clip_path-76">
      <rect
         id="rect10152"
         height="29700"
         width="21000"
         y="0"
         x="0" />
    </clipPath>
    <clipPath
       clipPathUnits="userSpaceOnUse"
       id="presentation_clip_path-37">
      <rect
         id="rect11075"
         height="29700"
         width="21000"
         y="0"
         x="0" />
    </clipPath>
  </defs>
  <sodipodi:namedview
     inkscape:document-units="mm"
     id="base"
     pagecolor="#ffffff"
     bordercolor="#666666"
     borderopacity="1.0"
     inkscape:pageopacity="0.0"
     inkscape:pageshadow="2"
     inkscape:zoom="0.7"
     inkscape:cx="544.82403"
     inkscape:cy="519.70902"
     inkscape:current-layer="g4227"
     showgrid="false"
     inkscape:window-width="1280"
     inkscape:window-height="1003"
     inkscape:window-x="1600"
     inkscape:window-y="21"
     inkscape:window-maximized="1" />
  <metadata
     id="metadata4">
    <rdf:RDF>
      <cc:Work
         rdf:about="">
        <dc:format>image/svg+xml</dc:format>
        <dc:type
           rdf:resource="http://purl.org/dc/dcmitype/StillImage" />
        <dc:title></dc:title>
      </cc:Work>
    </rdf:RDF>
  </metadata>
  <g
     inkscape:label="Layer 1"
     inkscape:groupmode="layer"
     id="layer1">
    <g
       style="fill-rule:evenodd;stroke-width:28.22200012;stroke-linejoin:round"
       id="g4227"
       transform="matrix(0.01289609,0,0,0.01246524,-25.418202,-58.864864)">
      <g
         id="g4109">
        <g
           class="Master_Slide"
           id="id2">
          <g
             class="Background"
             id="bg-id2" />
          <g
             class="BackgroundObjects"
             id="bo-id2" />
        </g>
      </g>
      <path
         sodipodi:type="spiral"
         style="fill:none;fill-rule:evenodd;stroke:#000000;stroke-width:1px;stroke-linecap:butt;stroke-linejoin:miter;stroke-opacity:1"
         id="path3823"
         sodipodi:cx="322.85715"
         sodipodi:cy="355.37683"
         sodipodi:expansion="6.5"
         sodipodi:revolution="29.4"
         sodipodi:radius="363.65491"
         sodipodi:argument="-183.94025"
         sodipodi:t0="0"
         d="m 322.85715,355.37683 c 0,0 0,0 0,0 0,0 0,0 0,0 0,0 0,0 0,0 0,0 0,0 0,0 0,0 0,0 0,0 0,0 0,0 0,0 -10e-6,0 -10e-6,0 -10e-6,0 0,-10e-6 10e-6,-10e-6 10e-6,-10e-6 1e-5,0 2e-5,10e-6 2e-5,2e-5 0,2e-5 -2e-5,4e-5 -4e-5,4e-5 -4e-5,0 -6e-5,-4e-5 -7e-5,-7e-5 0,-7e-5 7e-5,-1.2e-4 1.3e-4,-1.3e-4 1.2e-4,0 2e-4,1.2e-4 2e-4,2.2e-4 0,1.9e-4 -1.8e-4,3.2e-4 -3.6e-4,3.2e-4 -3e-4,0 -5e-4,-2.9e-4 -4.9e-4,-5.7e-4 1e-5,-4.5e-4 4.6e-4,-7.5e-4 8.8e-4,-7.3e-4 6.7e-4,3e-5 0.001,6.8e-4 0.001,0.001 -5e-5,9.7e-4 -0.001,0.002 -0.002,0.002 -0.001,-9e-5 -0.002,-0.001 -0.002,-0.003 1.6e-4,-0.002 0.002,-0.003 0.004,-0.003 0.003,2.4e-4 0.004,0.003 0.004,0.005 -3.6e-4,0.004 -0.004,0.006 -0.007,0.005 -0.005,-5.1e-4 -0.008,-0.005 -0.007,-0.01 7.3e-4,-0.006 0.007,-0.0102 0.013,-0.009 0.008,0.001 0.0133,0.009 0.0123,0.0171 -0.001,0.0106 -0.012,0.0171 -0.0221,0.0158 -0.0135,-0.002 -0.0218,-0.0154 -0.02,-0.0284 0.002,-0.0171 0.0197,-0.0276 0.0361,-0.0252 0.0214,0.003 0.0347,0.0248 0.0315,0.0455 -0.004,0.0267 -0.0311,0.0432 -0.0569,0.0391 -0.033,-0.005 -0.0534,-0.0387 -0.0482,-0.0707 0.007,-0.0406 0.0478,-0.0655 0.0872,-0.059 0.0496,0.008 0.08,0.0587 0.0718,0.10675 -0.0102,0.0602 -0.0715,0.097 -0.12995,0.0869 -0.0726,-0.0126 -0.11701,-0.0867 -0.10454,-0.15729 0.0154,-0.0872 0.10456,-0.14041 0.18935,-0.12514 0.10417,0.0188 0.16765,0.12539 0.14908,0.22676 -0.0227,0.12386 -0.14964,0.19925 -0.27026,0.17679 -0.14661,-0.0273 -0.23574,-0.17775 -0.20873,-0.32062 0.0327,-0.1728 0.2102,-0.27773 0.3787,-0.24543 0.20284,0.0389 0.32588,0.24753 0.28744,0.44546 -0.0461,0.23718 -0.29033,0.38091 -0.52191,0.33537 -0.27633,-0.0543 -0.44362,-0.33922 -0.38991,-0.60918 0.0638,-0.32081 0.39491,-0.51485 0.7085,-0.45176 0.3712,0.0747 0.59554,0.45815 0.52172,0.82118 -0.0871,0.42815 -0.52976,0.68668 -0.94868,0.60064 -0.4923,-0.10111 -0.78934,-0.61061 -0.68942,-1.09254 0.11702,-0.56442 0.70168,-0.90471 1.25445,-0.78907 0.64527,0.135 1.03404,0.80398 0.90063,1.43622 -0.15524,0.73572 -0.91863,1.17869 -1.63979,1.02526 -0.83668,-0.17799 -1.3401,-1.04682 -1.16419,-1.86727 0.2035,-0.94911 1.18985,-1.51983 2.12091,-1.31871 1.07408,0.23202 1.71956,1.34907 1.49024,2.4031 -0.26383,1.2127 -1.52596,1.94107 -2.71644,1.68029 -1.36616,-0.29926 -2.18625,-1.72209 -1.89044,-3.06369 0.33861,-1.53575 1.93915,-2.45714 3.44777,-2.12242 1.72282,0.38225 2.75593,2.17893 2.37804,3.87186 -0.43053,1.92881 -2.44332,3.08488 -4.33925,2.65923 -2.15528,-0.48388 -3.44649,-2.73438 -2.96806,-4.85355 0.54269,-2.40384 3.05424,-3.84332 5.41849,-3.3067 2.67626,0.60743 4.27816,3.40523 3.67748,6.03813 -0.67858,2.97435 -3.78975,4.75392 -6.7167,4.08283 -3.30005,-0.75663 -5.27371,-4.2104 -4.52536,-7.4587 0.84214,-3.65546 4.6699,-5.84081 8.26893,-5.00783 4.04272,0.93568 6.45868,5.17115 5.5331,9.15243 -1.03783,4.46414 -5.71718,7.13097 -10.11452,6.10426 -4.92216,-1.14925 -7.86156,-6.31123 -6.72452,-11.16085 1.27062,-5.41932 6.9567,-8.65452 12.29734,-7.39729 5.95833,1.40263 9.51413,7.65717 8.12616,13.53026 -1.54606,6.54203 -8.41643,10.44492 -14.86621,8.91489 -7.17341,-1.70168 -11.45163,-9.23843 -9.76745,-16.31212 1.87035,-7.85559 10.12739,-12.53926 17.87531,-10.68799 8.59187,2.05291 13.71304,11.08766 11.68089,19.56341 -2.25032,9.38574 -12.1239,14.9785 -21.38451,12.75075 -10.2408,-2.46354 -16.3414,-13.24093 -13.90237,-23.34704 2.69359,-11.16088 14.44385,-17.8078 25.45988,-15.1408 12.14995,2.94154 19.38405,15.73797 16.4713,27.73231 -3.20849,13.21221 -17.12887,21.07678 -30.17405,17.89943 -14.35201,-3.49566 -22.89296,-18.62243 -19.43095,-32.79531 3.80425,-15.57394 20.22473,-24.83984 35.60673,-21.07191 16.88276,4.13555 26.92503,21.94217 22.82863,38.61945 -4.49093,18.28348 -23.78144,29.15647 -41.84513,24.70771 -19.7813,-4.87178 -31.54243,-25.74953 -26.71602,-45.29592 5.27958,-21.38167 27.85371,-34.09158 48.98451,-28.86076 23.09026,5.71588 36.81293,30.10161 31.14941,52.92416 -6.18227,24.91297 -32.50114,39.71587 -57.12866,33.58977 -26.85598,-6.68043 -42.81022,-35.06058 -36.18999,-61.61241 7.21212,-28.92572 37.78854,-46.10618 66.39042,-38.95853 31.12885,7.77915 49.61436,40.694 41.90419,71.47829 -8.38342,33.47234 -43.7863,53.34583 -76.89228,45.03614 -35.96341,-9.02691 -57.31207,-47.07514 -48.36391,-82.64929 9.71167,-38.60959 50.57065,-61.52503 88.7669,-51.89741 41.41869,10.43985 65.99714,54.28333 55.64693,95.26341 -11.21367,44.39881 -58.22408,70.74128 -102.15777,59.62314 -47.55841,-12.03543 -75.77087,-62.40425 -63.83716,-109.46972 12.90756,-50.90621 66.83562,-81.09979 117.21973,-68.30048 54.4513,13.83253 86.74247,71.5304 73.02504,125.42903 -14.81293,58.20309 -76.50126,92.71387 -134.11967,78.02324 -62.17133,-15.85147 -99.02948,-81.76135 -83.30788,-143.3145 16.95092,-66.36614 87.3243,-105.70538 153.03719,-88.89227 70.79799,18.11417 112.75821,93.20422 94.79018,163.31229 C 435.44709,470.47304 355.37557,515.20052 280.6261,496.01117 200.2095,475.36699 152.56187,390.03715 173.04202,310.38888 195.05929,224.76267 285.93674,174.03517 370.75277,195.8788 461.87137,219.3456 515.84556,316.07288 492.56245,406.33759 467.56622,503.24378 364.67356,560.6388 268.66687,535.83678 165.66504,509.22765 104.66749,399.84029 131.0714,297.78554 159.38057,188.3667 275.60623,123.57709 384.02836,151.66954 500.19929,181.76972 568.97855,305.192 539.10712,420.31448 507.12103,543.58676 376.12859,616.56163 253.95866,584.81686 123.22112,550.84588 45.836071,411.894 79.552606,282.31497 115.61167,143.73316 262.92847,61.714451 400.29331,97.505365 547.11403,135.76004 633.99903,291.864 596.0268,437.40688 555.46449,592.87724 390.13386,684.87066 236.00468,644.60571 71.457353,601.61911 -25.896374,426.60446 16.777314,263.46419 62.309635,89.395457 247.48403,-13.580539 420.07721,31.62266 c 184.05224,48.204399 292.92285,244.03323 245.06446,426.53871 -15.07911,57.50338 -44.61953,110.8805 -85.1419,154.35854"
         transform="matrix(24.279092,0,0,26.573879,1819.7458,7544.3914)" />
    </g>
  </g>
</svg>
