<?xml version="1.0" encoding="UTF-8" standalone="no"?>
<!-- Created with Inkscape (http://www.inkscape.org/) -->

<svg
   xmlns:dc="http://purl.org/dc/elements/1.1/"
   xmlns:cc="http://creativecommons.org/ns#"
   xmlns:rdf="http://www.w3.org/1999/02/22-rdf-syntax-ns#"
   xmlns:svg="http://www.w3.org/2000/svg"
   xmlns="http://www.w3.org/2000/svg"
   xmlns:sodipodi="http://sodipodi.sourceforge.net/DTD/sodipodi-0.dtd"
   xmlns:inkscape="http://www.inkscape.org/namespaces/inkscape"
   width="210mm"
   height="297mm"
   viewBox="0 0 210 297"
   id="svg3392"
   version="1.1"
   inkscape:version="0.91 r13725"
   sodipodi:docname="botafogo.svg">
  <defs
     id="defs3">
    <clipPath
       clipPathUnits="userSpaceOnUse"
       id="presentation_clip_path">
      <rect
         id="rect3403"
         height="29700"
         width="21000"
         y="0"
         x="0" />
    </clipPath>
    <clipPath
       clipPathUnits="userSpaceOnUse"
       id="presentation_clip_path-3">
      <rect
         id="rect3646"
         height="29700"
         width="21000"
         y="0"
         x="0" />
    </clipPath>
    <clipPath
       clipPathUnits="userSpaceOnUse"
       id="presentation_clip_path-6">
      <rect
         id="rect3870"
         height="29700"
         width="21000"
         y="0"
         x="0" />
    </clipPath>
    <clipPath
       clipPathUnits="userSpaceOnUse"
       id="presentation_clip_path-7">
      <rect
         id="rect4072"
         height="29700"
         width="21000"
         y="0"
         x="0" />
    </clipPath>
    <clipPath
       clipPathUnits="userSpaceOnUse"
       id="presentation_clip_path-5">
      <rect
         id="rect4318"
         height="29700"
         width="21000"
         y="0"
         x="0" />
    </clipPath>
    <clipPath
       clipPathUnits="userSpaceOnUse"
       id="presentation_clip_path-2">
      <rect
         id="rect4911"
         height="29700"
         width="21000"
         y="0"
         x="0" />
    </clipPath>
  </defs>
  <sodipodi:namedview
     inkscape:document-units="mm"
     id="base"
     pagecolor="#ffffff"
     bordercolor="#666666"
     borderopacity="1.0"
     inkscape:pageopacity="0.0"
     inkscape:pageshadow="2"
     inkscape:zoom="0.7"
     inkscape:cx="544.82403"
     inkscape:cy="519.70902"
     inkscape:current-layer="g4227"
     showgrid="false"
     inkscape:window-width="1619"
     inkscape:window-height="1026"
     inkscape:window-x="61"
     inkscape:window-y="24"
     inkscape:window-maximized="1" />
  <metadata
     id="metadata4">
    <rdf:RDF>
      <cc:Work
         rdf:about="">
        <dc:format>image/svg+xml</dc:format>
        <dc:type
           rdf:resource="http://purl.org/dc/dcmitype/StillImage" />
        <dc:title></dc:title>
      </cc:Work>
    </rdf:RDF>
  </metadata>
  <g
     inkscape:label="Layer 1"
     inkscape:groupmode="layer"
     id="layer1">
    <g
       style="fill-rule:evenodd;stroke-width:28.22200012;stroke-linejoin:round"
       id="g4227"
       transform="matrix(0.01289609,0,0,0.01246524,-25.418202,-58.864864)">
      <g
         id="g4109">
        <g
           class="Master_Slide"
           id="id2">
          <g
             class="Background"
             id="bg-id2" />
          <g
             class="BackgroundObjects"
             id="bo-id2" />
        </g>
      </g>
      <g
         style="fill-rule:evenodd;stroke-width:28.22200012;stroke-linejoin:round"
         id="g4989"
         transform="matrix(2.2170191,0,0,2.1587768,-12051.645,-15390.405)">
        <g
           id="g4948">
          <g
             class="Master_Slide"
             id="id2-9">
            <g
               class="Background"
               id="bg-id2-1" />
            <g
               class="BackgroundObjects"
               id="bo-id2-2" />
          </g>
        </g>
        <g
           id="g4953"
           class="SlideGroup">
          <g
             id="g4955">
            <g
               clip-path="url(#presentation_clip_path-2)"
               class="Slide"
               id="id1">
              <g
                 id="g4958"
                 class="Page">
                <g
                   id="g4960"
                   class="Group">
                  <g
                     id="g4962"
                     class="com.sun.star.drawing.ClosedBezierShape">
                    <g
                       id="id3">
                      <rect
                         id="rect4965"
                         height="8175"
                         width="7345"
                         y="10878"
                         x="6325"
                         class="BoundingBox"
                         style="fill:none;stroke:none" />
                      <path
                         id="path4967"
                         d="m 13665,12787 4,-1128 c -1120,291 -2280,-406 -2280,-406 -807,-405 -1389,-375 -1389,-375 0,0 -587,-30 -1394,375 0,0 -1160,697 -2280,406 l 4,1128 c -26,4447 3672,6264 3672,6264 0,0 3690,-1817 3663,-6264 z"
                         inkscape:connector-curvature="0"
                         style="fill:#1b1918;stroke:none" />
                    </g>
                  </g>
                  <g
                     id="g4969"
                     class="com.sun.star.drawing.ClosedBezierShape">
                    <g
                       id="id4">
                      <rect
                         id="rect4972"
                         height="7452"
                         width="6761"
                         y="11203"
                         x="6620"
                         class="BoundingBox"
                         style="fill:none;stroke:none" />
                      <path
                         id="path4974"
                         d="m 10002,18653 c 0,0 -3374,-1926 -3378,-5692 l -4,-898 c 1396,-6 2168,-514 2168,-514 743,-372 1212,-345 1212,-345 0,0 469,-27 1212,345 0,0 772,508 2168,514 l -4,898 c -4,3766 -3374,5692 -3374,5692 z m 0,0 0,0 z m 2973,-5597 3,-579 c -1061,4 -1908,-523 -1908,-523 -654,-328 -1070,-303 -1070,-303 0,0 -413,-25 -1066,303 0,0 -847,527 -1909,523 l 4,579 c -12,3224 2972,5150 2972,5150 0,0 2986,-1926 2974,-5150 z"
                         inkscape:connector-curvature="0"
                         style="fill:#ffffff;stroke:none" />
                    </g>
                  </g>
                  <g
                     id="g4976"
                     class="com.sun.star.drawing.PolyPolygonShape">
                    <g
                       id="id5">
                      <rect
                         id="rect4979"
                         height="3828"
                         width="4024"
                         y="12228"
                         x="7989"
                         class="BoundingBox"
                         style="fill:none;stroke:none" />
                      <path
                         id="path4981"
                         d="m 10000,12229 475,1461 1537,0 -1243,903 475,1462 -1244,-903 -1243,903 475,-1462 -1243,-902 1537,-1 474,-1461 z"
                         inkscape:connector-curvature="0"
                         style="fill:#ffffff;stroke:none" />
                    </g>
                  </g>
                </g>
              </g>
            </g>
          </g>
        </g>
      </g>
    </g>
  </g>
</svg>
