<?xml version="1.0" encoding="UTF-8" standalone="no"?>
<!-- Created with Inkscape (http://www.inkscape.org/) -->

<svg
   xmlns:dc="http://purl.org/dc/elements/1.1/"
   xmlns:cc="http://creativecommons.org/ns#"
   xmlns:rdf="http://www.w3.org/1999/02/22-rdf-syntax-ns#"
   xmlns:svg="http://www.w3.org/2000/svg"
   xmlns="http://www.w3.org/2000/svg"
   xmlns:sodipodi="http://sodipodi.sourceforge.net/DTD/sodipodi-0.dtd"
   xmlns:inkscape="http://www.inkscape.org/namespaces/inkscape"
   width="210mm"
   height="297mm"
   viewBox="0 0 210 297"
   id="svg3392"
   version="1.1"
   inkscape:version="0.91 r13725"
   sodipodi:docname="coritiba.svg">
  <defs
     id="defs3">
    <clipPath
       clipPathUnits="userSpaceOnUse"
       id="presentation_clip_path">
      <rect
         id="rect3403"
         height="29700"
         width="21000"
         y="0"
         x="0" />
    </clipPath>
    <clipPath
       clipPathUnits="userSpaceOnUse"
       id="presentation_clip_path-3">
      <rect
         id="rect3646"
         height="29700"
         width="21000"
         y="0"
         x="0" />
    </clipPath>
    <clipPath
       clipPathUnits="userSpaceOnUse"
       id="presentation_clip_path-6">
      <rect
         id="rect3870"
         height="29700"
         width="21000"
         y="0"
         x="0" />
    </clipPath>
    <clipPath
       clipPathUnits="userSpaceOnUse"
       id="presentation_clip_path-7">
      <rect
         id="rect4072"
         height="29700"
         width="21000"
         y="0"
         x="0" />
    </clipPath>
    <clipPath
       clipPathUnits="userSpaceOnUse"
       id="presentation_clip_path-5">
      <rect
         id="rect4318"
         height="29700"
         width="21000"
         y="0"
         x="0" />
    </clipPath>
    <clipPath
       clipPathUnits="userSpaceOnUse"
       id="presentation_clip_path-2">
      <rect
         id="rect4911"
         height="29700"
         width="21000"
         y="0"
         x="0" />
    </clipPath>
    <clipPath
       clipPathUnits="userSpaceOnUse"
       id="presentation_clip_path-70">
      <rect
         id="rect5036"
         height="29700"
         width="21000"
         y="0"
         x="0" />
    </clipPath>
    <clipPath
       clipPathUnits="userSpaceOnUse"
       id="presentation_clip_path-0">
      <rect
         id="rect5689"
         height="29700"
         width="21000"
         y="0"
         x="0" />
    </clipPath>
    <clipPath
       clipPathUnits="userSpaceOnUse"
       id="presentation_clip_path-1">
      <rect
         id="rect7541"
         height="29700"
         width="21000"
         y="0"
         x="0" />
    </clipPath>
  </defs>
  <sodipodi:namedview
     inkscape:document-units="mm"
     id="base"
     pagecolor="#ffffff"
     bordercolor="#666666"
     borderopacity="1.0"
     inkscape:pageopacity="0.0"
     inkscape:pageshadow="2"
     inkscape:zoom="0.7"
     inkscape:cx="544.82403"
     inkscape:cy="519.70902"
     inkscape:current-layer="g4227"
     showgrid="false"
     inkscape:window-width="1619"
     inkscape:window-height="1026"
     inkscape:window-x="61"
     inkscape:window-y="24"
     inkscape:window-maximized="1" />
  <metadata
     id="metadata4">
    <rdf:RDF>
      <cc:Work
         rdf:about="">
        <dc:format>image/svg+xml</dc:format>
        <dc:type
           rdf:resource="http://purl.org/dc/dcmitype/StillImage" />
        <dc:title></dc:title>
      </cc:Work>
    </rdf:RDF>
  </metadata>
  <g
     inkscape:label="Layer 1"
     inkscape:groupmode="layer"
     id="layer1">
    <g
       style="fill-rule:evenodd;stroke-width:28.22200012;stroke-linejoin:round"
       id="g4227"
       transform="matrix(0.01289609,0,0,0.01246524,-25.418202,-58.864864)">
      <g
         id="g4109">
        <g
           class="Master_Slide"
           id="id2">
          <g
             class="Background"
             id="bg-id2" />
          <g
             class="BackgroundObjects"
             id="bo-id2" />
        </g>
      </g>
      <g
         style="fill-rule:evenodd;stroke-width:28.22200012;stroke-linejoin:round"
         id="g7733"
         transform="matrix(1.0619542,0,0,1.0987314,-620.16756,174.2313)">
        <g
           id="g7578">
          <g
             class="Master_Slide"
             id="id2-8">
            <g
               class="Background"
               id="bg-id2-7" />
            <g
               class="BackgroundObjects"
               id="bo-id2-9" />
          </g>
        </g>
        <g
           id="g7583"
           class="SlideGroup">
          <g
             id="g7585">
            <g
               clip-path="url(#presentation_clip_path-1)"
               class="Slide"
               id="id1">
              <g
                 id="g7588"
                 class="Page">
                <g
                   id="g7590"
                   class="Group">
                  <g
                     id="g7592"
                     class="com.sun.star.drawing.ClosedBezierShape">
                    <g
                       id="id3">
                      <rect
                         id="rect7595"
                         height="15333"
                         width="15334"
                         y="7206"
                         x="2440"
                         class="BoundingBox"
                         style="fill:none;stroke:none" />
                      <path
                         id="path7597"
                         d="m 10106,7210 c 4221,0 7663,3441 7663,7661 0,4221 -3442,7663 -7663,7663 -4221,0 -7662,-3442 -7662,-7663 0,-4220 3441,-7661 7662,-7661 z"
                         inkscape:connector-curvature="0"
                         style="fill:#ffffff;stroke:none" />
                      <path
                         id="path7599"
                         d="m 10106,7210 c 4221,0 7663,3441 7663,7661 0,4221 -3442,7663 -7663,7663 -4221,0 -7662,-3442 -7662,-7663 0,-4220 3441,-7661 7662,-7661 z"
                         inkscape:connector-curvature="0"
                         style="fill:none;stroke:#006e39;stroke-width:7;stroke-linejoin:miter" />
                    </g>
                  </g>
                  <g
                     id="g7601"
                     class="com.sun.star.drawing.ClosedBezierShape">
                    <g
                       id="id4">
                      <rect
                         id="rect7604"
                         height="14745"
                         width="14745"
                         y="7500"
                         x="2734"
                         class="BoundingBox"
                         style="fill:none;stroke:none" />
                      <path
                         id="path7606"
                         d="m 10105,7500 c 4061,0 7373,3311 7373,7372 0,4061 -3312,7372 -7373,7372 -4060,0 -7371,-3311 -7371,-7372 0,-4061 3311,-7372 7371,-7372 z"
                         inkscape:connector-curvature="0"
                         style="fill:#006e39;stroke:none" />
                    </g>
                  </g>
                  <g
                     id="g7608"
                     class="com.sun.star.drawing.ClosedBezierShape">
                    <g
                       id="id5">
                      <rect
                         id="rect7611"
                         height="9772"
                         width="14356"
                         y="7695"
                         x="2923"
                         class="BoundingBox"
                         style="fill:none;stroke:none" />
                      <path
                         id="path7613"
                         d="m 3904,16655 -1,-231 c 127,-6 231,19 313,76 81,56 140,142 177,257 47,142 36,275 -32,399 -67,123 -185,212 -354,267 -178,58 -332,57 -461,-3 -128,-60 -217,-166 -266,-316 -42,-131 -38,-250 13,-357 30,-64 83,-122 161,-174 l 121,197 c -51,31 -87,72 -106,123 -19,50 -19,104 0,162 25,79 75,135 148,166 73,31 174,25 302,-16 135,-44 224,-100 265,-167 42,-68 50,-141 25,-219 -19,-57 -53,-101 -103,-130 -50,-30 -117,-41 -202,-34 z m 0,0 0,0 z m -282,-546 c -114,14 -212,9 -293,-15 -61,-19 -116,-47 -167,-86 -50,-38 -90,-82 -118,-132 -38,-66 -63,-145 -74,-236 -20,-165 15,-303 105,-415 90,-111 226,-178 408,-200 181,-23 328,9 442,95 115,86 182,211 202,375 20,166 -14,305 -104,416 -89,110 -223,177 -401,198 z m 0,0 0,0 z m -36,-231 c 126,-16 219,-57 277,-123 58,-67 82,-145 71,-235 -11,-91 -53,-160 -125,-210 -72,-50 -173,-67 -302,-51 -129,16 -221,56 -277,120 -56,63 -79,142 -67,235 11,93 52,165 123,214 71,49 171,65 300,50 z m 0,0 0,0 z m 453,-1223 -1116,-156 66,-475 c 17,-119 39,-204 67,-256 28,-51 69,-89 125,-115 56,-25 117,-33 183,-24 84,12 149,47 197,103 48,57 72,136 72,236 35,-45 73,-81 111,-108 38,-27 105,-61 199,-103 l 237,-105 -38,269 -265,129 c -95,46 -156,78 -181,96 -26,18 -45,38 -56,61 -12,23 -22,60 -29,112 l -6,46 466,65 -32,225 z m 0,0 0,0 z m -613,-315 24,-167 c 15,-108 20,-177 15,-205 -6,-28 -19,-51 -39,-70 -20,-18 -47,-30 -80,-34 -38,-6 -70,0 -96,17 -25,17 -44,43 -55,79 -5,18 -14,72 -27,164 l -25,176 283,40 z m 0,0 0,0 z m 822,-933 -1078,-330 66,-218 1078,330 -66,218 z m 0,0 0,0 z m 248,-783 -849,-395 -142,303 -173,-81 379,-812 173,81 -141,302 849,396 -96,206 z m 0,0 0,0 z m 373,-736 -977,-563 114,-197 976,563 -113,197 z m 0,0 0,0 z m -565,-1266 301,-335 c 60,-67 107,-113 142,-141 35,-29 73,-47 113,-57 41,-10 84,-11 128,-2 45,9 85,30 122,64 39,35 65,78 79,129 14,51 12,101 -4,152 61,-37 122,-54 182,-49 61,5 115,29 164,73 38,34 67,76 87,126 20,50 27,100 21,151 -6,50 -27,99 -63,149 -22,31 -81,101 -178,209 l -256,285 -838,-754 z m 0,0 0,0 z m 291,-44 194,175 100,-111 c 60,-66 95,-108 108,-126 23,-32 33,-64 31,-95 -1,-32 -16,-60 -43,-84 -26,-23 -53,-35 -82,-35 -29,0 -58,12 -87,37 -17,15 -61,62 -133,142 l -88,97 z m 0,0 0,0 z m 334,300 224,202 141,-157 c 55,-61 88,-101 99,-120 18,-30 25,-60 22,-92 -4,-32 -20,-61 -50,-88 -25,-22 -52,-36 -80,-39 -29,-4 -57,3 -86,18 -29,16 -78,63 -147,140 l -123,136 z m 0,0 0,0 z m 1866,-1074 -195,152 -235,-141 -356,277 85,260 -191,149 -348,-1160 190,-148 1050,611 z m 0,0 0,0 z m -605,-94 -380,-234 138,423 242,-189 z m 0,0 0,0 z m 1117,-186 -458,-1031 706,-314 77,174 -498,222 109,244 430,-191 77,174 -430,191 195,438 -208,93 z m 0,0 0,0 z m 830,-968 c -25,-112 -30,-210 -15,-293 13,-62 35,-120 68,-175 33,-54 73,-98 119,-131 62,-45 138,-78 227,-98 162,-38 303,-18 423,60 121,78 201,207 243,386 41,177 24,327 -49,449 -73,123 -190,203 -352,240 -163,38 -305,18 -424,-60 -119,-77 -199,-203 -240,-378 z m 0,0 0,0 z m 227,-60 c 29,124 79,212 152,263 72,51 152,66 241,45 88,-20 153,-69 195,-145 42,-77 49,-179 19,-307 -29,-125 -78,-213 -148,-262 -69,-49 -150,-63 -241,-42 -92,21 -158,69 -199,145 -42,75 -48,176 -19,303 z m 0,0 0,0 z m 1231,-221 c 2,-115 21,-211 56,-288 27,-57 63,-108 108,-153 45,-45 94,-78 148,-99 70,-29 151,-41 244,-40 166,3 298,56 396,161 98,105 145,249 142,433 -3,182 -55,323 -156,424 -100,101 -233,150 -399,148 -169,-3 -301,-57 -398,-161 -97,-104 -144,-246 -141,-425 z m 0,0 0,0 z m 234,-4 c -2,128 26,225 84,292 58,67 132,101 224,103 90,1 165,-30 225,-94 59,-65 90,-162 92,-293 2,-129 -24,-226 -80,-291 -55,-64 -130,-97 -224,-99 -95,-1 -171,29 -229,93 -59,63 -89,160 -92,289 z m 0,0 0,0 z m 1401,668 195,-917 -327,-69 39,-187 877,186 -40,187 -326,-69 -195,916 -223,-47 z m 0,0 0,0 z m 1645,-683 401,205 c 80,40 137,74 173,100 36,27 64,59 84,95 20,37 31,78 34,124 3,45 -7,89 -29,133 -24,47 -59,83 -104,110 -45,26 -95,38 -148,36 52,49 84,103 95,163 11,59 1,118 -28,176 -23,46 -57,85 -100,118 -43,32 -90,51 -140,58 -50,8 -103,0 -160,-21 -36,-14 -118,-53 -248,-118 l -342,-174 512,-1005 z m 0,0 0,0 z m 117,271 -118,232 133,68 c 79,40 129,64 149,71 37,14 70,16 100,6 30,-9 54,-31 70,-63 16,-31 20,-61 13,-89 -7,-28 -27,-53 -58,-74 -19,-13 -77,-43 -172,-92 l -117,-59 z m 0,0 0,0 z m -203,399 -137,269 188,96 c 73,37 120,58 142,64 33,10 64,9 94,-2 30,-12 54,-35 72,-71 15,-30 21,-60 17,-88 -4,-28 -17,-54 -40,-78 -23,-24 -80,-59 -172,-106 l -164,-84 z m 0,0 0,0 z m 1485,1563 -195,-153 80,-263 -355,-278 -231,145 -190,-149 1040,-618 190,148 -339,1168 z m 0,0 0,0 z m -55,-611 135,-425 -378,236 243,189 z m 0,0 0,0 z m 225,807 831,-749 153,169 -690,622 379,421 -141,127 -532,-590 z m 0,0 0,0 z m 691,834 969,-559 113,197 -804,464 283,491 -164,95 -397,-688 z m 0,0 0,0 z m 1246,1834 -2,232 c -128,3 -232,-24 -312,-82 -80,-57 -138,-144 -173,-260 -44,-143 -31,-276 39,-398 69,-122 189,-209 359,-261 179,-55 333,-51 460,11 128,63 215,170 261,321 40,131 34,250 -19,357 -31,63 -86,120 -165,171 l -117,-200 c 52,-30 88,-70 108,-120 20,-51 21,-105 4,-163 -25,-80 -73,-136 -146,-168 -73,-32 -173,-29 -302,11 -136,41 -225,96 -268,162 -43,67 -53,140 -28,218 17,58 51,102 100,133 50,30 117,42 201,36 z m 0,0 0,0 z m -295,671 1114,-98 20,227 -925,81 49,564 -189,17 -69,-791 z m 0,0 0,0 z m 1192,1217 -28,226 -606,-75 c -96,-11 -159,-16 -188,-14 -47,4 -87,22 -119,55 -32,33 -52,82 -60,145 -8,64 -1,114 21,149 23,36 52,60 90,71 37,11 100,22 189,33 l 619,76 -28,226 -588,-72 c -134,-16 -228,-34 -282,-53 -54,-19 -98,-47 -132,-85 -35,-38 -60,-85 -76,-143 -15,-58 -18,-131 -7,-219 13,-107 35,-187 67,-239 31,-52 69,-92 112,-119 43,-27 87,-43 132,-48 66,-7 161,-3 287,13 l 597,73 z m 0,0 0,0 z m -238,1453 -139,428 c -28,85 -52,147 -73,187 -20,39 -47,72 -80,97 -33,26 -72,44 -117,54 -44,9 -89,7 -136,-8 -50,-17 -92,-45 -125,-86 -33,-41 -52,-87 -58,-141 -41,60 -89,99 -147,120 -57,20 -116,20 -178,0 -49,-16 -93,-43 -132,-81 -38,-37 -65,-80 -80,-128 -15,-49 -16,-103 -4,-162 8,-37 34,-125 78,-264 l 119,-365 1072,349 z m 0,0 0,0 z m -249,158 -248,-80 -46,142 c -28,84 -43,137 -47,158 -8,39 -5,72 10,100 14,28 38,48 73,59 33,11 63,10 90,-1 26,-12 48,-35 64,-69 9,-21 30,-82 64,-184 l 40,-125 z m 0,0 0,0 z m -426,-138 -287,-93 -65,200 c -26,78 -39,128 -42,151 -5,34 1,64 17,92 17,28 44,48 82,60 32,11 62,12 89,3 28,-8 51,-25 71,-51 20,-27 46,-89 78,-187 l 57,-175 z"
                         inkscape:connector-curvature="0"
                         style="fill:#ffffff;stroke:none" />
                    </g>
                  </g>
                  <g
                     id="g7615"
                     class="com.sun.star.drawing.ClosedBezierShape">
                    <g
                       id="id6">
                      <rect
                         id="rect7618"
                         height="3277"
                         width="10920"
                         y="18790"
                         x="4647"
                         class="BoundingBox"
                         style="fill:none;stroke:none" />
                      <path
                         id="path7620"
                         d="m 4879,18790 c 128,0 232,104 232,232 0,127 -104,232 -232,232 -127,0 -231,-105 -231,-232 0,-128 104,-232 231,-232 z m 0,0 0,0 z m 10456,0 c -128,0 -232,104 -232,232 0,127 104,232 232,232 127,0 231,-105 231,-232 0,-128 -104,-232 -231,-232 z m 0,0 0,0 z m -9419,1919 614,-946 306,199 c 116,75 189,129 218,161 45,50 70,110 76,181 5,72 -16,146 -65,221 -38,58 -80,100 -127,126 -46,26 -93,40 -140,41 -48,2 -90,-5 -129,-19 -51,-21 -120,-59 -206,-115 l -125,-81 -232,356 -190,-124 z m 0,0 0,0 z m 701,-662 -175,268 105,68 c 75,50 129,78 160,84 32,7 62,4 90,-8 28,-11 51,-32 70,-60 22,-35 30,-69 25,-105 -6,-35 -23,-66 -50,-92 -20,-19 -64,-51 -133,-95 l -92,-60 z m 0,0 0,0 z m 1489,1764 -230,-93 5,-274 -418,-169 -183,203 -224,-91 831,-881 223,91 -4,1214 z m 0,0 0,0 z m -222,-571 13,-446 -298,331 285,115 z m 0,0 0,0 z m 854,683 157,-1116 474,66 c 120,17 205,39 256,67 51,28 90,69 115,125 25,56 33,117 24,183 -12,84 -46,149 -103,197 -57,48 -136,72 -236,72 45,36 81,73 108,111 27,39 61,105 103,199 l 105,237 -269,-38 -129,-265 c -46,-95 -77,-156 -96,-181 -18,-26 -38,-45 -61,-56 -23,-12 -60,-22 -112,-29 l -45,-6 -66,466 -225,-32 z m 0,0 0,0 z m 316,-613 167,24 c 108,15 176,20 204,15 28,-6 52,-18 70,-39 18,-20 30,-47 34,-80 6,-38 0,-69 -17,-95 -17,-26 -43,-45 -79,-56 -17,-5 -72,-14 -163,-27 l -177,-25 -39,283 z m 0,0 0,0 z m 2326,656 -247,22 -120,-247 -449,39 -70,264 -241,21 339,-1162 240,-21 548,1084 z m 0,0 0,0 z m -457,-408 -191,-403 -115,430 306,-27 z m 0,0 0,0 z m 1085,262 -386,-1060 208,-75 692,549 -258,-707 199,-73 386,1060 -215,78 -679,-535 252,691 -199,72 z m 0,0 0,0 z m 2375,-1175 -208,135 -222,-161 -378,245 62,266 -203,131 -246,-1186 202,-131 993,701 z m 0,0 0,0 z m -595,-146 -358,-267 100,435 258,-168 z m 0,0 0,0 z m 106,-922 -155,98 c -30,106 40,313 105,354 l 51,-39 c -38,-157 -23,-293 -1,-413 z"
                         inkscape:connector-curvature="0"
                         style="fill:#ffffff;stroke:none" />
                    </g>
                  </g>
                  <g
                     id="g7622"
                     class="com.sun.star.drawing.ClosedBezierShape">
                    <g
                       id="id7">
                      <rect
                         id="rect7625"
                         height="11713"
                         width="11712"
                         y="9015"
                         x="4251"
                         class="BoundingBox"
                         style="fill:none;stroke:none" />
                      <path
                         id="path7627"
                         d="m 10107,9016 c 3225,0 5855,2630 5855,5856 0,3224 -2630,5855 -5855,5855 -3226,0 -5856,-2631 -5856,-5855 0,-3226 2630,-5856 5856,-5856 z"
                         inkscape:connector-curvature="0"
                         style="fill:#ffffff;stroke:none" />
                    </g>
                  </g>
                  <g
                     id="g7629"
                     class="com.sun.star.drawing.ClosedBezierShape">
                    <g
                       id="id8">
                      <rect
                         id="rect7632"
                         height="11170"
                         width="11170"
                         y="9288"
                         x="4522"
                         class="BoundingBox"
                         style="fill:none;stroke:none" />
                      <path
                         id="path7634"
                         d="m 10107,9288 c 3075,0 5584,2508 5584,5584 0,3077 -2509,5585 -5584,5585 -3077,0 -5585,-2508 -5585,-5585 0,-3076 2508,-5584 5585,-5584 z"
                         inkscape:connector-curvature="0"
                         style="fill:#006e39;stroke:none" />
                    </g>
                  </g>
                  <g
                     id="g7636"
                     class="com.sun.star.drawing.ClosedBezierShape">
                    <g
                       id="id9">
                      <rect
                         id="rect7639"
                         height="10779"
                         width="7518"
                         y="9483"
                         x="6348"
                         class="BoundingBox"
                         style="fill:none;stroke:none" />
                      <path
                         id="path7641"
                         d="m 13865,18997 c -757,-1188 -2159,-1990 -3759,-1990 -1600,0 -3002,802 -3758,1990 645,588 1428,1028 2294,1264 375,-276 893,-448 1464,-448 571,0 1089,172 1464,448 866,-236 1650,-676 2295,-1264 z m 0,0 0,0 z m 0,-8250 c -757,1188 -2159,1990 -3759,1990 -1600,0 -3002,-802 -3758,-1990 645,-589 1428,-1028 2294,-1264 375,276 893,448 1464,448 571,0 1089,-172 1464,-448 866,236 1650,675 2295,1264 z"
                         inkscape:connector-curvature="0"
                         style="fill:#ffffff;stroke:none" />
                    </g>
                  </g>
                  <g
                     id="g7643"
                     class="com.sun.star.drawing.OpenBezierShape">
                    <g
                       id="id10">
                      <rect
                         id="rect7646"
                         height="2106"
                         width="1946"
                         y="9661"
                         x="11075"
                         class="BoundingBox"
                         style="fill:none;stroke:none" />
                      <path
                         id="path7648"
                         d="m 13016,11764 c -439,-898 -1038,-1558 -1939,-2100"
                         inkscape:connector-curvature="0"
                         style="fill:none;stroke:#006e39;stroke-width:7;stroke-linejoin:miter" />
                    </g>
                  </g>
                  <g
                     id="g7650"
                     class="com.sun.star.drawing.OpenBezierShape">
                    <g
                       id="id11">
                      <rect
                         id="rect7653"
                         height="2751"
                         width="1090"
                         y="9775"
                         x="10598"
                         class="BoundingBox"
                         style="fill:none;stroke:none" />
                      <path
                         id="path7655"
                         d="m 11683,12524 c -77,-909 -592,-2012 -1082,-2747"
                         inkscape:connector-curvature="0"
                         style="fill:none;stroke:#006e39;stroke-width:7;stroke-linejoin:miter" />
                    </g>
                  </g>
                  <g
                     id="g7657"
                     class="com.sun.star.drawing.LineShape">
                    <g
                       id="id12">
                      <rect
                         id="rect7660"
                         height="2948"
                         width="9"
                         y="9865"
                         x="10102"
                         class="BoundingBox"
                         style="fill:none;stroke:none" />
                      <path
                         id="path7662"
                         d="m 10106,12812 0,-2947"
                         inkscape:connector-curvature="0"
                         style="fill:none;stroke:#006e39;stroke-width:7;stroke-linejoin:miter" />
                    </g>
                  </g>
                  <g
                     id="g7664"
                     class="com.sun.star.drawing.OpenBezierShape">
                    <g
                       id="id13">
                      <rect
                         id="rect7667"
                         height="2751"
                         width="1090"
                         y="9775"
                         x="8526"
                         class="BoundingBox"
                         style="fill:none;stroke:none" />
                      <path
                         id="path7669"
                         d="m 8530,12524 c 77,-909 591,-2012 1082,-2747"
                         inkscape:connector-curvature="0"
                         style="fill:none;stroke:#006e39;stroke-width:7;stroke-linejoin:miter" />
                    </g>
                  </g>
                  <g
                     id="g7671"
                     class="com.sun.star.drawing.OpenBezierShape">
                    <g
                       id="id14">
                      <rect
                         id="rect7674"
                         height="2107"
                         width="1946"
                         y="9660"
                         x="7193"
                         class="BoundingBox"
                         style="fill:none;stroke:none" />
                      <path
                         id="path7676"
                         d="m 7197,11764 c 438,-898 1037,-1558 1939,-2100"
                         inkscape:connector-curvature="0"
                         style="fill:none;stroke:#006e39;stroke-width:7;stroke-linejoin:miter" />
                    </g>
                  </g>
                  <g
                     id="g7678"
                     class="com.sun.star.drawing.OpenBezierShape">
                    <g
                       id="id15">
                      <rect
                         id="rect7681"
                         height="2106"
                         width="1946"
                         y="17978"
                         x="11075"
                         class="BoundingBox"
                         style="fill:none;stroke:none" />
                      <path
                         id="path7683"
                         d="m 13016,17980 c -439,898 -1038,1558 -1939,2100"
                         inkscape:connector-curvature="0"
                         style="fill:none;stroke:#006e39;stroke-width:7;stroke-linejoin:miter" />
                    </g>
                  </g>
                  <g
                     id="g7685"
                     class="com.sun.star.drawing.OpenBezierShape">
                    <g
                       id="id16">
                      <rect
                         id="rect7688"
                         height="2751"
                         width="1090"
                         y="17219"
                         x="10598"
                         class="BoundingBox"
                         style="fill:none;stroke:none" />
                      <path
                         id="path7690"
                         d="m 11683,17220 c -77,909 -592,2011 -1082,2747"
                         inkscape:connector-curvature="0"
                         style="fill:none;stroke:#006e39;stroke-width:7;stroke-linejoin:miter" />
                    </g>
                  </g>
                  <g
                     id="g7692"
                     class="com.sun.star.drawing.LineShape">
                    <g
                       id="id17">
                      <rect
                         id="rect7695"
                         height="2948"
                         width="9"
                         y="16930"
                         x="10102"
                         class="BoundingBox"
                         style="fill:none;stroke:none" />
                      <path
                         id="path7697"
                         d="m 10106,16930 0,2947"
                         inkscape:connector-curvature="0"
                         style="fill:none;stroke:#006e39;stroke-width:7;stroke-linejoin:miter" />
                    </g>
                  </g>
                  <g
                     id="g7699"
                     class="com.sun.star.drawing.OpenBezierShape">
                    <g
                       id="id18">
                      <rect
                         id="rect7702"
                         height="2751"
                         width="1090"
                         y="17219"
                         x="8526"
                         class="BoundingBox"
                         style="fill:none;stroke:none" />
                      <path
                         id="path7704"
                         d="m 8530,17220 c 77,909 591,2011 1082,2747"
                         inkscape:connector-curvature="0"
                         style="fill:none;stroke:#006e39;stroke-width:7;stroke-linejoin:miter" />
                    </g>
                  </g>
                  <g
                     id="g7706"
                     class="com.sun.star.drawing.OpenBezierShape">
                    <g
                       id="id19">
                      <rect
                         id="rect7709"
                         height="2107"
                         width="1946"
                         y="17978"
                         x="7193"
                         class="BoundingBox"
                         style="fill:none;stroke:none" />
                      <path
                         id="path7711"
                         d="m 7197,17980 c 438,898 1037,1558 1939,2100"
                         inkscape:connector-curvature="0"
                         style="fill:none;stroke:#006e39;stroke-width:7;stroke-linejoin:miter" />
                    </g>
                  </g>
                  <g
                     id="g7713"
                     class="com.sun.star.drawing.ClosedBezierShape">
                    <g
                       id="id20">
                      <rect
                         id="rect7716"
                         height="3873"
                         width="8694"
                         y="13036"
                         x="5752"
                         class="BoundingBox"
                         style="fill:none;stroke:none" />
                      <path
                         id="path7718"
                         d="m 10705,15163 -553,0 0,1010 -607,0 0,-2406 1368,0 0,561 -761,0 0,315 553,0 0,520 z m 0,0 0,0 z m -2297,436 c 0,480 -137,672 -339,931 -196,250 -517,378 -946,378 -434,0 -771,-206 -1011,-545 -241,-339 -360,-780 -360,-1397 0,-627 100,-1039 342,-1378 242,-339 608,-572 1055,-549 809,43 1231,716 1227,1414 l -790,88 c 0,-265 -96,-648 -387,-642 -189,5 -309,159 -355,296 -45,136 -75,390 -75,761 0,211 -6,616 104,896 66,169 176,304 361,301 167,-3 257,-145 303,-310 34,-119 45,-251 45,-347 l 826,103 z m 0,0 0,0 z m 6037,0 c 0,480 -137,672 -338,931 -195,250 -516,378 -945,378 -434,0 -771,-206 -1013,-545 -240,-339 -360,-780 -360,-1397 0,-627 101,-1039 343,-1378 243,-339 609,-572 1056,-549 808,43 1229,716 1225,1414 l -788,88 c 0,-265 -96,-648 -387,-642 -189,5 -309,159 -355,296 -45,136 -75,390 -75,761 0,211 -6,616 103,896 66,169 177,304 361,301 167,-3 258,-145 304,-310 34,-119 45,-251 45,-347 l 824,103 z"
                         inkscape:connector-curvature="0"
                         style="fill:#ffffff;stroke:none" />
                    </g>
                  </g>
                  <g
                     id="g7720"
                     class="com.sun.star.drawing.ClosedBezierShape">
                    <g
                       id="id21">
                      <rect
                         id="rect7723"
                         height="11178"
                         width="11178"
                         y="9284"
                         x="4518"
                         class="BoundingBox"
                         style="fill:none;stroke:none" />
                      <path
                         id="path7725"
                         d="m 10107,9288 c 3075,0 5584,2508 5584,5584 0,3077 -2509,5585 -5584,5585 -3077,0 -5585,-2508 -5585,-5585 0,-3076 2508,-5584 5585,-5584 z"
                         inkscape:connector-curvature="0"
                         style="fill:none;stroke:#006e39;stroke-width:7;stroke-linejoin:miter" />
                    </g>
                  </g>
                </g>
              </g>
            </g>
          </g>
        </g>
      </g>
    </g>
  </g>
</svg>
