<?xml version="1.0" encoding="UTF-8" standalone="no"?>
<!-- Created with Inkscape (http://www.inkscape.org/) -->

<svg
   xmlns:dc="http://purl.org/dc/elements/1.1/"
   xmlns:cc="http://creativecommons.org/ns#"
   xmlns:rdf="http://www.w3.org/1999/02/22-rdf-syntax-ns#"
   xmlns:svg="http://www.w3.org/2000/svg"
   xmlns="http://www.w3.org/2000/svg"
   xmlns:sodipodi="http://sodipodi.sourceforge.net/DTD/sodipodi-0.dtd"
   xmlns:inkscape="http://www.inkscape.org/namespaces/inkscape"
   width="210mm"
   height="297mm"
   viewBox="0 0 210 297"
   id="svg3392"
   version="1.1"
   inkscape:version="0.91 r13725"
   sodipodi:docname="cruzeiro.svg">
  <defs
     id="defs3">
    <clipPath
       clipPathUnits="userSpaceOnUse"
       id="presentation_clip_path">
      <rect
         id="rect3403"
         height="29700"
         width="21000"
         y="0"
         x="0" />
    </clipPath>
    <clipPath
       clipPathUnits="userSpaceOnUse"
       id="presentation_clip_path-3">
      <rect
         id="rect3646"
         height="29700"
         width="21000"
         y="0"
         x="0" />
    </clipPath>
    <clipPath
       clipPathUnits="userSpaceOnUse"
       id="presentation_clip_path-6">
      <rect
         id="rect3870"
         height="29700"
         width="21000"
         y="0"
         x="0" />
    </clipPath>
    <clipPath
       clipPathUnits="userSpaceOnUse"
       id="presentation_clip_path-7">
      <rect
         id="rect4072"
         height="29700"
         width="21000"
         y="0"
         x="0" />
    </clipPath>
    <clipPath
       clipPathUnits="userSpaceOnUse"
       id="presentation_clip_path-5">
      <rect
         id="rect4318"
         height="29700"
         width="21000"
         y="0"
         x="0" />
    </clipPath>
    <clipPath
       clipPathUnits="userSpaceOnUse"
       id="presentation_clip_path-2">
      <rect
         id="rect4911"
         height="29700"
         width="21000"
         y="0"
         x="0" />
    </clipPath>
    <clipPath
       clipPathUnits="userSpaceOnUse"
       id="presentation_clip_path-70">
      <rect
         id="rect5036"
         height="29700"
         width="21000"
         y="0"
         x="0" />
    </clipPath>
    <clipPath
       clipPathUnits="userSpaceOnUse"
       id="presentation_clip_path-0">
      <rect
         id="rect5689"
         height="29700"
         width="21000"
         y="0"
         x="0" />
    </clipPath>
    <clipPath
       clipPathUnits="userSpaceOnUse"
       id="presentation_clip_path-1">
      <rect
         id="rect7541"
         height="29700"
         width="21000"
         y="0"
         x="0" />
    </clipPath>
    <clipPath
       clipPathUnits="userSpaceOnUse"
       id="presentation_clip_path-20">
      <rect
         id="rect7845"
         height="29700"
         width="21000"
         y="0"
         x="0" />
    </clipPath>
  </defs>
  <sodipodi:namedview
     inkscape:document-units="mm"
     id="base"
     pagecolor="#ffffff"
     bordercolor="#666666"
     borderopacity="1.0"
     inkscape:pageopacity="0.0"
     inkscape:pageshadow="2"
     inkscape:zoom="0.7"
     inkscape:cx="544.82403"
     inkscape:cy="519.70902"
     inkscape:current-layer="g4227"
     showgrid="false"
     inkscape:window-width="1619"
     inkscape:window-height="1026"
     inkscape:window-x="61"
     inkscape:window-y="24"
     inkscape:window-maximized="1" />
  <metadata
     id="metadata4">
    <rdf:RDF>
      <cc:Work
         rdf:about="">
        <dc:format>image/svg+xml</dc:format>
        <dc:type
           rdf:resource="http://purl.org/dc/dcmitype/StillImage" />
        <dc:title></dc:title>
      </cc:Work>
    </rdf:RDF>
  </metadata>
  <g
     inkscape:label="Layer 1"
     inkscape:groupmode="layer"
     id="layer1">
    <g
       style="fill-rule:evenodd;stroke-width:28.22200012;stroke-linejoin:round"
       id="g4227"
       transform="matrix(0.01289609,0,0,0.01246524,-25.418202,-58.864864)">
      <g
         id="g4109">
        <g
           class="Master_Slide"
           id="id2">
          <g
             class="Background"
             id="bg-id2" />
          <g
             class="BackgroundObjects"
             id="bo-id2" />
        </g>
      </g>
      <g
         style="fill-rule:evenodd;stroke-width:28.22200012;stroke-linejoin:round"
         id="g7937"
         transform="matrix(1.0625085,0,0,1.0992332,-625.77015,192.60053)">
        <g
           id="g7882">
          <g
             class="Master_Slide"
             id="id2-2">
            <g
               class="Background"
               id="bg-id2-3" />
            <g
               class="BackgroundObjects"
               id="bo-id2-7" />
          </g>
        </g>
        <g
           id="g7887"
           class="SlideGroup">
          <g
             id="g7889">
            <g
               clip-path="url(#presentation_clip_path-20)"
               class="Slide"
               id="id1">
              <g
                 id="g7892"
                 class="Page">
                <g
                   id="g7894"
                   class="Group">
                  <g
                     id="g7896"
                     class="com.sun.star.drawing.ClosedBezierShape">
                    <g
                       id="id3">
                      <rect
                         id="rect7899"
                         height="15326"
                         width="15326"
                         y="7186"
                         x="2444"
                         class="BoundingBox"
                         style="fill:none;stroke:none" />
                      <path
                         id="path7901"
                         d="m 10105,7186 c 4221,0 7663,3441 7663,7661 0,4221 -3442,7663 -7663,7663 -4220,0 -7661,-3442 -7661,-7663 0,-4220 3441,-7661 7661,-7661 z"
                         inkscape:connector-curvature="0"
                         style="fill:#005589;stroke:none" />
                    </g>
                  </g>
                  <g
                     id="g7903"
                     class="com.sun.star.drawing.ClosedBezierShape">
                    <g
                       id="id4">
                      <rect
                         id="rect7906"
                         height="14877"
                         width="14877"
                         y="7411"
                         x="2669"
                         class="BoundingBox"
                         style="fill:none;stroke:none" />
                      <path
                         id="path7908"
                         d="m 10107,7411 c 4097,0 7438,3341 7438,7438 0,4097 -3341,7438 -7438,7438 -4097,0 -7438,-3341 -7438,-7438 0,-4097 3341,-7438 7438,-7438 z"
                         inkscape:connector-curvature="0"
                         style="fill:#ffffff;stroke:none" />
                    </g>
                  </g>
                  <g
                     id="g7910"
                     class="com.sun.star.drawing.ClosedBezierShape">
                    <g
                       id="id5">
                      <rect
                         id="rect7913"
                         height="10544"
                         width="10544"
                         y="9577"
                         x="4835"
                         class="BoundingBox"
                         style="fill:none;stroke:none" />
                      <path
                         id="path7915"
                         d="m 10107,9577 c 2903,0 5271,2367 5271,5272 0,2903 -2368,5271 -5271,5271 -2905,0 -5272,-2368 -5272,-5271 0,-2905 2367,-5272 5272,-5272 z"
                         inkscape:connector-curvature="0"
                         style="fill:#005589;stroke:none" />
                    </g>
                  </g>
                  <g
                     id="g7917"
                     class="com.sun.star.drawing.ClosedBezierShape">
                    <g
                       id="id6">
                      <rect
                         id="rect7920"
                         height="14223"
                         width="14321"
                         y="7787"
                         x="2947"
                         class="BoundingBox"
                         style="fill:none;stroke:none" />
                      <path
                         id="path7922"
                         d="m 3064,13837 1463,128 -114,1305 -315,-28 71,-815 -233,-20 -66,753 -311,-27 65,-754 -283,-24 -74,846 -319,-28 116,-1336 z m 0,0 0,0 z m 521,2200 -4,1 -41,6 c -55,12 -90,45 -107,100 -17,53 -13,130 10,230 17,76 42,133 74,170 33,38 68,52 107,43 58,-13 86,-109 85,-288 l -1,-47 0,-50 c -5,-283 19,-471 71,-565 24,-44 57,-81 100,-113 21,-15 43,-28 67,-38 23,-10 50,-19 82,-26 139,-32 260,5 364,112 103,107 182,280 237,520 55,236 61,420 17,549 -42,129 -136,211 -279,244 l -17,4 -103,-448 7,-1 c 48,-11 80,-43 96,-94 7,-25 11,-55 10,-89 -1,-34 -7,-73 -18,-119 -15,-68 -37,-119 -63,-151 -26,-33 -56,-45 -90,-37 -59,14 -87,123 -85,328 l 2,93 c 1,150 -3,255 -11,317 -9,61 -23,117 -44,169 -24,56 -60,103 -107,141 -48,38 -103,64 -165,79 -146,33 -273,-9 -383,-126 -109,-117 -193,-303 -252,-556 -58,-251 -62,-442 -13,-571 50,-130 157,-214 324,-252 l 21,-5 109,470 z m 0,0 0,0 z m 1199,1504 -266,154 139,242 c 33,57 69,93 106,108 39,14 80,8 126,-18 43,-25 67,-58 74,-99 6,-40 -7,-89 -40,-145 l -139,-242 z m 0,0 0,0 z m -1253,154 1272,-735 450,781 c 99,171 140,313 124,426 -16,113 -91,207 -225,285 -134,77 -262,97 -383,58 -122,-38 -225,-130 -309,-276 l -219,-379 -463,267 -247,-427 z m 0,0 0,0 z m 1862,1485 c -103,108 -157,212 -161,312 -3,101 43,198 140,291 97,94 196,138 297,133 101,-5 202,-60 303,-164 109,-113 167,-223 174,-332 8,-108 -38,-209 -136,-304 -90,-87 -189,-125 -297,-114 -109,10 -215,70 -320,178 z m 0,0 0,0 z m -245,801 c -210,-203 -324,-403 -342,-601 -18,-198 59,-387 233,-567 169,-174 355,-253 561,-236 205,18 415,130 629,337 212,204 329,408 350,610 20,202 -58,393 -232,574 -171,176 -357,254 -560,235 -203,-19 -416,-137 -639,-352 z m 0,0 0,0 z m 2168,101 -133,262 248,127 c 60,30 109,42 147,35 39,-7 70,-33 93,-78 23,-45 26,-85 10,-120 -16,-35 -55,-68 -117,-99 l -248,-127 z m 0,0 0,0 z m -971,821 668,-1309 750,382 c 79,40 144,75 195,104 53,30 91,54 117,74 52,38 90,80 114,124 24,44 36,95 34,154 -2,59 -17,116 -45,172 -44,87 -109,142 -193,166 -85,24 -181,15 -288,-29 52,27 94,55 125,84 32,30 56,61 71,94 29,58 26,131 -7,218 l -87,230 c -12,31 -23,67 -33,107 l -30,137 -454,-232 c 2,-13 4,-27 7,-40 3,-14 8,-33 16,-58 8,-24 12,-38 13,-41 7,-19 16,-39 26,-58 l 79,-188 c 15,-29 24,-55 27,-77 3,-23 1,-43 -6,-62 -12,-32 -53,-66 -122,-101 l -276,-141 -262,513 -439,-223 z m 0,0 0,0 z m 2337,907 219,-1125 -537,-104 62,-317 1565,304 -62,317 -537,-105 -218,1125 -492,-95 z m 0,0 0,0 z m 1547,199 -179,-1458 1300,-159 38,314 -811,100 28,232 751,-92 38,310 -750,92 34,283 842,-104 39,319 -1330,163 z m 0,0 0,0 z m 3037,-1874 c -43,-57 -94,-91 -152,-102 -58,-11 -123,2 -195,38 -113,58 -182,139 -207,242 -24,103 -3,220 64,353 65,127 145,209 241,248 95,38 199,28 310,-29 81,-41 137,-94 166,-158 29,-64 30,-137 4,-220 l 464,-236 c 70,178 63,341 -22,488 -85,146 -255,284 -507,413 -243,124 -461,163 -655,118 -194,-45 -343,-170 -447,-374 -114,-223 -132,-431 -53,-625 78,-194 246,-356 505,-488 227,-116 419,-165 576,-147 82,8 154,31 215,70 65,41 117,99 155,174 l -462,235 z m 0,0 0,0 z m 2041,-863 222,231 -912,881 -1021,-1057 362,-348 797,826 552,-533 z m 0,0 0,0 z m -720,-886 243,-421 725,418 c 105,60 197,81 276,62 79,-19 148,-79 207,-180 56,-98 72,-186 49,-266 -23,-79 -87,-149 -190,-209 l -725,-418 237,-409 719,415 c 197,114 309,256 335,424 26,169 -33,378 -176,626 -143,247 -292,400 -448,459 -155,58 -333,30 -533,-86 l -719,-415 z m 0,0 0,0 z m 1263,-1989 299,69 58,-252 c 14,-62 12,-110 -6,-147 -18,-36 -51,-60 -101,-71 -48,-11 -88,-4 -121,21 -33,24 -57,67 -71,128 l -58,252 z m 0,0 0,0 z m 536,124 315,72 67,-290 c 16,-68 14,-123 -4,-165 -19,-41 -54,-67 -105,-79 -52,-12 -95,-4 -130,25 -34,29 -60,78 -76,147 l -67,290 z m 0,0 0,0 z m 498,604 -1431,-330 204,-887 c 13,-55 24,-100 35,-137 10,-36 21,-66 32,-91 11,-25 21,-47 32,-65 11,-18 24,-35 40,-53 39,-43 86,-73 141,-87 55,-15 116,-15 183,1 80,18 141,56 182,115 41,58 65,141 73,249 56,-114 121,-192 194,-233 73,-40 161,-49 263,-25 125,29 213,88 262,179 49,91 56,210 22,357 l -232,1007 z m 0,0 0,0 z m 383,-2001 -1463,128 -114,-1305 316,-28 71,815 233,-21 -66,-753 312,-27 65,753 284,-25 -74,-845 320,-28 116,1336 z m 0,0 0,0 z M 4679,11159 c -66,-28 -127,-32 -182,-13 -56,20 -106,63 -150,131 -69,107 -89,211 -59,312 31,102 108,193 233,274 119,78 230,109 332,95 101,-15 186,-75 255,-180 49,-77 71,-150 64,-220 -7,-70 -43,-134 -107,-193 l 283,-436 c 150,119 225,264 225,434 0,169 -77,373 -231,610 -149,229 -318,373 -509,431 -190,58 -382,24 -574,-101 -210,-136 -330,-308 -359,-515 -29,-206 36,-432 194,-675 139,-214 281,-352 425,-415 75,-35 149,-50 221,-47 78,3 151,28 221,74 l -282,434 z m 0,0 0,0 z m 880,-1315 193,222 211,-183 c 50,-44 80,-85 87,-123 9,-38 -4,-77 -37,-115 -33,-38 -69,-56 -108,-54 -38,2 -83,25 -135,70 l -211,183 z m 0,0 0,0 z m 398,1207 -964,-1109 636,-552 c 66,-58 122,-105 169,-142 47,-37 84,-64 112,-81 55,-33 108,-53 158,-59 49,-6 101,3 155,26 54,24 102,59 143,107 64,73 91,153 82,241 -10,87 -55,173 -135,256 44,-38 86,-67 125,-85 39,-18 77,-28 115,-30 64,-5 130,24 199,88 l 180,166 c 24,23 54,47 87,72 l 116,78 -385,335 c -12,-7 -23,-14 -35,-22 -12,-8 -27,-20 -47,-36 -19,-17 -31,-26 -33,-28 -16,-14 -31,-29 -45,-46 l -145,-144 c -21,-24 -42,-42 -62,-53 -20,-12 -39,-18 -59,-18 -34,-1 -81,24 -140,76 l -234,203 378,434 -371,323 z m 0,0 0,0 z m 810,-2465 451,-183 313,776 c 46,112 106,186 180,219 74,34 165,29 274,-15 104,-42 172,-102 202,-179 31,-77 24,-171 -21,-281 l -314,-776 439,-177 311,770 c 85,212 86,392 3,541 -84,149 -259,277 -525,385 -264,107 -476,135 -634,85 -159,-49 -282,-181 -368,-395 l -311,-770 z m 0,0 0,0 z m 2915,363 893,-15 5,320 -1463,26 -7,-404 814,-756 -782,13 -6,-322 1391,-24 7,390 -852,772 z m 0,0 0,0 z m 1147,340 305,-1436 1280,272 -66,309 -799,-170 -49,229 739,157 -65,306 -739,-157 -59,279 830,176 -67,314 -1310,-279 z m 0,0 0,0 z m 1498,421 667,-1309 447,228 -666,1309 -448,-228 z m 0,0 0,0 z m 1828,-273 -181,231 220,172 c 53,41 99,62 138,62 39,1 74,-18 105,-58 32,-40 43,-79 33,-116 -9,-37 -41,-77 -95,-120 l -220,-171 z m 0,0 0,0 z m -1109,620 905,-1158 664,519 c 69,54 126,100 171,139 46,39 79,71 101,95 43,47 73,95 88,143 15,48 17,100 4,158 -13,57 -39,111 -78,160 -59,77 -133,119 -221,126 -87,8 -180,-20 -277,-83 46,36 82,71 108,107 25,35 42,70 51,105 17,63 1,133 -49,213 l -129,209 c -17,28 -35,61 -53,98 l -55,129 -402,-314 c 4,-13 9,-25 15,-38 5,-14 14,-31 27,-53 12,-23 19,-35 21,-38 10,-18 22,-36 36,-53 l 114,-169 c 20,-25 33,-49 41,-71 7,-21 9,-42 5,-61 -5,-34 -39,-75 -100,-124 l -244,-190 -356,453 -387,-302 z m 0,0 0,0 z m 2202,1117 c -126,81 -201,171 -227,268 -27,97 -3,202 70,315 73,113 160,178 260,196 100,18 210,-13 331,-91 132,-86 214,-181 245,-285 32,-104 10,-213 -64,-327 -68,-105 -156,-164 -264,-178 -108,-14 -225,20 -351,102 z m 0,0 0,0 z m -420,725 c -158,-245 -224,-465 -198,-662 27,-197 145,-364 355,-500 203,-132 403,-167 599,-104 197,63 376,219 538,469 161,248 228,472 202,673 -26,202 -144,371 -354,508 -205,133 -405,167 -598,103 -194,-65 -375,-227 -544,-487 z"
                         inkscape:connector-curvature="0"
                         style="fill:#005589;stroke:none" />
                    </g>
                  </g>
                  <g
                     id="g7924"
                     class="com.sun.star.drawing.PolyPolygonShape">
                    <g
                       id="id7">
                      <rect
                         id="rect7927"
                         height="8777"
                         width="7967"
                         y="10625"
                         x="6200"
                         class="BoundingBox"
                         style="fill:none;stroke:none" />
                      <path
                         id="path7929"
                         d="m 10483,17807 195,609 643,0 -524,378 204,607 -524,-369 -514,369 198,-603 -526,-384 650,0 198,-607 z m 0,0 0,0 z m 2845,-4397 195,610 643,0 -524,378 204,607 -524,-369 -513,369 198,-603 -526,-385 649,1 198,-608 z m 0,0 0,0 z m -2210,1374 123,386 407,0 -331,239 129,385 -332,-234 -324,234 125,-382 -333,-243 411,0 125,-385 z m 0,0 0,0 z m -1113,-4158 197,609 642,0 -523,378 203,607 -524,-369 -513,369 198,-603 -527,-384 650,0 197,-607 z m 0,0 0,0 z m -2959,2938 196,610 642,0 -523,378 203,607 -523,-369 -513,369 198,-603 -526,-384 649,0 197,-608 z"
                         inkscape:connector-curvature="0"
                         style="fill:#ffffff;stroke:none" />
                    </g>
                  </g>
                </g>
              </g>
            </g>
          </g>
        </g>
      </g>
    </g>
  </g>
</svg>
