<?xml version="1.0" encoding="UTF-8" standalone="no"?>
<!-- Created with Inkscape (http://www.inkscape.org/) -->

<svg
   xmlns:dc="http://purl.org/dc/elements/1.1/"
   xmlns:cc="http://creativecommons.org/ns#"
   xmlns:rdf="http://www.w3.org/1999/02/22-rdf-syntax-ns#"
   xmlns:svg="http://www.w3.org/2000/svg"
   xmlns="http://www.w3.org/2000/svg"
   xmlns:sodipodi="http://sodipodi.sourceforge.net/DTD/sodipodi-0.dtd"
   xmlns:inkscape="http://www.inkscape.org/namespaces/inkscape"
   width="210mm"
   height="297mm"
   viewBox="0 0 210 297"
   id="svg3392"
   version="1.1"
   inkscape:version="0.91 r13725"
   sodipodi:docname="flamengo.svg">
  <defs
     id="defs3">
    <clipPath
       clipPathUnits="userSpaceOnUse"
       id="presentation_clip_path">
      <rect
         id="rect3403"
         height="29700"
         width="21000"
         y="0"
         x="0" />
    </clipPath>
    <clipPath
       clipPathUnits="userSpaceOnUse"
       id="presentation_clip_path-3">
      <rect
         id="rect3646"
         height="29700"
         width="21000"
         y="0"
         x="0" />
    </clipPath>
    <clipPath
       clipPathUnits="userSpaceOnUse"
       id="presentation_clip_path-6">
      <rect
         id="rect3870"
         height="29700"
         width="21000"
         y="0"
         x="0" />
    </clipPath>
    <clipPath
       clipPathUnits="userSpaceOnUse"
       id="presentation_clip_path-7">
      <rect
         id="rect4072"
         height="29700"
         width="21000"
         y="0"
         x="0" />
    </clipPath>
    <clipPath
       clipPathUnits="userSpaceOnUse"
       id="presentation_clip_path-5">
      <rect
         id="rect4318"
         height="29700"
         width="21000"
         y="0"
         x="0" />
    </clipPath>
    <clipPath
       clipPathUnits="userSpaceOnUse"
       id="presentation_clip_path-2">
      <rect
         id="rect4911"
         height="29700"
         width="21000"
         y="0"
         x="0" />
    </clipPath>
    <clipPath
       clipPathUnits="userSpaceOnUse"
       id="presentation_clip_path-70">
      <rect
         id="rect5036"
         height="29700"
         width="21000"
         y="0"
         x="0" />
    </clipPath>
    <clipPath
       clipPathUnits="userSpaceOnUse"
       id="presentation_clip_path-0">
      <rect
         id="rect5689"
         height="29700"
         width="21000"
         y="0"
         x="0" />
    </clipPath>
    <clipPath
       clipPathUnits="userSpaceOnUse"
       id="presentation_clip_path-1">
      <rect
         id="rect7541"
         height="29700"
         width="21000"
         y="0"
         x="0" />
    </clipPath>
    <clipPath
       clipPathUnits="userSpaceOnUse"
       id="presentation_clip_path-20">
      <rect
         id="rect7845"
         height="29700"
         width="21000"
         y="0"
         x="0" />
    </clipPath>
    <clipPath
       clipPathUnits="userSpaceOnUse"
       id="presentation_clip_path-59">
      <rect
         id="rect7992"
         height="29700"
         width="21000"
         y="0"
         x="0" />
    </clipPath>
  </defs>
  <sodipodi:namedview
     inkscape:document-units="mm"
     id="base"
     pagecolor="#ffffff"
     bordercolor="#666666"
     borderopacity="1.0"
     inkscape:pageopacity="0.0"
     inkscape:pageshadow="2"
     inkscape:zoom="0.7"
     inkscape:cx="544.82403"
     inkscape:cy="519.70902"
     inkscape:current-layer="g4227"
     showgrid="false"
     inkscape:window-width="1619"
     inkscape:window-height="1026"
     inkscape:window-x="61"
     inkscape:window-y="24"
     inkscape:window-maximized="1" />
  <metadata
     id="metadata4">
    <rdf:RDF>
      <cc:Work
         rdf:about="">
        <dc:format>image/svg+xml</dc:format>
        <dc:type
           rdf:resource="http://purl.org/dc/dcmitype/StillImage" />
        <dc:title></dc:title>
      </cc:Work>
    </rdf:RDF>
  </metadata>
  <g
     inkscape:label="Layer 1"
     inkscape:groupmode="layer"
     id="layer1">
    <g
       style="fill-rule:evenodd;stroke-width:28.22200012;stroke-linejoin:round"
       id="g4227"
       transform="matrix(0.01289609,0,0,0.01246524,-25.418202,-58.864864)">
      <g
         id="g4109">
        <g
           class="Master_Slide"
           id="id2">
          <g
             class="Background"
             id="bg-id2" />
          <g
             class="BackgroundObjects"
             id="bo-id2" />
        </g>
      </g>
      <g
         style="fill-rule:evenodd;stroke-width:28.22200012;stroke-linejoin:round"
         id="g8070"
         transform="matrix(1.2648754,0,0,1.2563485,-2671.092,-1768.8134)">
        <g
           id="g8029">
          <g
             class="Master_Slide"
             id="id2-2">
            <g
               class="Background"
               id="bg-id2-2" />
            <g
               class="BackgroundObjects"
               id="bo-id2-8" />
          </g>
        </g>
        <g
           id="g8034"
           class="SlideGroup">
          <g
             id="g8036">
            <g
               clip-path="url(#presentation_clip_path-59)"
               class="Slide"
               id="id1">
              <g
                 id="g8039"
                 class="Page">
                <g
                   id="g8041"
                   class="Group">
                  <g
                     id="g8043"
                     class="com.sun.star.drawing.ClosedBezierShape">
                    <g
                       id="id3">
                      <rect
                         id="rect8046"
                         height="15325"
                         width="12874"
                         y="7210"
                         x="3670"
                         class="BoundingBox"
                         style="fill:none;stroke:none" />
                      <path
                         id="path8048"
                         d="M 10107,22534 C 8113,21755 6515,20681 5400,19188 4242,17638 3670,15638 3670,12855 l 0,-5645 12873,0 0,5645 c 0,2783 -572,4783 -1731,6333 -1115,1493 -2713,2567 -4705,3346 z"
                         inkscape:connector-curvature="0"
                         style="fill:#1b1918;stroke:none" />
                    </g>
                  </g>
                  <g
                     id="g8050"
                     class="com.sun.star.drawing.ClosedBezierShape">
                    <g
                       id="id4">
                      <rect
                         id="rect8053"
                         height="14474"
                         width="12059"
                         y="7619"
                         x="4077"
                         class="BoundingBox"
                         style="fill:none;stroke:none" />
                      <path
                         id="path8055"
                         d="m 10105,22092 c -895,-358 -1711,-778 -2434,-1282 l 4870,0 c -724,504 -1540,924 -2436,1282 z m 0,0 0,0 z M 5775,18990 c -382,-516 -706,-1092 -965,-1737 l 10591,0 c -259,645 -582,1221 -964,1737 l -8662,0 z m 0,0 0,0 z M 4254,15227 c -88,-529 -144,-1094 -166,-1696 l 12035,0 c -22,602 -78,1167 -166,1696 l -11703,0 z m 0,0 0,0 z m 6063,-5650 5818,0 0,1994 -5818,0 0,-1994 z m 0,0 0,0 z m -6240,-1958 5830,0 0,5505 -5830,0 0,-5505 z"
                         inkscape:connector-curvature="0"
                         style="fill:#e51e15;stroke:none" />
                    </g>
                  </g>
                  <g
                     id="g8057"
                     class="com.sun.star.drawing.ClosedBezierShape">
                    <g
                       id="id5">
                      <rect
                         id="rect8060"
                         height="5130"
                         width="5604"
                         y="7837"
                         x="4189"
                         class="BoundingBox"
                         style="fill:none;stroke:none" />
                      <path
                         id="path8062"
                         d="m 7963,12876 c -141,-45 -314,-431 -307,-616 l 0,-27 c -185,-313 -372,-565 -501,-724 l 0,815 c -10,274 -77,449 -274,545 161,23 409,56 557,-164 41,95 319,242 525,171 z m 0,0 0,0 z m 503,-1817 c 50,114 84,314 -230,566 382,-50 556,-192 572,-377 30,-344 -84,-347 -5,-810 27,-159 124,-268 295,-406 -357,53 -573,230 -685,624 l -756,-3 0,-1341 237,0 c -22,-148 -66,-293 -156,-454 l -362,0 c -183,-1 -263,-72 -440,-8 128,75 221,175 221,287 l 0,1544 c 169,86 344,226 482,378 l 827,0 z m 0,0 0,0 z m 323,-1747 386,-1 c 0,215 248,644 617,656 -186,-268 -260,-454 -177,-821 183,-478 40,-859 -176,-912 41,134 68,524 -155,625 l -717,-1 c 69,230 170,416 222,454 z m 0,0 0,0 z m -1748,2748 c -1526,547 -2205,-196 -2623,-1298 -60,-142 -63,-237 -229,-343 186,-61 218,-175 247,-292 103,-746 567,-1378 1293,-1607 l 0,368 c -515,257 -792,940 -772,1578 22,721 697,1470 1378,1453 224,-5 479,-32 707,-202 l -1,343 z m 0,0 0,0 z M 6462,8401 c 111,-7 230,-12 357,-14 -29,163 -86,793 168,1006 -49,103 -181,219 -308,216 -86,-2 -112,-41 -156,-104 -22,-31 -42,-62 -61,-93 l 0,-1011 z m 0,0 0,0 z m -118,2614 -1,785 c -51,6 -111,6 -187,-9 -81,-16 -198,-46 -313,-118 l 0,-3281 c 0,-202 -151,-384 -409,-487 250,-160 727,-12 805,169 250,-161 546,-237 840,-235 562,5 1115,304 1325,876 111,301 165,610 389,723 -61,33 -108,74 -150,128 -115,149 -187,376 -376,653 -74,110 -165,219 -276,322 l -221,0 0,-266 c 157,-253 242,-569 238,-877 -6,-448 -354,-1136 -1151,-1182 -228,-13 -424,57 -513,114 l 0,2272 c 466,0 804,166 1056,386 241,212 410,484 559,765 213,403 360,754 622,746 195,-9 286,-103 371,-226 87,402 -222,570 -413,574 -205,4 -447,-168 -604,-392 -234,-335 -462,-810 -788,-1123 -364,-350 -621,-318 -803,-317 z m 0,0 0,0 z m 45,1332 c 54,217 159,476 345,592 -481,-5 -516,-172 -585,-246 -115,116 -292,304 -658,268 207,-192 296,-383 332,-620 179,28 398,35 566,6 z"
                         inkscape:connector-curvature="0"
                         style="fill:#ffffff;stroke:none" />
                    </g>
                  </g>
                </g>
              </g>
            </g>
          </g>
        </g>
      </g>
    </g>
  </g>
</svg>
