<?xml version="1.0" encoding="UTF-8" standalone="no"?>
<!-- Created with Inkscape (http://www.inkscape.org/) -->

<svg
   xmlns:dc="http://purl.org/dc/elements/1.1/"
   xmlns:cc="http://creativecommons.org/ns#"
   xmlns:rdf="http://www.w3.org/1999/02/22-rdf-syntax-ns#"
   xmlns:svg="http://www.w3.org/2000/svg"
   xmlns="http://www.w3.org/2000/svg"
   xmlns:sodipodi="http://sodipodi.sourceforge.net/DTD/sodipodi-0.dtd"
   xmlns:inkscape="http://www.inkscape.org/namespaces/inkscape"
   width="210mm"
   height="297mm"
   viewBox="0 0 210 297"
   id="svg3392"
   version="1.1"
   inkscape:version="0.91 r13725"
   sodipodi:docname="fluminense.svg">
  <defs
     id="defs3">
    <clipPath
       clipPathUnits="userSpaceOnUse"
       id="presentation_clip_path">
      <rect
         id="rect3403"
         height="29700"
         width="21000"
         y="0"
         x="0" />
    </clipPath>
    <clipPath
       clipPathUnits="userSpaceOnUse"
       id="presentation_clip_path-3">
      <rect
         id="rect3646"
         height="29700"
         width="21000"
         y="0"
         x="0" />
    </clipPath>
    <clipPath
       clipPathUnits="userSpaceOnUse"
       id="presentation_clip_path-6">
      <rect
         id="rect3870"
         height="29700"
         width="21000"
         y="0"
         x="0" />
    </clipPath>
    <clipPath
       clipPathUnits="userSpaceOnUse"
       id="presentation_clip_path-7">
      <rect
         id="rect4072"
         height="29700"
         width="21000"
         y="0"
         x="0" />
    </clipPath>
    <clipPath
       clipPathUnits="userSpaceOnUse"
       id="presentation_clip_path-5">
      <rect
         id="rect4318"
         height="29700"
         width="21000"
         y="0"
         x="0" />
    </clipPath>
    <clipPath
       clipPathUnits="userSpaceOnUse"
       id="presentation_clip_path-2">
      <rect
         id="rect4911"
         height="29700"
         width="21000"
         y="0"
         x="0" />
    </clipPath>
    <clipPath
       clipPathUnits="userSpaceOnUse"
       id="presentation_clip_path-70">
      <rect
         id="rect5036"
         height="29700"
         width="21000"
         y="0"
         x="0" />
    </clipPath>
    <clipPath
       clipPathUnits="userSpaceOnUse"
       id="presentation_clip_path-0">
      <rect
         id="rect5689"
         height="29700"
         width="21000"
         y="0"
         x="0" />
    </clipPath>
    <clipPath
       clipPathUnits="userSpaceOnUse"
       id="presentation_clip_path-1">
      <rect
         id="rect7541"
         height="29700"
         width="21000"
         y="0"
         x="0" />
    </clipPath>
    <clipPath
       clipPathUnits="userSpaceOnUse"
       id="presentation_clip_path-20">
      <rect
         id="rect7845"
         height="29700"
         width="21000"
         y="0"
         x="0" />
    </clipPath>
    <clipPath
       clipPathUnits="userSpaceOnUse"
       id="presentation_clip_path-59">
      <rect
         id="rect7992"
         height="29700"
         width="21000"
         y="0"
         x="0" />
    </clipPath>
    <clipPath
       clipPathUnits="userSpaceOnUse"
       id="presentation_clip_path-9">
      <rect
         id="rect8117"
         height="29700"
         width="21000"
         y="0"
         x="0" />
    </clipPath>
  </defs>
  <sodipodi:namedview
     inkscape:document-units="mm"
     id="base"
     pagecolor="#ffffff"
     bordercolor="#666666"
     borderopacity="1.0"
     inkscape:pageopacity="0.0"
     inkscape:pageshadow="2"
     inkscape:zoom="0.7"
     inkscape:cx="544.82403"
     inkscape:cy="519.70902"
     inkscape:current-layer="g4227"
     showgrid="false"
     inkscape:window-width="1619"
     inkscape:window-height="1026"
     inkscape:window-x="61"
     inkscape:window-y="24"
     inkscape:window-maximized="1" />
  <metadata
     id="metadata4">
    <rdf:RDF>
      <cc:Work
         rdf:about="">
        <dc:format>image/svg+xml</dc:format>
        <dc:type
           rdf:resource="http://purl.org/dc/dcmitype/StillImage" />
        <dc:title></dc:title>
      </cc:Work>
    </rdf:RDF>
  </metadata>
  <g
     inkscape:label="Layer 1"
     inkscape:groupmode="layer"
     id="layer1">
    <g
       style="fill-rule:evenodd;stroke-width:28.22200012;stroke-linejoin:round"
       id="g4227"
       transform="matrix(0.01289609,0,0,0.01246524,-25.418202,-58.864864)">
      <g
         id="g4109">
        <g
           class="Master_Slide"
           id="id2">
          <g
             class="Background"
             id="bg-id2" />
          <g
             class="BackgroundObjects"
             id="bo-id2" />
        </g>
      </g>
      <g
         style="fill-rule:evenodd;stroke-width:28.22200012;stroke-linejoin:round"
         id="g8213"
         transform="matrix(0.86977917,0,0,0.86191872,1191.6786,3344.1345)">
        <g
           id="g8154">
          <g
             class="Master_Slide"
             id="id2-7">
            <g
               class="Background"
               id="bg-id2-3" />
            <g
               class="BackgroundObjects"
               id="bo-id2-6" />
          </g>
        </g>
        <g
           id="g8159"
           class="SlideGroup">
          <g
             id="g8161">
            <g
               clip-path="url(#presentation_clip_path-9)"
               class="Slide"
               id="id1">
              <g
                 id="g8164"
                 class="Page">
                <g
                   id="g8166"
                   class="Group">
                  <g
                     id="g8168"
                     class="Group">
                    <g
                       id="g8170"
                       class="com.sun.star.drawing.ClosedBezierShape">
                      <g
                         id="id3">
                        <rect
                           id="rect8173"
                           height="22338"
                           width="18722"
                           y="4112"
                           x="896"
                           class="BoundingBox"
                           style="fill:none;stroke:none" />
                        <path
                           id="path8175"
                           d="M 19608,7806 C 15918,8505 12798,7275 10255,4112 7716,7279 4600,8509 909,7806 c -74,2634 180,5038 763,7218 26,135 82,329 165,584 1342,4562 4148,8179 8418,10841 4263,-2662 7069,-6279 8430,-10841 78,-318 127,-509 153,-584 576,-2169 830,-4577 770,-7218 z"
                           inkscape:connector-curvature="0"
                           style="fill:#a01632;stroke:none" />
                      </g>
                    </g>
                  </g>
                  <g
                     id="g8177"
                     class="Group">
                    <g
                       id="g8179"
                       class="com.sun.star.drawing.ClosedBezierShape">
                      <g
                         id="id4">
                        <rect
                           id="rect8182"
                           height="20737"
                           width="17546"
                           y="5021"
                           x="1484"
                           class="BoundingBox"
                           style="fill:none;stroke:none" />
                        <path
                           id="path8184"
                           d="M 19029,8494 C 15626,8939 12708,7784 10263,5021 7813,7784 4888,8947 1485,8494 c -14,2304 232,4435 752,6380 0,4 0,15 4,22 26,120 78,300 153,532 0,8 0,8 7,12 1268,4315 3887,7755 7854,10317 3960,-2562 6579,-6002 7865,-10317 73,-293 123,-484 151,-570 l -1,4 c 508,-1933 766,-4065 759,-6380 z"
                           inkscape:connector-curvature="0"
                           style="fill:#ffffff;stroke:none" />
                      </g>
                    </g>
                    <g
                       id="g8186"
                       class="com.sun.star.drawing.ClosedBezierShape">
                      <g
                         id="id5">
                        <rect
                           id="rect8189"
                           height="21"
                           width="8"
                           y="14852"
                           x="18268"
                           class="BoundingBox"
                           style="fill:none;stroke:none" />
                        <path
                           id="path8191"
                           d="m 18268,14872 7,-20 c -2,6 -5,12 -7,20 z"
                           inkscape:connector-curvature="0"
                           style="fill:#ffffff;stroke:none" />
                      </g>
                    </g>
                  </g>
                  <g
                     id="g8193"
                     class="com.sun.star.drawing.ClosedBezierShape">
                    <g
                       id="id6">
                      <rect
                         id="rect8196"
                         height="8842"
                         width="15933"
                         y="6188"
                         x="2288"
                         class="BoundingBox"
                         style="fill:none;stroke:none" />
                      <path
                         id="path8198"
                         d="M 10262,6188 C 7972,8484 5314,9549 2289,9373 c 48,1901 287,3666 718,5293 7,30 11,60 14,86 19,71 49,164 86,277 l 1530,0 c 37,-53 75,-101 101,-150 579,-984 1316,-1720 2210,-2210 26,-15 52,-30 78,-41 333,-176 685,-314 1051,-423 26,-7 53,-18 79,-26 209,-56 426,-105 650,-142 l 0,882 c -228,49 -441,109 -650,172 -26,4 -53,15 -79,27 -389,123 -737,276 -1051,456 -26,19 -52,30 -78,45 -621,366 -1088,834 -1410,1410 l 1488,0 0,-1362 c 314,-183 662,-336 1051,-463 l 0,1772 c 210,-41 449,-78 729,-105 27,-7 53,-7 79,-11 295,-33 632,-60 998,-75 26,-7 53,-7 79,-7 134,-4 273,-11 416,-15 26,-4 52,-4 82,-4 4,-26 8,-48 15,-74 38,-176 90,-363 157,-561 l -749,0 0,579 c -366,19 -703,45 -998,75 l 0,-3179 c 325,-89 658,-149 998,-179 l 0,2240 1419,0 396,516 c -165,161 -292,322 -389,486 -15,26 -30,52 -41,79 26,0 56,0 90,0 160,-4 325,-4 497,-4 26,97 52,191 79,292 l 5470,0 c 30,-131 56,-240 79,-315 7,-15 7,-26 11,-41 430,-1626 669,-3391 726,-5300 -3022,169 -5673,-889 -7958,-3185 z m 0,0 0,0 z m -1377,5333 c -26,4 -52,15 -79,19 -250,71 -489,160 -729,269 l 0,314 c -366,101 -718,239 -1051,415 l 0,-609 c -142,-180 -351,-270 -624,-266 l 621,-621 c 706,45 1207,8 1507,-104 86,-38 179,-64 288,-90 26,-11 52,-15 86,-19 250,-60 546,-112 893,-149 27,-8 60,-8 86,-8 26,-4 53,-4 79,-4 435,-26 981,27 1635,150 -49,187 -52,381 -19,591 -561,-90 -1099,-112 -1616,-75 -26,0 -53,0 -79,4 -340,33 -673,89 -998,183 z m 0,0 0,0 z m 2996,1155 c -632,-101 -1267,-86 -1919,42 l 0,-789 c 592,-19 1194,11 1803,93 38,79 71,153 116,232 4,19 23,26 38,34 3,3 15,3 22,3 -30,135 -49,262 -60,385 z m 0,0 0,0 z m -22,-639 c -15,-34 -26,-60 -41,-86 -71,-153 -120,-303 -146,-449 -4,-26 -11,-52 -15,-78 -34,-206 -26,-404 22,-591 4,-26 15,-49 19,-75 97,-304 295,-588 598,-846 -213,-150 -389,-314 -531,-501 -445,206 -1073,389 -1882,531 l 0,651 c -33,0 -63,0 -97,3 -336,39 -628,87 -871,147 15,-625 -296,-977 -924,-1044 l 598,-598 c 1081,100 2204,-42 3359,-431 438,431 1029,819 1777,1156 -161,49 -236,138 -232,277 -239,-75 -419,-75 -542,0 -277,161 -494,415 -658,767 -19,26 -30,49 -38,75 -71,165 -134,352 -183,557 -4,30 -19,49 -23,75 -26,123 -52,258 -71,396 0,27 0,53 -7,79 -4,52 -15,108 -23,161 -37,-60 -63,-116 -89,-176 z m 0,0 0,0 z m 149,1294 c -48,-180 -67,-367 -52,-561 0,-26 0,-52 4,-79 18,-198 56,-403 127,-617 4,-26 19,-52 30,-82 48,-142 116,-284 190,-434 -52,-18 -108,-26 -153,-37 45,-209 109,-396 183,-561 520,71 961,34 1317,-112 l 303,550 c -502,164 -857,418 -1074,777 -18,23 -26,41 -37,68 -101,183 -165,389 -194,620 -4,27 -4,53 -4,79 l 0,4 c -4,71 -11,134 -11,205 0,382 145,685 430,909 -580,49 -932,-198 -1059,-729 z m 0,0 0,0 z m 3168,1290 c -516,78 -913,19 -1193,-183 -165,-154 -281,-318 -344,-501 -109,-314 -228,-539 -367,-677 -134,-131 -310,-254 -538,-367 26,-228 86,-437 187,-617 471,187 1036,281 1694,299 -49,105 0,255 153,445 -389,49 -591,165 -602,348 -86,587 187,830 808,741 273,11 411,86 415,224 -38,165 -105,258 -213,288 z"
                         inkscape:connector-curvature="0"
                         style="fill:#a01632;stroke:none" />
                    </g>
                  </g>
                  <g
                     id="g8200"
                     class="com.sun.star.drawing.ClosedBezierShape">
                    <g
                       id="id7">
                      <rect
                         id="rect8203"
                         height="9545"
                         width="13946"
                         y="15252"
                         x="3283"
                         class="BoundingBox"
                         style="fill:none;stroke:none" />
                      <path
                         id="path8205"
                         d="m 15167,15611 c -37,-57 -63,-113 -74,-173 -8,-63 -19,-127 -27,-186 l -130,153 c -45,71 -101,134 -157,206 l -2783,0 c 8,164 -3,332 -26,501 -90,-221 -217,-386 -392,-501 -120,-79 -258,-143 -412,-176 -30,-8 -52,-11 -78,-15 0,7 0,18 0,37 0,11 0,23 3,41 8,38 8,75 15,113 64,276 262,568 591,878 l -175,101 c -72,109 -72,217 0,318 -505,-202 -853,-516 -1025,-946 -52,-108 -75,-224 -94,-351 -3,-57 -7,-109 -15,-169 0,-22 0,-52 0,-78 -26,-4 -52,-4 -78,-4 -113,0 -225,4 -349,7 -26,0 -52,0 -78,8 -300,15 -629,52 -999,120 -26,3 -52,3 -78,7 -176,30 -363,67 -550,109 -64,7 -127,18 -191,33 -11,583 -63,1167 -164,1754 -4,26 -11,49 -15,75 -64,347 -146,699 -240,1043 -7,26 -18,52 -22,82 -49,165 -97,329 -150,494 378,37 670,280 890,737 -112,240 -239,453 -388,633 0,-4 0,-4 -4,-12 -284,-569 -748,-805 -1399,-696 l -370,-453 c 221,-198 404,-534 538,-1021 4,-26 15,-56 19,-82 82,-295 139,-639 183,-1028 4,-34 4,-60 8,-86 45,-430 71,-928 75,-1473 l -1545,0 c 311,710 771,1219 1388,1521 -49,393 -109,741 -176,1033 -871,-438 -1582,-1141 -2135,-2109 -131,-225 -258,-374 -386,-445 l -889,0 c 1207,3784 3537,6847 6970,9185 3426,-2338 5756,-5401 6975,-9185 l -2061,0 z m 0,0 0,0 z m -6283,-38 c 370,-60 699,-105 999,-116 l 0,2128 c -352,15 -685,11 -999,-15 l 0,-1997 z m 0,0 0,0 z m -793,5102 c 199,-49 397,-71 580,-75 168,363 381,688 639,968 -531,-149 -934,-445 -1219,-893 z m 0,0 0,0 z m 1881,190 c -392,-231 -807,-351 -1252,-351 -27,0 -56,0 -83,7 -194,4 -389,30 -587,79 -26,4 -52,15 -78,22 -19,4 -30,4 -38,12 8,-12 19,-23 27,-30 15,-19 37,-41 56,-64 145,-176 276,-381 396,-610 15,-34 26,-68 41,-98 139,-314 251,-673 329,-1069 337,15 688,4 1055,-34 -15,292 30,554 123,782 251,625 1015,1186 2278,1680 -893,146 -1649,37 -2267,-326 z m 0,0 0,0 z m 6190,-3792 c -389,-75 -744,-202 -1077,-382 -441,217 -665,610 -669,1186 -812,-42 -1567,48 -2270,265 -793,258 -1533,423 -2222,497 -26,4 -53,4 -79,12 -362,37 -710,48 -1043,30 -26,-4 -56,-4 -82,-4 -344,-23 -681,-71 -995,-138 97,-348 176,-700 239,-1044 262,68 543,116 842,142 26,8 52,8 78,11 314,27 651,27 999,12 26,0 52,0 78,-8 603,-37 1250,-131 1949,-295 1276,-307 2267,-890 2973,-1746 45,-57 86,-109 127,-169 8,60 27,112 56,169 154,258 636,407 1451,433 -433,314 -553,655 -355,1029 z"
                         inkscape:connector-curvature="0"
                         style="fill:#4e6c1b;stroke:none" />
                    </g>
                  </g>
                </g>
              </g>
            </g>
          </g>
        </g>
      </g>
    </g>
  </g>
</svg>
