<?xml version="1.0" encoding="UTF-8" standalone="no"?>
<!-- Created with Inkscape (http://www.inkscape.org/) -->

<svg
   xmlns:dc="http://purl.org/dc/elements/1.1/"
   xmlns:cc="http://creativecommons.org/ns#"
   xmlns:rdf="http://www.w3.org/1999/02/22-rdf-syntax-ns#"
   xmlns:svg="http://www.w3.org/2000/svg"
   xmlns="http://www.w3.org/2000/svg"
   xmlns:sodipodi="http://sodipodi.sourceforge.net/DTD/sodipodi-0.dtd"
   xmlns:inkscape="http://www.inkscape.org/namespaces/inkscape"
   width="210mm"
   height="297mm"
   viewBox="0 0 210 297"
   id="svg3392"
   version="1.1"
   inkscape:version="0.91 r13725"
   sodipodi:docname="gremio.svg">
  <defs
     id="defs3">
    <clipPath
       clipPathUnits="userSpaceOnUse"
       id="presentation_clip_path">
      <rect
         id="rect3403"
         height="29700"
         width="21000"
         y="0"
         x="0" />
    </clipPath>
    <clipPath
       clipPathUnits="userSpaceOnUse"
       id="presentation_clip_path-3">
      <rect
         id="rect3646"
         height="29700"
         width="21000"
         y="0"
         x="0" />
    </clipPath>
    <clipPath
       clipPathUnits="userSpaceOnUse"
       id="presentation_clip_path-6">
      <rect
         id="rect3870"
         height="29700"
         width="21000"
         y="0"
         x="0" />
    </clipPath>
    <clipPath
       clipPathUnits="userSpaceOnUse"
       id="presentation_clip_path-7">
      <rect
         id="rect4072"
         height="29700"
         width="21000"
         y="0"
         x="0" />
    </clipPath>
    <clipPath
       clipPathUnits="userSpaceOnUse"
       id="presentation_clip_path-5">
      <rect
         id="rect4318"
         height="29700"
         width="21000"
         y="0"
         x="0" />
    </clipPath>
    <clipPath
       clipPathUnits="userSpaceOnUse"
       id="presentation_clip_path-2">
      <rect
         id="rect4911"
         height="29700"
         width="21000"
         y="0"
         x="0" />
    </clipPath>
    <clipPath
       clipPathUnits="userSpaceOnUse"
       id="presentation_clip_path-70">
      <rect
         id="rect5036"
         height="29700"
         width="21000"
         y="0"
         x="0" />
    </clipPath>
    <clipPath
       clipPathUnits="userSpaceOnUse"
       id="presentation_clip_path-0">
      <rect
         id="rect5689"
         height="29700"
         width="21000"
         y="0"
         x="0" />
    </clipPath>
    <clipPath
       clipPathUnits="userSpaceOnUse"
       id="presentation_clip_path-1">
      <rect
         id="rect7541"
         height="29700"
         width="21000"
         y="0"
         x="0" />
    </clipPath>
    <clipPath
       clipPathUnits="userSpaceOnUse"
       id="presentation_clip_path-20">
      <rect
         id="rect7845"
         height="29700"
         width="21000"
         y="0"
         x="0" />
    </clipPath>
    <clipPath
       clipPathUnits="userSpaceOnUse"
       id="presentation_clip_path-59">
      <rect
         id="rect7992"
         height="29700"
         width="21000"
         y="0"
         x="0" />
    </clipPath>
    <clipPath
       clipPathUnits="userSpaceOnUse"
       id="presentation_clip_path-9">
      <rect
         id="rect8117"
         height="29700"
         width="21000"
         y="0"
         x="0" />
    </clipPath>
    <clipPath
       clipPathUnits="userSpaceOnUse"
       id="presentation_clip_path-12">
      <rect
         id="rect8270"
         height="29700"
         width="21000"
         y="0"
         x="0" />
    </clipPath>
  </defs>
  <sodipodi:namedview
     inkscape:document-units="mm"
     id="base"
     pagecolor="#ffffff"
     bordercolor="#666666"
     borderopacity="1.0"
     inkscape:pageopacity="0.0"
     inkscape:pageshadow="2"
     inkscape:zoom="0.7"
     inkscape:cx="544.82403"
     inkscape:cy="519.70902"
     inkscape:current-layer="g4227"
     showgrid="false"
     inkscape:window-width="1619"
     inkscape:window-height="1026"
     inkscape:window-x="61"
     inkscape:window-y="24"
     inkscape:window-maximized="1" />
  <metadata
     id="metadata4">
    <rdf:RDF>
      <cc:Work
         rdf:about="">
        <dc:format>image/svg+xml</dc:format>
        <dc:type
           rdf:resource="http://purl.org/dc/dcmitype/StillImage" />
        <dc:title></dc:title>
      </cc:Work>
    </rdf:RDF>
  </metadata>
  <g
     inkscape:label="Layer 1"
     inkscape:groupmode="layer"
     id="layer1">
    <g
       style="fill-rule:evenodd;stroke-width:28.22200012;stroke-linejoin:round"
       id="g4227"
       transform="matrix(0.01289609,0,0,0.01246524,-25.418202,-58.864864)">
      <g
         id="g4109">
        <g
           class="Master_Slide"
           id="id2">
          <g
             class="Background"
             id="bg-id2" />
          <g
             class="BackgroundObjects"
             id="bo-id2" />
        </g>
      </g>
      <g
         style="fill-rule:evenodd;stroke-width:28.22200012;stroke-linejoin:round"
         id="g8516"
         transform="matrix(0.9008135,0,0,0.91217598,1166.5743,1958.5171)">
        <g
           id="g8307">
          <g
             class="Master_Slide"
             id="id2-9">
            <g
               class="Background"
               id="bg-id2-3" />
            <g
               class="BackgroundObjects"
               id="bo-id2-1" />
          </g>
        </g>
        <g
           id="g8312"
           class="SlideGroup">
          <g
             id="g8314">
            <g
               clip-path="url(#presentation_clip_path-12)"
               class="Slide"
               id="id1">
              <g
                 id="g8317"
                 class="Page">
                <g
                   id="g8319"
                   class="Group">
                  <g
                     id="g8321"
                     class="com.sun.star.drawing.ClosedBezierShape">
                    <g
                       id="id3">
                      <rect
                         id="rect8324"
                         height="18076"
                         width="18077"
                         y="7996"
                         x="893"
                         class="BoundingBox"
                         style="fill:none;stroke:none" />
                      <path
                         id="path8326"
                         d="m 18969,17033 c 0,4992 -4046,9038 -9038,9038 -4992,0 -9037,-4046 -9037,-9038 0,-4992 4045,-9037 9037,-9037 4992,0 9038,4045 9038,9037 z"
                         inkscape:connector-curvature="0"
                         style="fill:#1b1918;stroke:none" />
                    </g>
                  </g>
                  <g
                     id="g8328"
                     class="com.sun.star.drawing.ClosedBezierShape">
                    <g
                       id="id4">
                      <rect
                         id="rect8331"
                         height="17244"
                         width="17244"
                         y="8412"
                         x="1310"
                         class="BoundingBox"
                         style="fill:none;stroke:none" />
                      <path
                         id="path8333"
                         d="m 18553,17034 c 0,4761 -3860,8621 -8621,8621 -4763,0 -8622,-3860 -8622,-8621 0,-4763 3859,-8622 8622,-8622 4761,0 8621,3859 8621,8622 z"
                         inkscape:connector-curvature="0"
                         style="fill:#ffffff;stroke:none" />
                    </g>
                  </g>
                  <g
                     id="g8335"
                     class="com.sun.star.drawing.ClosedBezierShape">
                    <g
                       id="id5">
                      <rect
                         id="rect8338"
                         height="1229"
                         width="4905"
                         y="23940"
                         x="7480"
                         class="BoundingBox"
                         style="fill:none;stroke:none" />
                      <path
                         id="path8340"
                         d="m 7480,24791 c 773,244 1597,377 2451,377 856,0 1679,-133 2453,-377 -692,-536 -1538,-851 -2453,-851 -913,0 -1759,315 -2451,851 z"
                         inkscape:connector-curvature="0"
                         style="fill:#0092cf;stroke:none" />
                    </g>
                  </g>
                  <g
                     id="g8342"
                     class="com.sun.star.drawing.ClosedBezierShape">
                    <g
                       id="id6">
                      <rect
                         id="rect8345"
                         height="1229"
                         width="4905"
                         y="8899"
                         x="7480"
                         class="BoundingBox"
                         style="fill:none;stroke:none" />
                      <path
                         id="path8347"
                         d="m 12384,9275 c -774,-244 -1597,-376 -2453,-376 -854,0 -1678,132 -2451,376 692,536 1538,852 2451,852 915,0 1760,-316 2453,-852 z"
                         inkscape:connector-curvature="0"
                         style="fill:#0092cf;stroke:none" />
                    </g>
                  </g>
                  <g
                     id="g8349"
                     class="com.sun.star.drawing.ClosedBezierShape">
                    <g
                       id="id7">
                      <rect
                         id="rect8352"
                         height="4420"
                         width="4935"
                         y="9424"
                         x="11278"
                         class="BoundingBox"
                         style="fill:none;stroke:none" />
                      <path
                         id="path8354"
                         d="m 13051,13843 c 1194,-437 2268,-1118 3161,-1980 -894,-1085 -2064,-1933 -3403,-2439 -450,386 -968,685 -1531,870 911,662 1585,1973 1773,3549 z"
                         inkscape:connector-curvature="0"
                         style="fill:#0092cf;stroke:none" />
                    </g>
                  </g>
                  <g
                     id="g8356"
                     class="com.sun.star.drawing.ClosedBezierShape">
                    <g
                       id="id8">
                      <rect
                         id="rect8359"
                         height="4420"
                         width="4935"
                         y="9424"
                         x="3651"
                         class="BoundingBox"
                         style="fill:none;stroke:none" />
                      <path
                         id="path8361"
                         d="m 8585,10294 c -564,-185 -1082,-484 -1532,-870 -1339,506 -2509,1354 -3402,2439 892,862 1966,1543 3160,1980 188,-1576 863,-2887 1774,-3549 z"
                         inkscape:connector-curvature="0"
                         style="fill:#0092cf;stroke:none" />
                    </g>
                  </g>
                  <g
                     id="g8363"
                     class="com.sun.star.drawing.ClosedBezierShape">
                    <g
                       id="id9">
                      <rect
                         id="rect8366"
                         height="4420"
                         width="4935"
                         y="20224"
                         x="3651"
                         class="BoundingBox"
                         style="fill:none;stroke:none" />
                      <path
                         id="path8368"
                         d="m 6811,20224 c -1194,437 -2268,1118 -3160,1980 893,1085 2063,1933 3402,2439 450,-386 968,-685 1532,-870 -911,-663 -1586,-1973 -1774,-3549 z"
                         inkscape:connector-curvature="0"
                         style="fill:#0092cf;stroke:none" />
                    </g>
                  </g>
                  <g
                     id="g8370"
                     class="com.sun.star.drawing.ClosedBezierShape">
                    <g
                       id="id10">
                      <rect
                         id="rect8373"
                         height="4420"
                         width="4935"
                         y="20224"
                         x="11278"
                         class="BoundingBox"
                         style="fill:none;stroke:none" />
                      <path
                         id="path8375"
                         d="m 13051,20224 c -188,1576 -862,2886 -1773,3549 563,185 1081,484 1531,870 1339,-506 2509,-1354 3403,-2439 -893,-862 -1967,-1543 -3161,-1980 z"
                         inkscape:connector-curvature="0"
                         style="fill:#0092cf;stroke:none" />
                    </g>
                  </g>
                  <g
                     id="g8377"
                     class="com.sun.star.drawing.ClosedBezierShape">
                    <g
                       id="id11">
                      <rect
                         id="rect8380"
                         height="9734"
                         width="16271"
                         y="12167"
                         x="1797"
                         class="BoundingBox"
                         style="fill:none;stroke:none" />
                      <path
                         id="path8382"
                         d="m 16450,21900 c 1015,-1357 1616,-3042 1616,-4866 0,-1826 -601,-3510 -1616,-4867 -1686,1616 -3986,2614 -6518,2614 -2534,0 -4833,-998 -6520,-2614 -1015,1357 -1615,3041 -1615,4867 0,1824 600,3509 1615,4866 1687,-1617 3986,-2615 6520,-2615 2532,0 4832,998 6518,2615 z"
                         inkscape:connector-curvature="0"
                         style="fill:#1b1918;stroke:none" />
                    </g>
                  </g>
                  <g
                     id="g8384"
                     class="com.sun.star.drawing.ClosedBezierShape">
                    <g
                       id="id12">
                      <rect
                         id="rect8387"
                         height="1267"
                         width="724"
                         y="12280"
                         x="10872"
                         class="BoundingBox"
                         style="fill:none;stroke:none" />
                      <path
                         id="path8389"
                         d="m 11400,12847 c 90,-29 171,-121 171,-267 0,-90 -24,-163 -81,-219 -57,-57 -131,-81 -236,-81 -211,0 -286,120 -350,202 l 146,98 c 65,-82 132,-106 171,-106 73,0 138,60 138,138 0,57 -20,95 -57,130 -29,28 -73,49 -138,49 l -56,0 0,171 81,0 c 65,0 115,15 146,57 24,33 48,74 48,154 0,152 -89,178 -154,178 -42,0 -72,-4 -97,-24 -31,-26 -57,-65 -73,-106 l -187,73 c 24,81 64,146 129,187 58,41 139,65 236,65 106,0 196,-33 261,-98 65,-73 97,-162 97,-283 0,-90 -29,-266 -195,-318 z"
                         inkscape:connector-curvature="0"
                         style="fill:#1b1918;stroke:none" />
                    </g>
                  </g>
                  <g
                     id="g8391"
                     class="com.sun.star.drawing.ClosedBezierShape">
                    <g
                       id="id13">
                      <rect
                         id="rect8394"
                         height="1275"
                         width="700"
                         y="12280"
                         x="9119"
                         class="BoundingBox"
                         style="fill:none;stroke:none" />
                      <path
                         id="path8396"
                         d="m 9818,12815 c 0,236 -41,423 -114,544 -56,98 -138,162 -244,187 -26,6 -61,8 -89,8 -66,0 -122,-17 -195,-65 l 73,-162 c 39,18 89,32 130,32 50,0 98,-24 139,-73 40,-48 65,-130 81,-235 -45,37 -73,73 -179,73 -90,0 -163,-32 -219,-105 -57,-73 -81,-172 -81,-293 0,-146 32,-252 89,-325 56,-73 146,-113 251,-121 l 8,0 c 123,0 212,48 269,137 57,90 81,219 81,398 z m 0,0 0,0 z m -358,122 c 53,0 81,-28 98,-65 18,-40 25,-98 25,-171 0,-73 -6,-134 -25,-170 -21,-42 -56,-57 -98,-57 -34,0 -72,20 -89,57 -22,47 -32,112 -32,170 0,117 33,236 121,236 z"
                         inkscape:connector-curvature="0"
                         style="fill:#1b1918;stroke:none" />
                    </g>
                  </g>
                  <g
                     id="g8398"
                     class="com.sun.star.drawing.PolyPolygonShape">
                    <g
                       id="id14">
                      <rect
                         id="rect8401"
                         height="1211"
                         width="667"
                         y="12305"
                         x="8268"
                         class="BoundingBox"
                         style="fill:none;stroke:none" />
                      <path
                         id="path8403"
                         d="m 8284,12402 0,162 219,-65 0,829 -235,0 0,187 666,0 0,-187 -219,0 0,-1023 -431,97 z"
                         inkscape:connector-curvature="0"
                         style="fill:#1b1918;stroke:none" />
                    </g>
                  </g>
                  <g
                     id="g8405"
                     class="com.sun.star.drawing.PolyPolygonShape">
                    <g
                       id="id15">
                      <rect
                         id="rect8408"
                         height="1219"
                         width="854"
                         y="20780"
                         x="10767"
                         class="BoundingBox"
                         style="fill:none;stroke:none" />
                      <path
                         id="path8410"
                         d="m 11319,20780 -252,0 -300,1218 202,0 74,-300 284,0 65,300 228,0 -301,-1218 z m 0,0 0,0 z m -235,722 73,-357 26,-138 4,0 24,130 75,365 -202,0 z"
                         inkscape:connector-curvature="0"
                         style="fill:#1b1918;stroke:none" />
                    </g>
                  </g>
                  <g
                     id="g8412"
                     class="com.sun.star.drawing.PolyPolygonShape">
                    <g
                       id="id16">
                      <rect
                         id="rect8415"
                         height="1202"
                         width="675"
                         y="20797"
                         x="8244"
                         class="BoundingBox"
                         style="fill:none;stroke:none" />
                      <path
                         id="path8417"
                         d="m 8244,20797 0,1201 227,0 0,-519 309,0 0,-196 -309,0 0,-292 447,0 0,-194 -674,0 z"
                         inkscape:connector-curvature="0"
                         style="fill:#1b1918;stroke:none" />
                    </g>
                  </g>
                  <g
                     id="g8419"
                     class="com.sun.star.drawing.ClosedBezierShape">
                    <g
                       id="id17">
                      <rect
                         id="rect8422"
                         height="730"
                         width="1223"
                         y="14835"
                         x="8518"
                         class="BoundingBox"
                         style="fill:none;stroke:none" />
                      <path
                         id="path8424"
                         d="m 8903,14835 c 0,0 436,8 455,8 8,16 358,671 381,715 -44,0 -257,0 -257,0 l -349,-449 -371,455 c 0,0 -201,-5 -244,-6 23,-43 385,-723 385,-723 z"
                         inkscape:connector-curvature="0"
                         style="fill:#ffffff;stroke:none" />
                    </g>
                  </g>
                  <g
                     id="g8426"
                     class="com.sun.star.drawing.ClosedBezierShape">
                    <g
                       id="id18">
                      <rect
                         id="rect8429"
                         height="3118"
                         width="2889"
                         y="15775"
                         x="14647"
                         class="BoundingBox"
                         style="fill:none;stroke:none" />
                      <path
                         id="path8431"
                         d="m 15040,18467 c -265,-280 -393,-652 -393,-1133 0,-480 132,-865 393,-1142 252,-276 606,-416 1050,-416 446,0 799,140 1052,416 264,281 393,655 393,1142 0,481 -129,853 -393,1133 l 0,0 c -250,274 -604,417 -1052,425 -439,0 -793,-143 -1050,-425 z m 0,0 0,0 z m 422,-1915 c -151,193 -223,448 -223,782 0,328 72,581 222,772 149,191 354,283 629,283 276,0 482,-92 631,-283 149,-191 222,-444 222,-772 0,-334 -73,-589 -222,-782 l -1,0 c -150,-184 -356,-274 -630,-274 -264,0 -470,90 -628,274 z"
                         inkscape:connector-curvature="0"
                         style="fill:#ffffff;stroke:none" />
                    </g>
                  </g>
                  <g
                     id="g8433"
                     class="com.sun.star.drawing.ClosedBezierShape">
                    <g
                       id="id19">
                      <rect
                         id="rect8436"
                         height="2946"
                         width="586"
                         y="15857"
                         x="13820"
                         class="BoundingBox"
                         style="fill:none;stroke:none" />
                      <path
                         id="path8438"
                         d="m 14405,15857 c 0,32 0,2913 0,2945 -30,0 -555,0 -585,0 0,-32 0,-2913 0,-2945 30,0 555,0 585,0 z"
                         inkscape:connector-curvature="0"
                         style="fill:#ffffff;stroke:none" />
                    </g>
                  </g>
                  <g
                     id="g8440"
                     class="com.sun.star.drawing.ClosedBezierShape">
                    <g
                       id="id20">
                      <rect
                         id="rect8443"
                         height="2946"
                         width="2970"
                         y="15857"
                         x="10471"
                         class="BoundingBox"
                         style="fill:none;stroke:none" />
                      <path
                         id="path8445"
                         d="m 13440,15857 c 0,32 0,2913 0,2945 -30,0 -514,0 -543,0 0,-32 0,-2386 0,-2386 l -33,-4 c 0,0 -599,2366 -605,2390 -23,0 -576,0 -600,0 -6,-24 -613,-2390 -613,-2390 l -32,4 c 0,0 0,2354 0,2386 -30,0 -514,0 -543,0 0,-32 0,-2913 0,-2945 30,0 855,0 879,0 6,24 606,2311 606,2311 0,0 598,-2287 604,-2311 24,0 849,0 880,0 z"
                         inkscape:connector-curvature="0"
                         style="fill:#ffffff;stroke:none" />
                    </g>
                  </g>
                  <g
                     id="g8447"
                     class="com.sun.star.drawing.ClosedBezierShape">
                    <g
                       id="id21">
                      <rect
                         id="rect8450"
                         height="2946"
                         width="2208"
                         y="15857"
                         x="8062"
                         class="BoundingBox"
                         style="fill:none;stroke:none" />
                      <path
                         id="path8452"
                         d="m 10187,15857 c 0,29 0,449 0,478 -31,0 -1558,0 -1558,0 l 0,673 c 0,0 1397,0 1429,0 0,30 0,450 0,480 -32,0 -1429,0 -1429,0 l 0,795 c 0,0 1608,0 1640,0 0,29 0,489 0,519 -32,0 -2176,0 -2207,0 0,-32 0,-2913 0,-2945 31,0 2094,0 2125,0 z"
                         inkscape:connector-curvature="0"
                         style="fill:#ffffff;stroke:none" />
                    </g>
                  </g>
                  <g
                     id="g8454"
                     class="com.sun.star.drawing.ClosedBezierShape">
                    <g
                       id="id22">
                      <rect
                         id="rect8457"
                         height="2946"
                         width="2436"
                         y="15857"
                         x="5384"
                         class="BoundingBox"
                         style="fill:none;stroke:none" />
                      <path
                         id="path8459"
                         d="m 6821,15857 c 325,0 564,66 711,198 151,135 230,352 230,629 0,170 -39,324 -111,446 -68,113 -177,195 -324,245 l -48,16 48,15 c 125,39 220,109 275,204 52,81 78,213 87,430 l 16,365 c 9,184 44,285 114,331 0,9 0,46 0,66 -31,0 -626,0 -646,0 -22,-48 -33,-84 -42,-122 -11,-48 -23,-109 -26,-235 l -8,-317 c -9,-195 -44,-317 -110,-384 -59,-68 -175,-102 -344,-102 l -675,0 c 0,0 0,1128 0,1160 -29,0 -554,0 -583,0 0,-32 0,-2913 0,-2945 31,0 1436,0 1436,0 z m 0,0 0,0 z m -836,478 -17,0 0,819 740,0 c 160,0 284,-35 359,-101 74,-58 111,-163 111,-312 0,-130 -36,-230 -110,-304 -77,-68 -187,-102 -328,-102 l -755,0 z"
                         inkscape:connector-curvature="0"
                         style="fill:#ffffff;stroke:none" />
                    </g>
                  </g>
                  <g
                     id="g8461"
                     class="com.sun.star.drawing.ClosedBezierShape">
                    <g
                       id="id23">
                      <rect
                         id="rect8464"
                         height="3118"
                         width="2735"
                         y="15775"
                         x="2327"
                         class="BoundingBox"
                         style="fill:none;stroke:none" />
                      <path
                         id="path8466"
                         d="m 2712,18460 c -256,-280 -385,-662 -385,-1134 0,-474 125,-842 384,-1126 250,-282 593,-424 1020,-424 375,0 672,86 906,264 232,184 369,423 412,710 -38,0 -576,0 -595,0 -38,-135 -122,-262 -235,-347 -117,-88 -273,-133 -464,-133 -260,0 -458,93 -606,282 l 0,1 c -142,193 -214,450 -214,765 0,328 73,581 222,772 159,194 371,291 630,291 204,0 367,-60 498,-183 131,-107 214,-268 248,-480 l 3,-19 c 0,0 -645,0 -676,0 0,-30 0,-449 0,-479 32,0 1170,0 1201,0 0,32 0,1551 0,1583 -29,0 -361,0 -385,0 -4,-24 -77,-372 -77,-372 l -22,30 c -105,145 -231,255 -375,327 -130,69 -294,104 -488,104 -410,0 -747,-145 -1002,-432 z"
                         inkscape:connector-curvature="0"
                         style="fill:#ffffff;stroke:none" />
                    </g>
                  </g>
                  <g
                     id="g8468"
                     class="com.sun.star.drawing.PolyPolygonShape">
                    <g
                       id="id24">
                      <rect
                         id="rect8471"
                         height="2901"
                         width="3050"
                         y="4525"
                         x="8407"
                         class="BoundingBox"
                         style="fill:none;stroke:none" />
                      <path
                         id="path8473"
                         d="m 9931,4525 360,1108 1165,0 -942,684 360,1108 -943,-684 -942,684 360,-1108 -942,-684 1165,0 359,-1108 z"
                         inkscape:connector-curvature="0"
                         style="fill:#c5c7c9;stroke:none" />
                    </g>
                  </g>
                  <g
                     id="g8475"
                     class="com.sun.star.drawing.PolyPolygonShape">
                    <g
                       id="id25">
                      <rect
                         id="rect8478"
                         height="2902"
                         width="3051"
                         y="5329"
                         x="3737"
                         class="BoundingBox"
                         style="fill:none;stroke:none" />
                      <path
                         id="path8480"
                         d="m 5262,5330 360,1108 1165,0 -942,684 360,1108 -943,-684 -942,684 360,-1108 -942,-684 1165,0 359,-1108 z"
                         inkscape:connector-curvature="0"
                         style="fill:#ac8654;stroke:none" />
                    </g>
                  </g>
                  <g
                     id="g8482"
                     class="com.sun.star.drawing.PolyPolygonShape">
                    <g
                       id="id26">
                      <rect
                         id="rect8485"
                         height="2902"
                         width="3050"
                         y="5329"
                         x="13077"
                         class="BoundingBox"
                         style="fill:none;stroke:none" />
                      <path
                         id="path8487"
                         d="m 14601,5330 360,1108 1165,0 -943,684 361,1108 -943,-684 -942,684 360,-1108 -942,-684 1165,0 359,-1108 z"
                         inkscape:connector-curvature="0"
                         style="fill:#ffcb00;stroke:none" />
                    </g>
                  </g>
                  <g
                     id="g8489"
                     class="com.sun.star.drawing.ClosedBezierShape">
                    <g
                       id="id27">
                      <rect
                         id="rect8492"
                         height="1202"
                         width="708"
                         y="20797"
                         x="9088"
                         class="BoundingBox"
                         style="fill:none;stroke:none" />
                      <path
                         id="path8494"
                         d="m 9567,21356 c 74,24 131,58 171,115 41,56 57,121 57,202 0,106 -31,188 -105,244 -70,51 -162,81 -256,81 l -346,0 0,-1201 357,0 c 175,0 310,105 310,291 0,65 -17,122 -49,171 -31,47 -80,77 -139,97 z m 0,0 0,0 z m -178,-381 -73,0 0,308 73,0 c 94,0 146,-71 146,-162 0,-117 -52,-146 -146,-146 z m 0,0 0,0 z m 178,674 c 0,-77 -23,-121 -53,-149 -31,-29 -93,-38 -134,-38 l -64,0 0,357 118,0 c 59,0 133,-36 133,-170 z"
                         inkscape:connector-curvature="0"
                         style="fill:#1b1918;stroke:none" />
                    </g>
                  </g>
                  <g
                     id="g8496"
                     class="com.sun.star.drawing.ClosedBezierShape">
                    <g
                       id="id28">
                      <rect
                         id="rect8499"
                         height="1202"
                         width="683"
                         y="20797"
                         x="10012"
                         class="BoundingBox"
                         style="fill:none;stroke:none" />
                      <path
                         id="path8501"
                         d="m 10012,20797 0,1201 226,0 0,-454 106,0 c 98,-8 179,-41 244,-98 73,-74 106,-163 106,-285 0,-121 -33,-210 -98,-275 -56,-57 -145,-89 -252,-89 l -332,0 z m 0,0 0,0 z m 444,364 c 0,139 -64,211 -161,211 l -57,0 0,-397 57,0 c 85,0 161,37 161,186 z"
                         inkscape:connector-curvature="0"
                         style="fill:#1b1918;stroke:none" />
                    </g>
                  </g>
                  <g
                     id="g8503"
                     class="com.sun.star.drawing.ClosedBezierShape">
                    <g
                       id="id29">
                      <rect
                         id="rect8506"
                         height="1267"
                         width="748"
                         y="12280"
                         x="9996"
                         class="BoundingBox"
                         style="fill:none;stroke:none" />
                      <path
                         id="path8508"
                         d="m 10093,12450 c -65,105 -97,267 -97,471 0,203 32,357 97,463 65,105 154,162 276,162 122,0 211,-57 276,-162 65,-106 98,-260 98,-463 0,-204 -33,-366 -98,-471 -65,-114 -154,-170 -276,-170 -122,0 -211,56 -276,170 z m 0,0 0,0 z m 423,471 c 0,151 -9,272 -33,336 -24,63 -57,94 -115,94 -56,0 -89,-31 -113,-94 -25,-64 -32,-185 -32,-336 0,-157 7,-283 32,-350 24,-65 57,-97 113,-97 58,0 91,32 115,97 24,67 33,193 33,350 z"
                         inkscape:connector-curvature="0"
                         style="fill:#1b1918;stroke:none" />
                    </g>
                  </g>
                </g>
              </g>
            </g>
          </g>
        </g>
      </g>
    </g>
  </g>
</svg>
