<?xml version="1.0" encoding="UTF-8" standalone="no"?>
<!-- Created with Inkscape (http://www.inkscape.org/) -->

<svg
   xmlns:dc="http://purl.org/dc/elements/1.1/"
   xmlns:cc="http://creativecommons.org/ns#"
   xmlns:rdf="http://www.w3.org/1999/02/22-rdf-syntax-ns#"
   xmlns:svg="http://www.w3.org/2000/svg"
   xmlns="http://www.w3.org/2000/svg"
   xmlns:sodipodi="http://sodipodi.sourceforge.net/DTD/sodipodi-0.dtd"
   xmlns:inkscape="http://www.inkscape.org/namespaces/inkscape"
   width="210mm"
   height="297mm"
   viewBox="0 0 210 297"
   id="svg3392"
   version="1.1"
   inkscape:version="0.91 r13725"
   sodipodi:docname="pontePreta.svg">
  <defs
     id="defs3">
    <clipPath
       clipPathUnits="userSpaceOnUse"
       id="presentation_clip_path">
      <rect
         id="rect3403"
         height="29700"
         width="21000"
         y="0"
         x="0" />
    </clipPath>
    <clipPath
       clipPathUnits="userSpaceOnUse"
       id="presentation_clip_path-3">
      <rect
         id="rect3646"
         height="29700"
         width="21000"
         y="0"
         x="0" />
    </clipPath>
    <clipPath
       clipPathUnits="userSpaceOnUse"
       id="presentation_clip_path-6">
      <rect
         id="rect3870"
         height="29700"
         width="21000"
         y="0"
         x="0" />
    </clipPath>
    <clipPath
       clipPathUnits="userSpaceOnUse"
       id="presentation_clip_path-7">
      <rect
         id="rect4072"
         height="29700"
         width="21000"
         y="0"
         x="0" />
    </clipPath>
    <clipPath
       clipPathUnits="userSpaceOnUse"
       id="presentation_clip_path-5">
      <rect
         id="rect4318"
         height="29700"
         width="21000"
         y="0"
         x="0" />
    </clipPath>
    <clipPath
       clipPathUnits="userSpaceOnUse"
       id="presentation_clip_path-2">
      <rect
         id="rect4911"
         height="29700"
         width="21000"
         y="0"
         x="0" />
    </clipPath>
    <clipPath
       clipPathUnits="userSpaceOnUse"
       id="presentation_clip_path-70">
      <rect
         id="rect5036"
         height="29700"
         width="21000"
         y="0"
         x="0" />
    </clipPath>
    <clipPath
       clipPathUnits="userSpaceOnUse"
       id="presentation_clip_path-0">
      <rect
         id="rect5689"
         height="29700"
         width="21000"
         y="0"
         x="0" />
    </clipPath>
    <clipPath
       clipPathUnits="userSpaceOnUse"
       id="presentation_clip_path-1">
      <rect
         id="rect7541"
         height="29700"
         width="21000"
         y="0"
         x="0" />
    </clipPath>
    <clipPath
       clipPathUnits="userSpaceOnUse"
       id="presentation_clip_path-20">
      <rect
         id="rect7845"
         height="29700"
         width="21000"
         y="0"
         x="0" />
    </clipPath>
    <clipPath
       clipPathUnits="userSpaceOnUse"
       id="presentation_clip_path-59">
      <rect
         id="rect7992"
         height="29700"
         width="21000"
         y="0"
         x="0" />
    </clipPath>
    <clipPath
       clipPathUnits="userSpaceOnUse"
       id="presentation_clip_path-9">
      <rect
         id="rect8117"
         height="29700"
         width="21000"
         y="0"
         x="0" />
    </clipPath>
    <clipPath
       clipPathUnits="userSpaceOnUse"
       id="presentation_clip_path-12">
      <rect
         id="rect8270"
         height="29700"
         width="21000"
         y="0"
         x="0" />
    </clipPath>
    <clipPath
       clipPathUnits="userSpaceOnUse"
       id="presentation_clip_path-94">
      <rect
         id="rect8659"
         height="29700"
         width="21000"
         y="0"
         x="0" />
    </clipPath>
    <clipPath
       clipPathUnits="userSpaceOnUse"
       id="presentation_clip_path-50">
      <rect
         id="rect9257"
         height="29700"
         width="21000"
         y="0"
         x="0" />
    </clipPath>
  </defs>
  <sodipodi:namedview
     inkscape:document-units="mm"
     id="base"
     pagecolor="#ffffff"
     bordercolor="#666666"
     borderopacity="1.0"
     inkscape:pageopacity="0.0"
     inkscape:pageshadow="2"
     inkscape:zoom="0.7"
     inkscape:cx="544.82403"
     inkscape:cy="519.70902"
     inkscape:current-layer="g4227"
     showgrid="false"
     inkscape:window-width="1619"
     inkscape:window-height="1026"
     inkscape:window-x="61"
     inkscape:window-y="24"
     inkscape:window-maximized="1" />
  <metadata
     id="metadata4">
    <rdf:RDF>
      <cc:Work
         rdf:about="">
        <dc:format>image/svg+xml</dc:format>
        <dc:type
           rdf:resource="http://purl.org/dc/dcmitype/StillImage" />
        <dc:title></dc:title>
      </cc:Work>
    </rdf:RDF>
  </metadata>
  <g
     inkscape:label="Layer 1"
     inkscape:groupmode="layer"
     id="layer1">
    <g
       style="fill-rule:evenodd;stroke-width:28.22200012;stroke-linejoin:round"
       id="g4227"
       transform="matrix(0.01289609,0,0,0.01246524,-25.418202,-58.864864)">
      <g
         id="g4109">
        <g
           class="Master_Slide"
           id="id2">
          <g
             class="Background"
             id="bg-id2" />
          <g
             class="BackgroundObjects"
             id="bo-id2" />
        </g>
      </g>
      <g
         style="fill-rule:evenodd;stroke-width:28.22200012;stroke-linejoin:round"
         id="g9342"
         transform="matrix(0.93109987,0,0,0.95989333,636.73456,2258.7787)">
        <g
           id="g9294">
          <g
             class="Master_Slide"
             id="id2-3">
            <g
               class="Background"
               id="bg-id2-6" />
            <g
               class="BackgroundObjects"
               id="bo-id2-1" />
          </g>
        </g>
        <g
           id="g9299"
           class="SlideGroup">
          <g
             id="g9301">
            <g
               clip-path="url(#presentation_clip_path-50)"
               class="Slide"
               id="id1">
              <g
                 id="g9304"
                 class="Page">
                <g
                   id="g9306"
                   class="Group">
                  <g
                     id="g9308"
                     class="com.sun.star.drawing.ClosedBezierShape">
                    <g
                       id="id3">
                      <rect
                         id="rect9311"
                         height="20058"
                         width="17489"
                         y="4823"
                         x="1433"
                         class="BoundingBox"
                         style="fill:none;stroke:none" />
                      <path
                         id="path9313"
                         d="m 18920,17206 0,0 c -23,-1564 -541,-2733 -1041,-3862 -355,-855 -507,-1455 -557,-2208 40,-905 324,-1620 770,-2478 l 377,-725 -3232,-3110 -57,34 -661,397 C 13280,6000 11739,6425 10182,6453 8552,6482 7044,6086 5820,5307 l -722,-460 -3231,3079 374,728 c 319,619 541,1173 700,1746 36,245 54,473 54,697 0,851 -260,1583 -540,2247 -338,767 -760,1723 -962,2754 l -8,41 -5,42 c -32,270 -47,543 -47,814 0,1147 280,2249 810,3185 l 37,65 45,60 c 404,530 848,949 1358,1281 l 25,17 27,15 c 856,493 1751,826 2617,1147 1143,425 2223,826 3101,1550 l 685,565 694,-555 c 566,-453 1136,-786 1850,-1082 386,-158 783,-302 1203,-454 896,-325 1822,-661 2712,-1169 l 38,-21 36,-25 c 1750,-1194 2113,-2751 2245,-4256 l 5,-56 -1,-56 z"
                         inkscape:connector-curvature="0"
                         style="fill:#1b1918;stroke:none" />
                    </g>
                  </g>
                  <g
                     id="g9315"
                     class="com.sun.star.drawing.ClosedBezierShape">
                    <g
                       id="id4">
                      <rect
                         id="rect9318"
                         height="18624"
                         width="16361"
                         y="5530"
                         x="1996"
                         class="BoundingBox"
                         style="fill:none;stroke:none" />
                      <path
                         id="path9320"
                         d="M 14810,5738 C 13487,6534 11847,6988 10192,7018 8450,7049 6834,6622 5517,5783 l -350,-222 -2605,2483 181,352 c 343,667 582,1267 751,1887 43,281 64,549 64,806 0,884 -235,1651 -584,2477 -329,746 -738,1674 -928,2641 l -4,20 -2,20 c -29,250 -43,501 -43,749 0,1042 253,2053 737,2907 l 18,31 22,29 c 369,484 756,850 1217,1151 l 12,8 13,7 c 815,470 1689,794 2533,1108 1189,442 2311,859 3262,1643 l 332,273 336,-269 c 609,-487 1222,-845 1987,-1162 398,-163 819,-316 1226,-463 874,-317 1777,-644 2625,-1129 l 18,-10 17,-12 c 1470,-1002 1863,-2259 2001,-3839 l 3,-27 -1,-27 c -21,-1446 -516,-2566 -995,-3648 -387,-932 -552,-1593 -604,-2426 39,-1019 348,-1806 835,-2743 l 182,-351 -2616,-2517 -347,208 z"
                         inkscape:connector-curvature="0"
                         style="fill:#ffffff;stroke:none" />
                    </g>
                  </g>
                  <g
                     id="g9322"
                     class="com.sun.star.drawing.ClosedBezierShape">
                    <g
                       id="id5">
                      <rect
                         id="rect9325"
                         height="17639"
                         width="15584"
                         y="6015"
                         x="2386"
                         class="BoundingBox"
                         style="fill:none;stroke:none" />
                      <path
                         id="path9327"
                         d="m 17969,17220 c -19,-1275 -394,-2215 -965,-3503 -404,-970 -582,-1693 -635,-2574 39,-1097 379,-1963 879,-2925 l 49,-93 -2193,-2110 -92,55 C 13630,6900 11922,7374 10199,7405 8383,7437 6692,6989 5310,6110 l -94,-59 -2175,2073 48,94 c 360,699 610,1330 787,1984 49,314 72,610 72,894 0,941 -248,1752 -616,2623 -321,727 -722,1635 -904,2561 l -1,6 0,5 c -28,236 -41,471 -41,705 0,975 236,1919 687,2716 l 4,8 6,8 c 342,448 698,785 1121,1061 l 3,2 4,2 c 787,453 1645,772 2475,1080 1167,434 2373,882 3374,1707 l 88,73 90,-71 c 638,-511 1280,-887 2080,-1218 407,-167 832,-321 1243,-470 859,-311 1747,-633 2565,-1100 l 5,-3 5,-3 c 1343,-917 1704,-2084 1833,-3554 l 0,-7 0,-7 z m 0,0 0,0 z m -1391,-8244 -827,355 0,-2302 c 507,488 1118,1076 1199,1153 -138,269 -262,531 -372,794 z m 0,0 0,0 z M 6930,7193 c 657,224 1353,374 2077,446 l 0,4590 -2077,892 0,-5928 z m 0,0 0,0 z m 4382,415 c 733,-92 1452,-261 2133,-499 l 0,3212 -2133,918 0,-3631 z m 0,0 0,0 z m -7721,6223 c 382,-905 639,-1749 639,-2730 0,-302 -24,-616 -76,-950 l -1,-8 -2,-7 c -175,-647 -419,-1270 -764,-1953 84,-79 727,-692 1237,-1178 l 0,7106 -1412,607 c 126,-315 258,-614 379,-887 z m 0,0 0,0 z m -885,2498 c 83,-421 215,-841 363,-1243 L 16435,9345 c -200,559 -326,1137 -348,1795 l -1,7 1,6 c 43,741 177,1343 373,1926 l -2,-6 -13462,5801 c -216,-584 -328,-1223 -328,-1877 0,-222 13,-444 38,-668 z m 0,0 0,0 z m 6301,6222 c -672,-358 -1380,-628 -2077,-888 l 0,-4177 2077,-895 0,5960 z m 0,0 0,0 z M 3314,19565 c -78,-138 -149,-281 -213,-429 l 1523,-657 0,2220 c -90,-48 -180,-97 -269,-148 -391,-256 -722,-570 -1041,-986 z m 0,0 0,0 z m 8897,2538 c -322,133 -618,273 -899,426 l 0,-6931 2133,-920 0,6958 c -407,147 -828,300 -1234,467 z m 0,0 0,0 z m 3770,-1552 c -76,44 -153,85 -230,126 l 0,-6992 801,-345 c 60,162 124,324 193,488 557,1257 922,2172 942,3389 -126,1424 -456,2480 -1706,3334 z"
                         inkscape:connector-curvature="0"
                         style="fill:#1b1918;stroke:none" />
                    </g>
                  </g>
                  <g
                     id="g9329"
                     class="com.sun.star.drawing.ClosedBezierShape">
                    <g
                       id="id6">
                      <rect
                         id="rect9332"
                         height="7660"
                         width="12727"
                         y="10650"
                         x="3367"
                         class="BoundingBox"
                         style="fill:none;stroke:none" />
                      <path
                         id="path9334"
                         d="m 3367,18309 399,-2954 572,-247 1372,2172 -572,248 -248,-457 -914,400 -76,609 -533,229 z m 0,0 0,0 z m 666,-1353 610,-266 -496,-896 -114,1162 z m 0,0 0,0 z m 2477,-591 95,515 -514,229 -115,-514 534,-230 z m 0,0 0,0 z m 438,363 381,-2935 590,-266 1372,2190 -572,229 -247,-438 -915,381 -57,610 -552,229 z m 0,0 0,0 z m 667,-1335 609,-285 -495,-896 -114,1181 z m 0,0 0,0 z m 2477,-609 95,514 -534,248 -95,-533 534,-229 z m 0,0 0,0 z m 648,286 -496,-2554 1086,-476 c 229,-115 400,-115 553,-57 133,57 247,171 324,323 57,172 76,325 57,516 -20,171 -95,343 -191,476 -114,152 -248,267 -438,362 l -571,247 190,934 -514,229 z m 0,0 0,0 z m 247,-1582 496,-228 c 76,-19 133,-95 171,-153 76,-57 95,-152 95,-228 0,-95 0,-171 -38,-267 -38,-77 -114,-134 -171,-153 -76,0 -171,19 -286,57 l -438,192 171,780 z m 0,0 0,0 z m 2058,0 95,534 -533,229 -96,-534 534,-229 z m 0,0 0,0 z m 628,286 -476,-2553 1086,-477 c 209,-113 381,-113 533,-57 153,57 267,172 324,324 76,171 96,343 76,514 -19,172 -95,343 -190,495 -115,134 -248,248 -438,344 l -591,248 210,934 -534,228 z m 0,0 0,0 z m 267,-1582 496,-229 c 76,-19 133,-95 171,-152 57,-57 95,-152 95,-228 0,-96 0,-172 -57,-248 -38,-95 -95,-153 -153,-172 -76,0 -171,19 -285,58 l -438,190 171,781 z m 0,0 0,0 z m 2039,0 114,534 -533,229 -96,-534 515,-229 z"
                         inkscape:connector-curvature="0"
                         style="fill:#1b1918;stroke:none" />
                    </g>
                  </g>
                </g>
              </g>
            </g>
          </g>
        </g>
      </g>
    </g>
  </g>
</svg>
