<?xml version="1.0" encoding="UTF-8" standalone="no"?>
<!-- Created with Inkscape (http://www.inkscape.org/) -->

<svg
   xmlns:dc="http://purl.org/dc/elements/1.1/"
   xmlns:cc="http://creativecommons.org/ns#"
   xmlns:rdf="http://www.w3.org/1999/02/22-rdf-syntax-ns#"
   xmlns:svg="http://www.w3.org/2000/svg"
   xmlns="http://www.w3.org/2000/svg"
   xmlns:sodipodi="http://sodipodi.sourceforge.net/DTD/sodipodi-0.dtd"
   xmlns:inkscape="http://www.inkscape.org/namespaces/inkscape"
   width="210mm"
   height="297mm"
   viewBox="0 0 210 297"
   id="svg3392"
   version="1.1"
   inkscape:version="0.91 r13725"
   sodipodi:docname="santos.svg">
  <defs
     id="defs3">
    <clipPath
       clipPathUnits="userSpaceOnUse"
       id="presentation_clip_path">
      <rect
         id="rect3403"
         height="29700"
         width="21000"
         y="0"
         x="0" />
    </clipPath>
    <clipPath
       clipPathUnits="userSpaceOnUse"
       id="presentation_clip_path-3">
      <rect
         id="rect3646"
         height="29700"
         width="21000"
         y="0"
         x="0" />
    </clipPath>
    <clipPath
       clipPathUnits="userSpaceOnUse"
       id="presentation_clip_path-6">
      <rect
         id="rect3870"
         height="29700"
         width="21000"
         y="0"
         x="0" />
    </clipPath>
    <clipPath
       clipPathUnits="userSpaceOnUse"
       id="presentation_clip_path-7">
      <rect
         id="rect4072"
         height="29700"
         width="21000"
         y="0"
         x="0" />
    </clipPath>
    <clipPath
       clipPathUnits="userSpaceOnUse"
       id="presentation_clip_path-5">
      <rect
         id="rect4318"
         height="29700"
         width="21000"
         y="0"
         x="0" />
    </clipPath>
    <clipPath
       clipPathUnits="userSpaceOnUse"
       id="presentation_clip_path-2">
      <rect
         id="rect4911"
         height="29700"
         width="21000"
         y="0"
         x="0" />
    </clipPath>
    <clipPath
       clipPathUnits="userSpaceOnUse"
       id="presentation_clip_path-70">
      <rect
         id="rect5036"
         height="29700"
         width="21000"
         y="0"
         x="0" />
    </clipPath>
    <clipPath
       clipPathUnits="userSpaceOnUse"
       id="presentation_clip_path-0">
      <rect
         id="rect5689"
         height="29700"
         width="21000"
         y="0"
         x="0" />
    </clipPath>
    <clipPath
       clipPathUnits="userSpaceOnUse"
       id="presentation_clip_path-1">
      <rect
         id="rect7541"
         height="29700"
         width="21000"
         y="0"
         x="0" />
    </clipPath>
    <clipPath
       clipPathUnits="userSpaceOnUse"
       id="presentation_clip_path-20">
      <rect
         id="rect7845"
         height="29700"
         width="21000"
         y="0"
         x="0" />
    </clipPath>
    <clipPath
       clipPathUnits="userSpaceOnUse"
       id="presentation_clip_path-59">
      <rect
         id="rect7992"
         height="29700"
         width="21000"
         y="0"
         x="0" />
    </clipPath>
    <clipPath
       clipPathUnits="userSpaceOnUse"
       id="presentation_clip_path-9">
      <rect
         id="rect8117"
         height="29700"
         width="21000"
         y="0"
         x="0" />
    </clipPath>
    <clipPath
       clipPathUnits="userSpaceOnUse"
       id="presentation_clip_path-12">
      <rect
         id="rect8270"
         height="29700"
         width="21000"
         y="0"
         x="0" />
    </clipPath>
    <clipPath
       clipPathUnits="userSpaceOnUse"
       id="presentation_clip_path-94">
      <rect
         id="rect8659"
         height="29700"
         width="21000"
         y="0"
         x="0" />
    </clipPath>
    <clipPath
       clipPathUnits="userSpaceOnUse"
       id="presentation_clip_path-50">
      <rect
         id="rect9257"
         height="29700"
         width="21000"
         y="0"
         x="0" />
    </clipPath>
    <clipPath
       clipPathUnits="userSpaceOnUse"
       id="presentation_clip_path-06">
      <rect
         id="rect9393"
         height="29700"
         width="21000"
         y="0"
         x="0" />
    </clipPath>
  </defs>
  <sodipodi:namedview
     inkscape:document-units="mm"
     id="base"
     pagecolor="#ffffff"
     bordercolor="#666666"
     borderopacity="1.0"
     inkscape:pageopacity="0.0"
     inkscape:pageshadow="2"
     inkscape:zoom="0.7"
     inkscape:cx="544.82403"
     inkscape:cy="519.70902"
     inkscape:current-layer="g4227"
     showgrid="false"
     inkscape:window-width="1619"
     inkscape:window-height="1026"
     inkscape:window-x="61"
     inkscape:window-y="24"
     inkscape:window-maximized="1" />
  <metadata
     id="metadata4">
    <rdf:RDF>
      <cc:Work
         rdf:about="">
        <dc:format>image/svg+xml</dc:format>
        <dc:type
           rdf:resource="http://purl.org/dc/dcmitype/StillImage" />
        <dc:title></dc:title>
      </cc:Work>
    </rdf:RDF>
  </metadata>
  <g
     inkscape:label="Layer 1"
     inkscape:groupmode="layer"
     id="layer1">
    <g
       style="fill-rule:evenodd;stroke-width:28.22200012;stroke-linejoin:round"
       id="g4227"
       transform="matrix(0.01289609,0,0,0.01246524,-25.418202,-58.864864)">
      <g
         id="g4109">
        <g
           class="Master_Slide"
           id="id2">
          <g
             class="Background"
             id="bg-id2" />
          <g
             class="BackgroundObjects"
             id="bo-id2" />
        </g>
      </g>
      <g
         style="fill-rule:evenodd;stroke-width:28.22200012;stroke-linejoin:round"
         id="g9541"
         transform="matrix(0.83434983,0,0,0.89715879,1640.5982,3193.2036)">
        <g
           id="g9430">
          <g
             class="Master_Slide"
             id="id2-3">
            <g
               class="Background"
               id="bg-id2-2" />
            <g
               class="BackgroundObjects"
               id="bo-id2-0" />
          </g>
        </g>
        <g
           id="g9435"
           class="SlideGroup">
          <g
             id="g9437">
            <g
               clip-path="url(#presentation_clip_path-06)"
               class="Slide"
               id="id1">
              <g
                 id="g9440"
                 class="Page">
                <g
                   id="g9442"
                   class="Group">
                  <g
                     id="g9444"
                     class="com.sun.star.drawing.PolyPolygonShape">
                    <g
                       id="id3">
                      <rect
                         id="rect9447"
                         height="18778"
                         width="19517"
                         y="5460"
                         x="396"
                         class="BoundingBox"
                         style="fill:none;stroke:none" />
                      <path
                         id="path9449"
                         d="m 10154,24237 -366,-381 -202,-167 -225,-160 -240,-141 -262,-138 -275,-133 -301,-118 -308,-118 -320,-111 -336,-103 -346,-99 -347,-102 -358,-100 -362,-106 -358,-103 -367,-111 -370,-118 -358,-125 -354,-138 -355,-144 -346,-157 -339,-175 -320,-186 -317,-210 -301,-221 -285,-248 -271,-270 -240,-294 -228,-313 -199,-347 -175,-373 -145,-400 -80,-267 -49,-270 -42,-267 -11,-255 7,-263 19,-248 38,-251 54,-240 64,-244 73,-236 91,-229 92,-229 106,-221 111,-224 110,-214 126,-217 114,-217 126,-210 126,-209 122,-210 125,-205 119,-206 118,-202 110,-202 107,-202 95,-198 92,-202 80,-198 72,-194 57,-199 46,-194 34,-198 11,-84 8,-87 8,-84 0,-92 0,-84 0,-91 -8,-88 -8,-91 -11,-84 -15,-91 -12,-84 -19,-93 -19,-91 -19,-88 -26,-83 -27,-92 -34,-88 -31,-83 -34,-84 -38,-92 -42,-80 -38,-83 -46,-88 -46,-84 -45,-76 -54,-80 -49,-80 -54,-76 -61,-80 -57,-73 -61,-76 -221,-255 2926,-2861 320,163 153,73 157,76 156,69 156,68 157,69 164,64 160,65 163,57 157,61 163,57 164,54 164,53 164,46 164,46 167,45 164,38 172,42 163,31 168,38 172,27 163,34 172,27 167,19 172,19 175,19 172,15 171,11 168,16 179,3 167,8 172,0 171,0 168,-8 179,-3 168,-16 171,-11 172,-15 175,-19 171,-19 168,-19 171,-27 164,-34 172,-27 167,-38 164,-31 172,-42 163,-38 168,-45 164,-46 164,-46 164,-53 163,-54 164,-57 156,-61 164,-57 160,-65 164,-64 156,-69 157,-68 156,-69 157,-76 152,-73 320,-163 2926,2861 -221,255 -61,76 -57,73 -61,80 -53,76 -50,80 -53,80 -46,76 -45,84 -46,88 -38,83 -42,80 -38,92 -34,84 -31,83 -34,88 -27,92 -26,83 -20,88 -19,91 -19,93 -11,84 -15,91 -12,84 -7,91 -8,88 0,91 0,84 0,92 8,84 7,87 12,84 34,198 46,194 57,199 72,194 80,198 92,202 95,198 107,202 110,202 118,202 118,206 126,205 122,210 126,209 126,210 114,217 126,217 110,214 110,224 107,221 92,229 91,229 72,236 65,244 53,240 39,251 19,248 7,263 -11,255 -42,267 -50,270 -80,267 -144,400 -176,373 -198,347 -228,313 -240,294 -271,270 -286,248 -301,221 -316,210 -327,186 -332,175 -347,157 -354,144 -354,138 -358,125 -370,118 -367,111 -358,103 -362,106 -358,100 -347,102 -346,99 -336,103 -320,111 -308,118 -301,118 -275,133 -263,138 -240,141 -224,160 -202,167 -366,381 z"
                         inkscape:connector-curvature="0"
                         style="fill:#1b1918;stroke:none" />
                    </g>
                  </g>
                  <g
                     id="g9451"
                     class="com.sun.star.drawing.PolyPolygonShape">
                    <g
                       id="id4">
                      <rect
                         id="rect9454"
                         height="17219"
                         width="18695"
                         y="5929"
                         x="829"
                         class="BoundingBox"
                         style="fill:none;stroke:none" />
                      <path
                         id="path9456"
                         d="m 9475,23147 -163,-99 -282,-149 -301,-137 -309,-126 -320,-118 -130,-46 0,-6099 1505,-1132 0,7906 z m 0,0 0,0 z m -3055,-5601 0,4462 -46,-12 -362,-106 -358,-103 -363,-111 -255,-87 0,-3003 1384,-1040 z m 0,0 0,0 z m -2863,2153 0,1314 -312,-164 -309,-175 -293,-198 -65,-46 979,-731 z m 0,0 0,0 z m -2727,-3056 7,-68 50,-221 61,-218 64,-221 84,-217 92,-213 99,-210 106,-217 111,-209 110,-210 126,-210 118,-210 122,-209 126,-202 126,-210 121,-210 119,-209 110,-202 111,-210 106,-217 92,-209 91,-210 73,-217 64,-213 54,-218 38,-221 15,-99 4,-99 7,-99 8,-95 0,-107 -8,-99 -7,-95 -4,-99 -15,-99 -12,-103 -19,-99 -23,-99 -19,-99 -26,-95 -23,-99 -34,-99 -35,-100 -38,-91 -38,-99 -42,-91 -38,-92 -53,-95 -46,-92 -50,-87 -53,-92 -53,-91 -57,-84 -61,-88 -65,-83 -65,-84 -53,-65 2469,-2415 76,38 160,80 156,76 164,72 164,73 165,64 163,73 160,65 164,60 172,58 171,61 164,57 168,53 171,46 171,53 168,38 179,46 168,38 171,42 176,30 179,35 167,30 179,27 176,19 179,27 175,19 175,15 179,11 176,8 175,11 179,0 183,0 175,0 183,0 179,-11 175,-8 179,-11 176,-15 175,-19 179,-27 175,-19 175,-27 179,-30 176,-35 171,-30 175,-42 172,-38 171,-46 168,-38 179,-53 164,-46 168,-53 171,-57 168,-61 163,-58 164,-60 172,-65 164,-73 57,-19 L 830,16643 Z m 0,0 0,0 z m 15432,-6520 0,11100 -194,84 -347,133 -354,118 -355,118 -359,111 -61,11 0,-10417 1670,-1258 z m 0,0 0,0 z m -3449,2599 0,9594 -282,92 -328,110 -327,118 -305,126 -297,137 -130,73 0,-8993 1669,-1257 z m 0,0 0,0 z m 5243,849 12,27 126,210 125,202 122,209 126,210 118,210 118,210 111,209 103,217 99,210 91,213 80,217 73,221 57,218 45,221 35,224 19,229 7,229 -15,236 -30,236 -46,236 -69,248 -137,366 -164,339 -182,316 -202,293 -229,271 -244,248 -149,121 0,-6596 z"
                         inkscape:connector-curvature="0"
                         style="fill:#ffffff;stroke:none" />
                    </g>
                  </g>
                  <g
                     id="g9458"
                     class="com.sun.star.drawing.ClosedBezierShape">
                    <g
                       id="id5">
                      <rect
                         id="rect9461"
                         height="4071"
                         width="4087"
                         y="7529"
                         x="3676"
                         class="BoundingBox"
                         style="fill:none;stroke:none" />
                      <path
                         id="path9463"
                         d="m 5704,7533 c 1121,0 2054,902 2054,2023 0,1121 -933,2039 -2054,2039 -1110,0 -2024,-914 -2024,-2039 0,-1121 914,-2023 2024,-2023 z"
                         inkscape:connector-curvature="0"
                         style="fill:none;stroke:#1b1918;stroke-width:7;stroke-linejoin:miter" />
                    </g>
                  </g>
                  <g
                     id="g9465"
                     class="com.sun.star.drawing.ClosedBezierShape">
                    <g
                       id="id6">
                      <rect
                         id="rect9468"
                         height="816"
                         width="963"
                         y="9863"
                         x="6054"
                         class="BoundingBox"
                         style="fill:none;stroke:none" />
                      <path
                         id="path9470"
                         d="m 6348,10013 c 240,-167 515,-201 626,-46 103,141 -12,401 -260,565 -233,167 -508,194 -619,46 -102,-149 12,-398 253,-565 z"
                         inkscape:connector-curvature="0"
                         style="fill:none;stroke:#1b1918;stroke-width:7;stroke-linejoin:miter" />
                    </g>
                  </g>
                  <g
                     id="g9472"
                     class="com.sun.star.drawing.OpenBezierShape">
                    <g
                       id="id7">
                      <rect
                         id="rect9475"
                         height="836"
                         width="134"
                         y="10648"
                         x="6389"
                         class="BoundingBox"
                         style="fill:none;stroke:none" />
                      <path
                         id="path9477"
                         d="m 6496,10649 c 50,298 12,580 -103,832"
                         inkscape:connector-curvature="0"
                         style="fill:none;stroke:#1b1918;stroke-width:7;stroke-linejoin:miter" />
                    </g>
                  </g>
                  <g
                     id="g9479"
                     class="com.sun.star.drawing.OpenBezierShape">
                    <g
                       id="id8">
                      <rect
                         id="rect9482"
                         height="114"
                         width="663"
                         y="10367"
                         x="6898"
                         class="BoundingBox"
                         style="fill:none;stroke:none" />
                      <path
                         id="path9484"
                         d="m 6899,10371 c 259,54 458,119 660,103"
                         inkscape:connector-curvature="0"
                         style="fill:none;stroke:#1b1918;stroke-width:7;stroke-linejoin:miter" />
                    </g>
                  </g>
                  <g
                     id="g9486"
                     class="com.sun.star.drawing.OpenBezierShape">
                    <g
                       id="id9">
                      <rect
                         id="rect9489"
                         height="640"
                         width="773"
                         y="9333"
                         x="6977"
                         class="BoundingBox"
                         style="fill:none;stroke:none" />
                      <path
                         id="path9491"
                         d="m 6979,9968 c 347,-122 623,-409 767,-633"
                         inkscape:connector-curvature="0"
                         style="fill:none;stroke:#1b1918;stroke-width:7;stroke-linejoin:miter" />
                    </g>
                  </g>
                  <g
                     id="g9493"
                     class="com.sun.star.drawing.OpenBezierShape">
                    <g
                       id="id10">
                      <rect
                         id="rect9496"
                         height="2089"
                         width="325"
                         y="7763"
                         x="6594"
                         class="BoundingBox"
                         style="fill:none;stroke:none" />
                      <path
                         id="path9498"
                         d="M 6785,9850 C 6981,9141 6981,8447 6598,7765"
                         inkscape:connector-curvature="0"
                         style="fill:none;stroke:#1b1918;stroke-width:7;stroke-linejoin:miter" />
                    </g>
                  </g>
                  <g
                     id="g9500"
                     class="com.sun.star.drawing.OpenBezierShape">
                    <g
                       id="id11">
                      <rect
                         id="rect9503"
                         height="2354"
                         width="1270"
                         y="7602"
                         x="5216"
                         class="BoundingBox"
                         style="fill:none;stroke:none" />
                      <path
                         id="path9505"
                         d="M 6481,9953 C 6153,9122 5824,8318 5219,7605"
                         inkscape:connector-curvature="0"
                         style="fill:none;stroke:#1b1918;stroke-width:7;stroke-linejoin:miter" />
                    </g>
                  </g>
                  <g
                     id="g9507"
                     class="com.sun.star.drawing.OpenBezierShape">
                    <g
                       id="id12">
                      <rect
                         id="rect9510"
                         height="1758"
                         width="2144"
                         y="8490"
                         x="4008"
                         class="BoundingBox"
                         style="fill:none;stroke:none" />
                      <path
                         id="path9512"
                         d="M 6149,10243 C 5299,9828 4582,9240 4011,8493"
                         inkscape:connector-curvature="0"
                         style="fill:none;stroke:#1b1918;stroke-width:7;stroke-linejoin:miter" />
                    </g>
                  </g>
                  <g
                     id="g9514"
                     class="com.sun.star.drawing.OpenBezierShape">
                    <g
                       id="id13">
                      <rect
                         id="rect9517"
                         height="620"
                         width="2405"
                         y="9964"
                         x="3686"
                         class="BoundingBox"
                         style="fill:none;stroke:none" />
                      <path
                         id="path9519"
                         d="m 6089,10490 c -945,257 -1720,-84 -2401,-523"
                         inkscape:connector-curvature="0"
                         style="fill:none;stroke:#1b1918;stroke-width:7;stroke-linejoin:miter" />
                    </g>
                  </g>
                  <g
                     id="g9521"
                     class="com.sun.star.drawing.OpenBezierShape">
                    <g
                       id="id14">
                      <rect
                         id="rect9524"
                         height="808"
                         width="1268"
                         y="10621"
                         x="4910"
                         class="BoundingBox"
                         style="fill:none;stroke:none" />
                      <path
                         id="path9526"
                         d="m 6173,10623 c -294,492 -862,763 -1262,801"
                         inkscape:connector-curvature="0"
                         style="fill:none;stroke:#1b1918;stroke-width:7;stroke-linejoin:miter" />
                    </g>
                  </g>
                  <g
                     id="g9528"
                     class="com.sun.star.drawing.ClosedBezierShape">
                    <g
                       id="id15">
                      <rect
                         id="rect9531"
                         height="10765"
                         width="10747"
                         y="7750"
                         x="4095"
                         class="BoundingBox"
                         style="fill:none;stroke:none" />
                      <path
                         id="path9533"
                         d="m 4098,17394 511,-313 c 0,126 46,236 198,274 130,35 606,-281 716,-480 149,-270 103,-742 -80,-742 -217,0 -705,533 -1017,533 -38,0 -236,65 -309,-236 -19,-77 -19,-831 -19,-980 0,-617 233,-739 736,-1066 175,-111 609,-313 906,-374 l 84,-316 324,-175 4,1128 -488,186 c 0,-110 -91,-141 -129,-137 -198,34 -534,240 -728,473 0,0 -133,506 27,636 91,76 838,-606 1127,-530 0,0 237,80 256,145 91,255 80,1246 0,1414 -153,350 -804,765 -1124,914 -16,0 -473,129 -576,259 l 0,263 -422,244 3,-1120 z m 0,0 0,0 z m 2782,-1395 c 34,-19 64,-34 99,-53 30,0 57,7 76,26 11,20 27,46 27,92 0,38 -16,76 -27,122 -19,46 -46,84 -76,133 -35,46 -65,84 -99,111 -58,38 -103,49 -149,38 -30,-19 -50,-50 -50,-103 0,-46 8,-92 20,-130 26,-49 45,-87 76,-133 34,-38 65,-80 103,-103 z m 0,0 0,0 z m 1013,-3666 2325,-1707 0,987 -465,301 0,-134 c 0,-76 -26,-220 -26,-232 0,-27 -38,-30 -77,-30 -53,0 -644,480 -804,643 l 0,919 522,-374 0,577 -530,358 8,453 c 0,61 -27,282 129,271 31,0 217,-183 339,-248 l 12,434 -1414,1040 0,-430 c 187,-122 290,-179 290,-476 l 0,-1849 c 0,-214 -92,-263 -305,-187 l -4,-316 z m 0,0 0,0 z m 2245,1232 c 34,-27 65,-39 99,-54 31,0 57,8 76,23 12,23 27,50 27,95 0,31 -15,76 -27,115 -19,53 -45,91 -76,141 -34,45 -65,80 -99,102 -57,46 -103,54 -148,46 -31,-19 -50,-49 -50,-106 0,-42 8,-84 19,-130 27,-46 46,-84 76,-137 35,-31 73,-69 103,-95 z m 0,0 0,0 z m 3090,-4212 23,-220 c 19,-153 -80,-199 -214,-126 -121,68 -335,160 -575,354 -122,103 -144,377 -144,591 l 0,1318 c 0,354 163,335 163,335 297,-19 755,-373 747,-514 l -19,-587 587,-411 -27,903 c -11,377 -545,720 -926,1002 -278,202 -552,362 -693,434 -332,164 -568,50 -568,-568 l -8,-1406 c 0,-1242 324,-1447 1147,-1889 103,-61 366,-157 534,-138 38,-76 15,-335 99,-442 l 442,-239 -12,1173 -556,430 z m 0,0 0,0 z m 1414,881 c 30,-23 61,-38 95,-50 30,0 57,8 76,19 15,27 27,50 27,95 0,35 -12,80 -27,118 -19,50 -46,88 -76,134 -34,53 -65,84 -95,110 -61,46 -103,50 -149,46 -34,-27 -53,-53 -53,-110 0,-46 7,-84 19,-130 19,-46 45,-84 80,-133 30,-35 61,-73 103,-99 z"
                         inkscape:connector-curvature="0"
                         style="fill:#ffffff;stroke:none" />
                    </g>
                  </g>
                </g>
              </g>
            </g>
          </g>
        </g>
      </g>
    </g>
  </g>
</svg>
