<?xml version="1.0" encoding="UTF-8" standalone="no"?>
<!-- Created with Inkscape (http://www.inkscape.org/) -->

<svg
   xmlns:dc="http://purl.org/dc/elements/1.1/"
   xmlns:cc="http://creativecommons.org/ns#"
   xmlns:rdf="http://www.w3.org/1999/02/22-rdf-syntax-ns#"
   xmlns:svg="http://www.w3.org/2000/svg"
   xmlns="http://www.w3.org/2000/svg"
   xmlns:sodipodi="http://sodipodi.sourceforge.net/DTD/sodipodi-0.dtd"
   xmlns:inkscape="http://www.inkscape.org/namespaces/inkscape"
   width="210mm"
   height="297mm"
   viewBox="0 0 210 297"
   id="svg3392"
   version="1.1"
   inkscape:version="0.91 r13725"
   sodipodi:docname="saoPaulo.svg">
  <defs
     id="defs3">
    <clipPath
       clipPathUnits="userSpaceOnUse"
       id="presentation_clip_path">
      <rect
         id="rect3403"
         height="29700"
         width="21000"
         y="0"
         x="0" />
    </clipPath>
    <clipPath
       clipPathUnits="userSpaceOnUse"
       id="presentation_clip_path-3">
      <rect
         id="rect3646"
         height="29700"
         width="21000"
         y="0"
         x="0" />
    </clipPath>
    <clipPath
       clipPathUnits="userSpaceOnUse"
       id="presentation_clip_path-6">
      <rect
         id="rect3870"
         height="29700"
         width="21000"
         y="0"
         x="0" />
    </clipPath>
    <clipPath
       clipPathUnits="userSpaceOnUse"
       id="presentation_clip_path-7">
      <rect
         id="rect4072"
         height="29700"
         width="21000"
         y="0"
         x="0" />
    </clipPath>
    <clipPath
       clipPathUnits="userSpaceOnUse"
       id="presentation_clip_path-5">
      <rect
         id="rect4318"
         height="29700"
         width="21000"
         y="0"
         x="0" />
    </clipPath>
    <clipPath
       clipPathUnits="userSpaceOnUse"
       id="presentation_clip_path-2">
      <rect
         id="rect4911"
         height="29700"
         width="21000"
         y="0"
         x="0" />
    </clipPath>
    <clipPath
       clipPathUnits="userSpaceOnUse"
       id="presentation_clip_path-70">
      <rect
         id="rect5036"
         height="29700"
         width="21000"
         y="0"
         x="0" />
    </clipPath>
    <clipPath
       clipPathUnits="userSpaceOnUse"
       id="presentation_clip_path-0">
      <rect
         id="rect5689"
         height="29700"
         width="21000"
         y="0"
         x="0" />
    </clipPath>
    <clipPath
       clipPathUnits="userSpaceOnUse"
       id="presentation_clip_path-1">
      <rect
         id="rect7541"
         height="29700"
         width="21000"
         y="0"
         x="0" />
    </clipPath>
    <clipPath
       clipPathUnits="userSpaceOnUse"
       id="presentation_clip_path-20">
      <rect
         id="rect7845"
         height="29700"
         width="21000"
         y="0"
         x="0" />
    </clipPath>
    <clipPath
       clipPathUnits="userSpaceOnUse"
       id="presentation_clip_path-59">
      <rect
         id="rect7992"
         height="29700"
         width="21000"
         y="0"
         x="0" />
    </clipPath>
    <clipPath
       clipPathUnits="userSpaceOnUse"
       id="presentation_clip_path-9">
      <rect
         id="rect8117"
         height="29700"
         width="21000"
         y="0"
         x="0" />
    </clipPath>
    <clipPath
       clipPathUnits="userSpaceOnUse"
       id="presentation_clip_path-12">
      <rect
         id="rect8270"
         height="29700"
         width="21000"
         y="0"
         x="0" />
    </clipPath>
    <clipPath
       clipPathUnits="userSpaceOnUse"
       id="presentation_clip_path-94">
      <rect
         id="rect8659"
         height="29700"
         width="21000"
         y="0"
         x="0" />
    </clipPath>
    <clipPath
       clipPathUnits="userSpaceOnUse"
       id="presentation_clip_path-50">
      <rect
         id="rect9257"
         height="29700"
         width="21000"
         y="0"
         x="0" />
    </clipPath>
    <clipPath
       clipPathUnits="userSpaceOnUse"
       id="presentation_clip_path-06">
      <rect
         id="rect9393"
         height="29700"
         width="21000"
         y="0"
         x="0" />
    </clipPath>
    <clipPath
       clipPathUnits="userSpaceOnUse"
       id="presentation_clip_path-61">
      <rect
         id="rect9628"
         height="29700"
         width="21000"
         y="0"
         x="0" />
    </clipPath>
  </defs>
  <sodipodi:namedview
     inkscape:document-units="mm"
     id="base"
     pagecolor="#ffffff"
     bordercolor="#666666"
     borderopacity="1.0"
     inkscape:pageopacity="0.0"
     inkscape:pageshadow="2"
     inkscape:zoom="0.7"
     inkscape:cx="544.82403"
     inkscape:cy="519.70902"
     inkscape:current-layer="g4227"
     showgrid="false"
     inkscape:window-width="1619"
     inkscape:window-height="1026"
     inkscape:window-x="61"
     inkscape:window-y="24"
     inkscape:window-maximized="1" />
  <metadata
     id="metadata4">
    <rdf:RDF>
      <cc:Work
         rdf:about="">
        <dc:format>image/svg+xml</dc:format>
        <dc:type
           rdf:resource="http://purl.org/dc/dcmitype/StillImage" />
        <dc:title></dc:title>
      </cc:Work>
    </rdf:RDF>
  </metadata>
  <g
     inkscape:label="Layer 1"
     inkscape:groupmode="layer"
     id="layer1">
    <g
       style="fill-rule:evenodd;stroke-width:28.22200012;stroke-linejoin:round"
       id="g4227"
       transform="matrix(0.01289609,0,0,0.01246524,-25.418202,-58.864864)">
      <g
         id="g4109">
        <g
           class="Master_Slide"
           id="id2">
          <g
             class="Background"
             id="bg-id2" />
          <g
             class="BackgroundObjects"
             id="bo-id2" />
        </g>
      </g>
      <g
         style="fill-rule:evenodd;stroke-width:28.22200012;stroke-linejoin:round"
         id="g9776"
         transform="matrix(0.85033972,0,0,0.85575094,1426.7832,2819.2485)">
        <g
           id="g9665">
          <g
             class="Master_Slide"
             id="id2-5">
            <g
               class="Background"
               id="bg-id2-5" />
            <g
               class="BackgroundObjects"
               id="bo-id2-4" />
          </g>
        </g>
        <g
           id="g9670"
           class="SlideGroup">
          <g
             id="g9672">
            <g
               clip-path="url(#presentation_clip_path-61)"
               class="Slide"
               id="id1">
              <g
                 id="g9675"
                 class="Page">
                <g
                   id="g9677"
                   class="Group">
                  <g
                     id="g9679"
                     class="com.sun.star.drawing.PolyPolygonShape">
                    <g
                       id="id3">
                      <rect
                         id="rect9682"
                         height="19131"
                         width="19150"
                         y="8123"
                         x="640"
                         class="BoundingBox"
                         style="fill:none;stroke:none" />
                      <path
                         id="path9684"
                         d="m 640,8123 0,7416 9572,11714 9577,-11714 0,-7416 -19149,0 z"
                         inkscape:connector-curvature="0"
                         style="fill:#1b1918;stroke:none" />
                    </g>
                  </g>
                  <g
                     id="g9686"
                     class="com.sun.star.drawing.PolyPolygonShape">
                    <g
                       id="id4">
                      <rect
                         id="rect9689"
                         height="18801"
                         width="18898"
                         y="8250"
                         x="766"
                         class="BoundingBox"
                         style="fill:none;stroke:none" />
                      <path
                         id="path9691"
                         d="m 767,8250 0,7245 9446,11555 9450,-11555 0,-7245 -18896,0 z"
                         inkscape:connector-curvature="0"
                         style="fill:#ffffff;stroke:none" />
                    </g>
                  </g>
                  <g
                     id="g9693"
                     class="com.sun.star.drawing.PolyPolygonShape">
                    <g
                       id="id5">
                      <rect
                         id="rect9696"
                         height="8508"
                         width="6959"
                         y="15131"
                         x="11739"
                         class="BoundingBox"
                         style="fill:none;stroke:none" />
                      <path
                         id="path9698"
                         d="m 11740,15131 0,8507 6957,-8507 -6957,0 z"
                         inkscape:connector-curvature="0"
                         style="fill:#1b1918;stroke:none" />
                    </g>
                  </g>
                  <g
                     id="g9700"
                     class="com.sun.star.drawing.PolyPolygonShape">
                    <g
                       id="id6">
                      <rect
                         id="rect9703"
                         height="8508"
                         width="6963"
                         y="15131"
                         x="1731"
                         class="BoundingBox"
                         style="fill:none;stroke:none" />
                      <path
                         id="path9705"
                         d="m 1732,15131 6961,8507 0,-8507 -6961,0 z"
                         inkscape:connector-curvature="0"
                         style="fill:#e3001d;stroke:none" />
                    </g>
                  </g>
                  <g
                     id="g9707"
                     class="com.sun.star.drawing.PolyPolygonShape">
                    <g
                       id="id7">
                      <rect
                         id="rect9710"
                         height="3021"
                         width="3174"
                         y="4755"
                         x="15524"
                         class="BoundingBox"
                         style="fill:none;stroke:none" />
                      <path
                         id="path9712"
                         d="m 18697,5907 -1210,0 -375,-1152 -375,1152 -1213,0 982,712 -376,1156 982,-714 982,714 -376,-1156 979,-712 z"
                         inkscape:connector-curvature="0"
                         style="fill:#ffdd00;stroke:none" />
                    </g>
                  </g>
                  <g
                     id="g9714"
                     class="com.sun.star.drawing.PolyPolygonShape">
                    <g
                       id="id8">
                      <rect
                         id="rect9717"
                         height="3021"
                         width="3177"
                         y="4755"
                         x="1732"
                         class="BoundingBox"
                         style="fill:none;stroke:none" />
                      <path
                         id="path9719"
                         d="m 3695,5907 -376,-1152 -375,1152 -1212,0 981,712 -375,1156 981,-714 982,714 -375,-1156 982,-712 -1213,0 z"
                         inkscape:connector-curvature="0"
                         style="fill:#ffdd00;stroke:none" />
                    </g>
                  </g>
                  <g
                     id="g9721"
                     class="com.sun.star.drawing.PolyPolygonShape">
                    <g
                       id="id9">
                      <rect
                         id="rect9724"
                         height="3021"
                         width="3175"
                         y="4755"
                         x="6332"
                         class="BoundingBox"
                         style="fill:none;stroke:none" />
                      <path
                         id="path9726"
                         d="m 8292,5907 -374,-1152 -375,1152 -1210,0 978,712 -372,1156 979,-714 982,714 -376,-1156 982,-712 -1214,0 z"
                         inkscape:connector-curvature="0"
                         style="fill:#e3001d;stroke:none" />
                    </g>
                  </g>
                  <g
                     id="g9728"
                     class="com.sun.star.drawing.PolyPolygonShape">
                    <g
                       id="id10">
                      <rect
                         id="rect9731"
                         height="3021"
                         width="3175"
                         y="4755"
                         x="10926"
                         class="BoundingBox"
                         style="fill:none;stroke:none" />
                      <path
                         id="path9733"
                         d="m 14100,5907 -1210,0 -375,-1152 -375,1152 -1213,0 982,712 -376,1156 982,-714 979,714 -376,-1156 982,-712 z"
                         inkscape:connector-curvature="0"
                         style="fill:#e3001d;stroke:none" />
                    </g>
                  </g>
                  <g
                     id="g9735"
                     class="com.sun.star.drawing.PolyPolygonShape">
                    <g
                       id="id11">
                      <rect
                         id="rect9738"
                         height="5101"
                         width="16966"
                         y="9126"
                         x="1732"
                         class="BoundingBox"
                         style="fill:none;stroke:none" />
                      <path
                         id="path9740"
                         d="m 1732,9126 0,5100 16965,0 0,-5100 -16965,0 z"
                         inkscape:connector-curvature="0"
                         style="fill:#1b1918;stroke:none" />
                    </g>
                  </g>
                  <g
                     id="g9742"
                     class="com.sun.star.drawing.ClosedBezierShape">
                    <g
                       id="id12">
                      <rect
                         id="rect9745"
                         height="3558"
                         width="3221"
                         y="9898"
                         x="14728"
                         class="BoundingBox"
                         style="fill:none;stroke:none" />
                      <path
                         id="path9747"
                         d="m 17948,11143 0,-534 c 0,-391 -321,-711 -711,-711 l -1798,0 c -391,0 -711,320 -711,711 l 0,2135 c 0,391 320,711 711,711 l 1798,0 c 390,0 711,-320 711,-711 l 0,-534 -711,0 0,355 c 0,100 -80,179 -178,179 l -1442,0 c -99,0 -178,-79 -178,-179 l 0,-1779 c 0,-98 79,-177 178,-177 l 1442,0 c 98,0 178,79 178,177 l 0,357 711,0 z"
                         inkscape:connector-curvature="0"
                         style="fill:#ffffff;stroke:none" />
                    </g>
                  </g>
                  <g
                     id="g9749"
                     class="com.sun.star.drawing.ClosedBezierShape">
                    <g
                       id="id13">
                      <rect
                         id="rect9752"
                         height="3558"
                         width="3221"
                         y="9898"
                         x="2485"
                         class="BoundingBox"
                         style="fill:none;stroke:none" />
                      <path
                         id="path9754"
                         d="m 2485,10609 0,712 c 0,390 317,711 711,711 l 1620,0 c 95,0 178,79 178,178 l 0,355 c 0,100 -83,179 -178,179 l -2331,0 0,711 2509,0 c 390,0 711,-320 711,-711 l 0,-712 c 0,-390 -321,-711 -711,-711 l -1621,0 c -98,0 -177,-79 -177,-178 l 0,-357 c 0,-98 79,-177 177,-177 l 2332,0 0,-711 -2509,0 c -394,0 -711,320 -711,711 z"
                         inkscape:connector-curvature="0"
                         style="fill:#ffffff;stroke:none" />
                    </g>
                  </g>
                  <g
                     id="g9756"
                     class="com.sun.star.drawing.ClosedBezierShape">
                    <g
                       id="id14">
                      <rect
                         id="rect9759"
                         height="3558"
                         width="3218"
                         y="9898"
                         x="6568"
                         class="BoundingBox"
                         style="fill:none;stroke:none" />
                      <path
                         id="path9761"
                         d="m 9077,9898 -2509,0 0,3557 711,0 0,-1423 1798,0 c 390,0 708,-321 708,-711 l 0,-712 c 0,-391 -318,-711 -708,-711 z m 0,0 0,0 z m 0,1245 c 0,99 -83,178 -178,178 l -1620,0 0,-712 1620,0 c 95,0 178,82 178,177 l 0,357 z"
                         inkscape:connector-curvature="0"
                         style="fill:#ffffff;stroke:none" />
                    </g>
                  </g>
                  <g
                     id="g9763"
                     class="com.sun.star.drawing.PolyPolygonShape">
                    <g
                       id="id15">
                      <rect
                         id="rect9766"
                         height="3558"
                         width="3221"
                         y="9898"
                         x="10645"
                         class="BoundingBox"
                         style="fill:none;stroke:none" />
                      <path
                         id="path9768"
                         d="m 10645,13455 711,0 0,-1423 1798,0 0,-711 -1798,0 0,-712 2509,0 0,-711 -3220,0 0,3557 z"
                         inkscape:connector-curvature="0"
                         style="fill:#ffffff;stroke:none" />
                    </g>
                  </g>
                </g>
              </g>
            </g>
          </g>
        </g>
      </g>
    </g>
  </g>
</svg>
