<?xml version="1.0" encoding="UTF-8" standalone="no"?>
<!-- Created with Inkscape (http://www.inkscape.org/) -->

<svg
   xmlns:dc="http://purl.org/dc/elements/1.1/"
   xmlns:cc="http://creativecommons.org/ns#"
   xmlns:rdf="http://www.w3.org/1999/02/22-rdf-syntax-ns#"
   xmlns:svg="http://www.w3.org/2000/svg"
   xmlns="http://www.w3.org/2000/svg"
   xmlns:sodipodi="http://sodipodi.sourceforge.net/DTD/sodipodi-0.dtd"
   xmlns:inkscape="http://www.inkscape.org/namespaces/inkscape"
   width="210mm"
   height="297mm"
   viewBox="0 0 210 297"
   id="svg3392"
   version="1.1"
   inkscape:version="0.91 r13725"
   sodipodi:docname="vitoria.svg">
  <defs
     id="defs3">
    <clipPath
       clipPathUnits="userSpaceOnUse"
       id="presentation_clip_path">
      <rect
         id="rect3403"
         height="29700"
         width="21000"
         y="0"
         x="0" />
    </clipPath>
    <clipPath
       clipPathUnits="userSpaceOnUse"
       id="presentation_clip_path-3">
      <rect
         id="rect3646"
         height="29700"
         width="21000"
         y="0"
         x="0" />
    </clipPath>
    <clipPath
       clipPathUnits="userSpaceOnUse"
       id="presentation_clip_path-6">
      <rect
         id="rect3870"
         height="29700"
         width="21000"
         y="0"
         x="0" />
    </clipPath>
    <clipPath
       clipPathUnits="userSpaceOnUse"
       id="presentation_clip_path-7">
      <rect
         id="rect4072"
         height="29700"
         width="21000"
         y="0"
         x="0" />
    </clipPath>
    <clipPath
       clipPathUnits="userSpaceOnUse"
       id="presentation_clip_path-5">
      <rect
         id="rect4318"
         height="29700"
         width="21000"
         y="0"
         x="0" />
    </clipPath>
    <clipPath
       clipPathUnits="userSpaceOnUse"
       id="presentation_clip_path-2">
      <rect
         id="rect4911"
         height="29700"
         width="21000"
         y="0"
         x="0" />
    </clipPath>
    <clipPath
       clipPathUnits="userSpaceOnUse"
       id="presentation_clip_path-70">
      <rect
         id="rect5036"
         height="29700"
         width="21000"
         y="0"
         x="0" />
    </clipPath>
    <clipPath
       clipPathUnits="userSpaceOnUse"
       id="presentation_clip_path-0">
      <rect
         id="rect5689"
         height="29700"
         width="21000"
         y="0"
         x="0" />
    </clipPath>
    <clipPath
       clipPathUnits="userSpaceOnUse"
       id="presentation_clip_path-1">
      <rect
         id="rect7541"
         height="29700"
         width="21000"
         y="0"
         x="0" />
    </clipPath>
    <clipPath
       clipPathUnits="userSpaceOnUse"
       id="presentation_clip_path-20">
      <rect
         id="rect7845"
         height="29700"
         width="21000"
         y="0"
         x="0" />
    </clipPath>
    <clipPath
       clipPathUnits="userSpaceOnUse"
       id="presentation_clip_path-59">
      <rect
         id="rect7992"
         height="29700"
         width="21000"
         y="0"
         x="0" />
    </clipPath>
    <clipPath
       clipPathUnits="userSpaceOnUse"
       id="presentation_clip_path-9">
      <rect
         id="rect8117"
         height="29700"
         width="21000"
         y="0"
         x="0" />
    </clipPath>
    <clipPath
       clipPathUnits="userSpaceOnUse"
       id="presentation_clip_path-12">
      <rect
         id="rect8270"
         height="29700"
         width="21000"
         y="0"
         x="0" />
    </clipPath>
    <clipPath
       clipPathUnits="userSpaceOnUse"
       id="presentation_clip_path-94">
      <rect
         id="rect8659"
         height="29700"
         width="21000"
         y="0"
         x="0" />
    </clipPath>
    <clipPath
       clipPathUnits="userSpaceOnUse"
       id="presentation_clip_path-50">
      <rect
         id="rect9257"
         height="29700"
         width="21000"
         y="0"
         x="0" />
    </clipPath>
    <clipPath
       clipPathUnits="userSpaceOnUse"
       id="presentation_clip_path-06">
      <rect
         id="rect9393"
         height="29700"
         width="21000"
         y="0"
         x="0" />
    </clipPath>
    <clipPath
       clipPathUnits="userSpaceOnUse"
       id="presentation_clip_path-61">
      <rect
         id="rect9628"
         height="29700"
         width="21000"
         y="0"
         x="0" />
    </clipPath>
    <clipPath
       clipPathUnits="userSpaceOnUse"
       id="presentation_clip_path-76">
      <rect
         id="rect10152"
         height="29700"
         width="21000"
         y="0"
         x="0" />
    </clipPath>
    <clipPath
       clipPathUnits="userSpaceOnUse"
       id="presentation_clip_path-37">
      <rect
         id="rect11075"
         height="29700"
         width="21000"
         y="0"
         x="0" />
    </clipPath>
  </defs>
  <sodipodi:namedview
     inkscape:document-units="mm"
     id="base"
     pagecolor="#ffffff"
     bordercolor="#666666"
     borderopacity="1.0"
     inkscape:pageopacity="0.0"
     inkscape:pageshadow="2"
     inkscape:zoom="0.7"
     inkscape:cx="544.82403"
     inkscape:cy="519.70902"
     inkscape:current-layer="g4227"
     showgrid="false"
     inkscape:window-width="1619"
     inkscape:window-height="1026"
     inkscape:window-x="61"
     inkscape:window-y="24"
     inkscape:window-maximized="1" />
  <metadata
     id="metadata4">
    <rdf:RDF>
      <cc:Work
         rdf:about="">
        <dc:format>image/svg+xml</dc:format>
        <dc:type
           rdf:resource="http://purl.org/dc/dcmitype/StillImage" />
        <dc:title></dc:title>
      </cc:Work>
    </rdf:RDF>
  </metadata>
  <g
     inkscape:label="Layer 1"
     inkscape:groupmode="layer"
     id="layer1">
    <g
       style="fill-rule:evenodd;stroke-width:28.22200012;stroke-linejoin:round"
       id="g4227"
       transform="matrix(0.01289609,0,0,0.01246524,-25.418202,-58.864864)">
      <g
         id="g4109">
        <g
           class="Master_Slide"
           id="id2">
          <g
             class="Background"
             id="bg-id2" />
          <g
             class="BackgroundObjects"
             id="bo-id2" />
        </g>
      </g>
      <g
         style="fill-rule:evenodd;stroke-width:28.22200012;stroke-linejoin:round"
         id="g11232"
         transform="matrix(1.0089204,0,0,1.0236889,-155.77264,913.24291)">
        <g
           id="g11112">
          <g
             class="Master_Slide"
             id="id2-4">
            <g
               class="Background"
               id="bg-id2-5" />
            <g
               class="BackgroundObjects"
               id="bo-id2-2" />
          </g>
        </g>
        <g
           id="g11117"
           class="SlideGroup">
          <g
             id="g11119">
            <g
               clip-path="url(#presentation_clip_path-37)"
               class="Slide"
               id="id1">
              <g
                 id="g11122"
                 class="Page">
                <g
                   id="g11124"
                   class="Group">
                  <g
                     id="g11126"
                     class="com.sun.star.drawing.ClosedBezierShape">
                    <g
                       id="id3">
                      <rect
                         id="rect11129"
                         height="18808"
                         width="16140"
                         y="5445"
                         x="2108"
                         class="BoundingBox"
                         style="fill:none;stroke:none" />
                      <path
                         id="path11131"
                         d="M 9332,6351 C 7524,8313 5433,9474 3119,9803 l -918,130 -65,925 c -105,1504 86,3104 556,4626 l 7,26 c 1132,3665 3668,6750 6958,8463 l 539,279 537,-279 c 3291,-1713 5827,-4799 6959,-8464 l 10,-32 0,-7 c 444,-1501 621,-3096 514,-4612 l -65,-925 -918,-130 C 14926,9475 12891,8344 11012,6343 l -844,-898 -836,906 z"
                         inkscape:connector-curvature="0"
                         style="fill:#1b1918;stroke:none" />
                    </g>
                  </g>
                  <g
                     id="g11133"
                     class="com.sun.star.drawing.ClosedBezierShape">
                    <g
                       id="id4">
                      <rect
                         id="rect11136"
                         height="17663"
                         width="15258"
                         y="6092"
                         x="2549"
                         class="BoundingBox"
                         style="fill:none;stroke:none" />
                      <path
                         id="path11138"
                         d="M 9657,6649 C 7777,8688 5599,9896 3181,10239 l -565,80 -40,569 c -101,1450 83,2994 537,4465 l 8,26 c 1097,3553 3553,6543 6739,8201 l 336,174 334,-174 c 3187,-1658 5644,-4648 6740,-8202 l 9,-29 1,-4 c 428,-1453 600,-2994 496,-4457 l -40,-569 -564,-80 C 14761,9897 12641,8721 10691,6644 l -520,-552 -514,557 z"
                         inkscape:connector-curvature="0"
                         style="fill:#ffffff;stroke:none" />
                    </g>
                  </g>
                  <g
                     id="g11140"
                     class="com.sun.star.drawing.ClosedBezierShape">
                    <g
                       id="id5">
                      <rect
                         id="rect11143"
                         height="7816"
                         width="12818"
                         y="15145"
                         x="3787"
                         class="BoundingBox"
                         style="fill:none;stroke:none" />
                      <path
                         id="path11145"
                         d="m 16577,15145 -12790,0 7,25 c 1042,3376 3372,6214 6392,7786 l 10,4 9,-4 c 3020,-1573 5349,-4411 6391,-7786 l 8,-25 -27,0 z"
                         inkscape:connector-curvature="0"
                         style="fill:#1b1918;stroke:none" />
                    </g>
                  </g>
                  <g
                     id="g11147"
                     class="com.sun.star.drawing.ClosedBezierShape">
                    <g
                       id="id6">
                      <rect
                         id="rect11150"
                         height="8042"
                         width="13848"
                         y="7127"
                         x="3255"
                         class="BoundingBox"
                         style="fill:none;stroke:none" />
                      <path
                         id="path11152"
                         d="m 16598,15168 c 419,-1410 572,-2877 476,-4230 -2552,-362 -4839,-1620 -6897,-3810 -2019,2190 -4344,3448 -6897,3810 -94,1353 76,2820 514,4230 l 12804,0 z"
                         inkscape:connector-curvature="0"
                         style="fill:#e51e15;stroke:none" />
                    </g>
                  </g>
                  <g
                     id="g11154"
                     class="Group">
                    <g
                       id="g11156"
                       class="com.sun.star.drawing.ClosedBezierShape">
                      <g
                         id="id7">
                        <rect
                           id="rect11159"
                           height="6269"
                           width="3145"
                           y="10653"
                           x="5186"
                           class="BoundingBox"
                           style="fill:none;stroke:none" />
                        <path
                           id="path11161"
                           d="m 5186,11414 1466,-761 c -19,457 38,1009 249,1447 l 1429,3087 0,1734 -2135,-4440 c -210,-419 -648,-724 -1009,-1067 z"
                           inkscape:connector-curvature="0"
                           style="fill:#ffffff;stroke:none" />
                      </g>
                    </g>
                    <g
                       id="g11163"
                       class="com.sun.star.drawing.ClosedBezierShape">
                      <g
                         id="id8">
                        <rect
                           id="rect11166"
                           height="6612"
                           width="4003"
                           y="10786"
                           x="11320"
                           class="BoundingBox"
                           style="fill:none;stroke:none" />
                        <path
                           id="path11168"
                           d="m 15322,11547 -1468,-761 c 19,457 -57,1009 -247,1447 l -2287,5164 895,-134 2097,-4649 c 191,-419 649,-724 1010,-1067 z"
                           inkscape:connector-curvature="0"
                           style="fill:#ffffff;stroke:none" />
                      </g>
                    </g>
                    <g
                       id="g11170"
                       class="com.sun.star.drawing.ClosedBezierShape">
                      <g
                         id="id9">
                        <rect
                           id="rect11173"
                           height="7203"
                           width="3374"
                           y="12958"
                           x="8196"
                           class="BoundingBox"
                           style="fill:none;stroke:none" />
                        <path
                           id="path11175"
                           d="m 8196,20160 1315,0 0,-4534 1372,0 c 286,0 457,361 667,552 l 19,-1868 c -229,171 -381,496 -667,496 l -1372,0 -19,-1848 -878,266 0,6193 c 0,286 -285,496 -437,743 z"
                           inkscape:connector-curvature="0"
                           style="fill:#ffffff;stroke:none" />
                      </g>
                    </g>
                    <g
                       id="g11177"
                       class="com.sun.star.drawing.ClosedBezierShape">
                      <g
                         id="id10">
                        <rect
                           id="rect11180"
                           height="1983"
                           width="4080"
                           y="9852"
                           x="8215"
                           class="BoundingBox"
                           style="fill:none;stroke:none" />
                        <path
                           id="path11182"
                           d="m 8653,11834 0,-1259 c 0,-285 -267,-495 -438,-723 l 4078,0 0,1258 c -324,-210 -591,-592 -953,-592 l -1811,0 0,1144 -876,172 z"
                           inkscape:connector-curvature="0"
                           style="fill:#ffffff;stroke:none" />
                      </g>
                    </g>
                    <g
                       id="g11184"
                       class="com.sun.star.drawing.ClosedBezierShape">
                      <g
                         id="id11">
                        <rect
                           id="rect11187"
                           height="1260"
                           width="1354"
                           y="18920"
                           x="11435"
                           class="BoundingBox"
                           style="fill:none;stroke:none" />
                        <path
                           id="path11189"
                           d="m 11435,20178 1353,0 0,-1258 c -57,57 -95,571 -1087,571 l -266,687 z"
                           inkscape:connector-curvature="0"
                           style="fill:#ffffff;stroke:none" />
                      </g>
                    </g>
                    <g
                       id="g11191"
                       class="com.sun.star.drawing.PolyPolygonShape">
                      <g
                         id="id12">
                        <rect
                           id="rect11194"
                           height="2841"
                           width="1907"
                           y="18673"
                           x="9815"
                           class="BoundingBox"
                           style="fill:none;stroke:none" />
                        <path
                           id="path11196"
                           d="m 9815,18997 0,1239 647,1277 1259,-2840 -782,19 -572,1449 -552,-1144 z"
                           inkscape:connector-curvature="0"
                           style="fill:#ffffff;stroke:none" />
                      </g>
                    </g>
                    <g
                       id="g11198"
                       class="com.sun.star.drawing.ClosedBezierShape">
                      <g
                         id="id13">
                        <rect
                           id="rect11201"
                           height="4783"
                           width="3889"
                           y="13320"
                           x="4443"
                           class="BoundingBox"
                           style="fill:none;stroke:none" />
                        <path
                           id="path11203"
                           d="m 8330,17264 c -1048,-458 -2020,-1219 -2706,-2097 209,-438 628,-876 991,-1086 l -420,-761 c -514,380 -1067,799 -1314,1371 -96,210 -267,362 -438,476 171,96 285,76 457,324 838,1201 2115,2135 3430,2611 0,-324 0,-514 0,-838 z"
                           inkscape:connector-curvature="0"
                           style="fill:#ffffff;stroke:none" />
                      </g>
                    </g>
                    <g
                       id="g11205"
                       class="com.sun.star.drawing.ClosedBezierShape">
                      <g
                         id="id14">
                        <rect
                           id="rect11208"
                           height="1400"
                           width="5736"
                           y="11884"
                           x="7396"
                           class="BoundingBox"
                           style="fill:none;stroke:none" />
                        <path
                           id="path11210"
                           d="m 7396,12538 381,744 c 1752,-782 3468,-801 5049,-209 l 305,-668 c -1715,-743 -3811,-686 -5735,133 z"
                           inkscape:connector-curvature="0"
                           style="fill:#ffffff;stroke:none" />
                      </g>
                    </g>
                    <g
                       id="g11212"
                       class="com.sun.star.drawing.ClosedBezierShape">
                      <g
                         id="id15">
                        <rect
                           id="rect11215"
                           height="1336"
                           width="1316"
                           y="13053"
                           x="14121"
                           class="BoundingBox"
                           style="fill:none;stroke:none" />
                        <path
                           id="path11217"
                           d="m 14406,13053 -285,667 533,267 c 153,57 210,268 306,401 l 476,-1050 c -172,0 -362,78 -515,0 l -515,-285 z"
                           inkscape:connector-curvature="0"
                           style="fill:#ffffff;stroke:none" />
                      </g>
                    </g>
                    <g
                       id="g11219"
                       class="com.sun.star.drawing.ClosedBezierShape">
                      <g
                         id="id16">
                        <rect
                           id="rect11222"
                           height="2028"
                           width="5412"
                           y="16386"
                           x="9796"
                           class="BoundingBox"
                           style="fill:none;stroke:none" />
                        <path
                           id="path11224"
                           d="m 9796,17550 0,724 c 1924,419 3734,-153 5411,-1144 l -496,-743 c -1181,1009 -3201,1506 -4915,1163 z"
                           inkscape:connector-curvature="0"
                           style="fill:#ffffff;stroke:none" />
                      </g>
                    </g>
                  </g>
                </g>
              </g>
            </g>
          </g>
        </g>
      </g>
    </g>
  </g>
</svg>
